<svg width="1920" height="1039" fill="none" xmlns="http://www.w3.org/2000/svg"><path opacity=".4" d="M2067.36 380.633L1932.98 11.394c1.93-.938 2.68-3.867 1.98-6.381-.8-2.874-3.54-4.808-5.86-4.146-2.33.662-3.66 3.756-2.86 6.63.2.718.4 1.436.89 2.072l-93.75 116.256c-1.27-1.189-2.63-1.576-4.09-1.162-2.32.662-3.47 3.314-2.96 6.271l-366.34 108.955c-1.09-2.791-3.34-4.09-5.66-3.428-2.04.579-3.09 2.43-3.07 4.751l-438.72-5.366-.2-.719c-.81-2.873-3.54-4.808-5.87-4.146-2.33.662-3.66 3.756-2.86 6.63L741.564 340.135c-.992-2.431-3.237-3.731-5.564-3.068-2.326.662-3.66 3.756-2.859 6.63l.301 1.077-107.156 81.689c-1.083-1.631-3.229-2.571-4.973-2.074-2.036.579-3.57 2.955-3.16 5.552l-307.447 53.414c-.802-2.873-3.538-4.808-5.865-4.146-2.326.663-3.66 3.756-2.859 6.63l.201.718L81.107 620.066c-1.183-1.989-3.328-2.929-5.073-2.432-2.035.579-3.279 2.872-3.16 5.552l-79.08 12.434c-.8-2.874-3.537-4.809-5.864-4.146-2.326.662-3.47 3.314-2.959 6.27l-206.404 64.582c-.992-2.431-3.338-4.09-5.664-3.428-2.326.663-3.66 3.757-2.859 6.63.301 1.078.892 2.073 1.774 2.985L-394.729 1028.5c-1.173-.83-2.146-.94-3.309-.61-2.326.67-3.66 3.76-2.859 6.63.802 2.88 3.539 4.81 5.865 4.15 2.326-.66 3.47-3.32 3.059-5.91l95.967-26.16c1.092 2.79 3.438 4.45 5.764 3.78 2.327-.66 3.47-3.31 3.06-5.91l85.819-19.778c1.092 2.791 3.438 4.449 5.764 3.787 2.036-.58 3.279-2.872 3.159-5.552l304.247-41.259c.802 2.873 3.539 4.808 5.865 4.146 1.745-.497 3.089-2.43 3.069-4.751l566.001 28.45.201.718c.801 2.874 3.538 4.809 5.864 4.147 2.036-.58 3.279-2.873 3.159-5.553l290.771-37.81c.802 2.874 3.539 4.809 5.865 4.147 2.326-.663 3.66-3.757 2.859-6.63-.201-.719-.301-1.078-.792-1.713l240.121-248.657c1.27 1.188 2.73 1.935 4.48 1.438 1.74-.497 2.8-2.347 3.17-4.392l360.72 41.921.3 1.077c.8 2.874 3.54 4.809 5.86 4.146 2.33-.662 3.47-3.314 3.06-5.911l356.19-91.332c1.1 2.791 3.44 4.449 5.77 3.787 2.32-.662 3.66-3.756 2.86-6.63-.4-1.436-1-2.431-2.17-3.26l91.93-228.565c1.07.47 2.04.581 2.91.332 2.33-.662 3.66-3.756 2.86-6.629-.31-2.238-3.04-4.173-5.37-3.511zM-394.238 1029.14l166.547-319.992.391.277-64.393 290.129c-.682-.194-1.364-.387-2.236-.139-2.326.665-3.47 3.315-3.059 5.915l-95.967 26.16c-.201-.72-.692-1.36-1.283-2.35zm1084.039-65.538l-.872.248L576.97 776.274l-25.328-42.418c1.253-1.132 1.815-3.619 1.214-5.774l-.201-.718 200.673-133.516c.591.995 1.373 1.548 2.155 2.1L692.037 963.74c-.973-.11-1.654-.304-2.236-.138zm993.969-651.724l-91.17 64.731c-1.18-1.99-3.23-2.571-4.97-2.074-.87.248-1.35.773-1.83 1.298l-126.15-130.419.57-1.326 223.14 65.193c-.09.801.01 1.161.21 1.879l.2.718zm-74.34 400.749l77.77-397.46c.68.194 1.37.387 2.24.139 1.45-.414 2.61-1.905 2.89-3.148l75.81 26.492 97.64 33.849c-.09.801.11 1.52.31 2.238.2.719.69 1.354.89 2.073l-256.85 337.171c.09-.801-.31-1.077-.7-1.354zm218.78-578.35c.88.912 1.95 1.382 3.22 1.41l38.29 231.813c-1.45.414-2.6 1.905-2.89 3.148l-173.74-60.258c.09-.802-.11-1.52-.31-2.238-.2-.719-.4-1.437-.89-2.073l101.52-127.774 34.8-44.028zm-243.44 246.888l.4 1.437-344.13 288.738c-.98-1.271-2.83-2.294-4.29-1.88l-43.56-165.175-18.27-68.856c1.94-.938 2.99-2.789 2.58-5.386l268.47-32.237 138.8-16.641zM119.839 937.83L389.261 650.2c1.273 1.188 2.737 1.935 4.481 1.438 1.163-.331 2.126-1.381 2.698-2.707l147.473 78.596c-.091.801-.081 1.961.219 3.039l.101.359L120.23 938.107c-.1-.36-.1-.36-.391-.277zm633.139-350.861c-.863 1.408-1.043 3.011-.542 4.807l.2.718L551.964 726.01c-.491-.636-.982-1.272-1.764-1.824l17.94-72.96 53.642-217.278c.682.194 1.654.305 2.236.139.582-.165 1.163-.331 1.645-.856l1.864 2.184 125.451 151.554zM619.346 433.091c.491.636.882.912 1.273 1.189l-71.683 289.878c-.681-.194-1.654-.305-2.236-.139-1.163.331-2.125 1.38-2.697 2.706L396.53 648.13c.091-.801.081-1.961-.22-3.039-.2-.718-.3-1.078-.691-1.354l46.46-43.858 177.267-166.788zM78.459 628.575l.29-.083c1.745-.496 3.089-2.43 3.17-4.392l305.468 22.756.3 1.078c.201.718.401 1.437.792 1.713L134.17 920.567l-15.022 15.909c-.883-.912-1.955-1.382-2.928-1.493L93.676 750.641 78.459 628.575zm682.209-39.919c-.792-1.713-2.456-3.178-4.11-3.482l-18.915-237.719.581-.165c1.745-.497 2.898-1.988 2.979-3.95l427.357 86.147c.1.359-.09.801.11 1.52l-5.72 2.015-402.282 155.634zm829.382-203.18c.3-.082.59-.165.59-.165 2.32-.662 3.66-3.756 2.85-6.63l-.3-1.078 14.39-10.3 76.69-54.789c.49.636 1.37 1.548 2.05 1.741l-77.77 397.46-.29.083-17.06-305.324-1.15-20.998zm285.16-12.946l-.3-1.078c-.71-2.514-2.76-4.255-5-4.394l-29.18-176.636-9.11-55.177c.58-.165 1.35-.773 1.83-1.298l156.59 168.666 74.03 79.732c-.38.884-.76 1.768-.85 2.569l-87.3-5.775-100.71-6.609zm-47.89-239.165l-92.67 116.726-43.94 55.159c-1.27-1.188-2.63-1.576-4.09-1.162-1.45.414-2.6 1.906-3.08 3.591l-223.14-65.193c-.1-.359-.01-1.161-.11-1.52l366.24-109.314c.2.718.4 1.437.79 1.713zm-375.35 111.522c1.18 1.989 3.33 2.929 5.07 2.433.87-.249 1.35-.773 1.84-1.298l126.14 130.418c-.38.884-.66 2.128-.65 3.288l-330.1 39.703-76.2 9.286-.2-.719 125.22-83.34 148.88-99.771zm-442.88-3.406c.58-.166 1.16-.332 1.64-.856l76.73 89.429 82.33 95.98c-.48.525-.57 1.326-.66 2.127l-427.355-86.147c-.101-.359-.01-1.16-.11-1.52L1003.71 237.97c.8 2.874 3.05 4.173 5.38 3.511zM618.755 432.096L395.318 642.659c-1.373-1.547-2.837-2.294-4.582-1.797l-.581.166-80.663-151.899c1.253-1.132 1.725-2.817 1.514-4.696l307.348-53.773c-.191.442.01 1.16.401 1.436zM77.486 628.464l37.471 306.491-.291.083-.291.083L-8.292 641.642c1.645-.856 2.307-2.983 1.997-5.221l79.08-12.434c.801 2.874 2.756 4.256 4.701 4.477zm-91.031 12.348l-140.147 259.354-41.995 77.869c-.782-.552-1.464-.746-2.045-.58l-26.941-267.615.582-.166c2.326-.662 3.469-3.314 2.959-6.27l206.404-64.582c.2.718.5 1.796 1.183 1.99zm-277.366 359.298l64.393-290.133c.291-.082.391.277.682.194l15.682 154.115 11.259 113.5-.582.165c-2.326.663-3.47 3.315-3.059 5.912l-85.819 19.777c-.501-1.79-1.484-3.06-2.556-3.53zm1052.28-408.939c-.1-.359.091-.801-.01-1.161l165.798-63.876 242.593-93.497c.89 2.073 2.85 3.455 4.98 3.234l61.54 234.114c-1.45.413-2.51 2.264-2.69 3.866l-454.405-79.608-17.806-3.072zm850.121 123.197l58.81-77.228 197.76-259.86c1.27 1.188 2.63 1.575 4.09 1.161l.29-.082 97.93 240.811c-1.65.856-2.21 3.342-1.9 5.58l-356.19 91.332c-.2-.719-.69-1.354-.79-1.714zm360.04-95.529c-.29.082-.29.082 0 0l-98.22-240.729c1.35-.773 2.12-2.541 2.01-4.06l188.69 12.577.3 1.078c.4 1.437.99 2.431 2.16 3.261l-91.92 228.564c-1.17-.829-2.15-.94-3.02-.691zm-43.62-608.717c1.28 1.188 2.64 1.575 4.09 1.162l134.39 369.238c-.29.083-.78.608-1.07.691l-230.91-248.315c.58-1.326 1.05-3.011.55-4.807-.2-.719-.4-1.437-.9-2.073l93.85-115.896zm-476.64 232.25a692.764 692.764 0 0 0 .4 1.437l-141.54 94.58-132.85 88.614c-1.18-1.989-3.33-2.929-5.07-2.432-.58.165-1.16.331-1.64.855L1011.5 240.017c.38-.884.76-1.768.75-2.928l439.02 5.283zM733.642 345.493c.983 1.271 2.156 2.1 3.419 2.128l18.624 237.801-.581.166c-.582.165-1.163.331-1.645.856L626.244 433.066c.862-1.409 1.043-3.011.542-4.807l-.3-1.078 107.156-81.688zM302.483 487.635c1.183 1.99 3.329 2.93 5.073 2.433l.582-.166 77.697 145.764 3.157 5.693c-1.063.69-1.635 2.016-1.816 3.618L81.708 622.222l-.3-1.078-.2-.718 221.275-132.791zm-495.905 494.021c-.3-1.078-.892-2.073-1.774-2.985l182.142-337.224c1.173.829 2.145.94 3.6.526l.29-.082 29.254 69.991 93.413 223.487c-1.354.773-2.307 2.983-2.096 4.862l-304.829 41.425zm314.253-41.394l-.2-.719-.1-.359 424.002-207.181c1.283 2.348 3.429 3.288 5.464 2.709l.872-.248 137.388 230.353c-.963 1.049-1.244 2.293-1.525 3.536l-565.901-28.091zm574.935 27.845c-.501-1.796-1.583-3.426-2.947-3.814l3.061-17.156 60.676-350.719c.681.194 1.263.029 1.844-.137.582-.166.873-.248 1.063-.69l228.398 330.452c-.963 1.049-1.143 2.652-1.033 4.171l-291.062 37.893zm298.512-41.565c-1.273-1.188-2.737-1.935-4.482-1.438-.581.166-.872.248-1.063.69L760.336 595.342c.772-.607 1.053-1.85 1.143-2.652l69.571 11.986 402.54 70.336c.1.359.01 1.16.11 1.52.2.718.3 1.077.8 1.713L994.278 926.542zm248.352-251.776l-.3-1.077-.4-1.437 344.12-288.739c.89.912 2.06 1.742 3.03 1.853l18.31 326.68-.58.166c-1.75.497-2.8 2.347-3.17 4.392l-361.01-41.838z" fill="#fff"/></svg>