<svg width="901" height="401" fill="none" xmlns="http://www.w3.org/2000/svg"><path opacity=".5" d="M896.387-181.993L790.34-363.202c.887-.837 1.068-2.128.44-3.418-.708-1.452-2.38-2.228-3.554-1.648-1.175.579-1.59 2.385-.883 3.837.157.323.524.743.681 1.065l-38 70.189c-.706-.453-1.594-.615-2.377-.228-1.175.579-1.538 2.16-1.04 3.515l-181.961 92.61c-.759-1.226-2.223-1.905-3.397-1.325-.913.451-1.303 1.644-1.223 2.805l-230.715 39.024-.157-.323c-.707-1.452-2.379-2.227-3.554-1.648-1.174.58-1.537 2.16-.961 3.677L195.793-75.96c-.759-1.227-2.144-1.744-3.188-1.229-1.174.58-1.589 2.386-.882 3.838l.236.484-48.418 53.116c-.863-.775-1.83-1.099-2.743-.648-1.044.515-1.486 1.934-.988 3.29l-156.237 57.7c-.707-1.453-2.3-2.067-3.475-1.488-1.174.58-1.59 2.386-.882 3.838l.157.323-103.255 91.388c-.811-1-1.908-1.259-2.952-.744-1.044.515-1.486 1.934-1.066 3.128l-40.379 14.125c-.707-1.452-2.379-2.228-3.554-1.648-1.174.58-1.537 2.16-1.039 3.515l-102.134 53.811c-.759-1.226-2.222-1.905-3.397-1.325-1.174.58-1.589 2.386-.882 3.838.314.645.68 1.065 1.177 1.42l-56.666 184.068c-.627-.291-1.306-.356-1.828-.099-1.174.58-1.59 2.386-.882 3.838.707 1.452 2.379 2.228 3.554 1.648 1.174-.579 1.537-2.16 1.039-3.515l47.73-22.957c.838 1.388 2.222 1.905 3.397 1.325 1.044-.515 1.485-1.934 1.118-3.353l43.166-18.704c.837 1.388 2.301 2.067 3.475 1.487 1.044-.515 1.486-1.934 1.066-3.128l156.299-50.926c.707 1.452 2.38 2.228 3.554 1.648.913-.45 1.382-1.482 1.223-2.805l299.812-39.706.235.484c.707 1.452 2.38 2.228 3.554 1.648 1.044-.515 1.486-1.934 1.066-3.128L381.9 210.826c.707 1.452 2.379 2.228 3.554 1.648 1.174-.579 1.589-2.385.882-3.837-.157-.323-.314-.646-.523-.743L487.961 54.412c.784.614 1.672.776 2.455.39.914-.451 1.382-1.483 1.172-2.58l193.67-12.735.314.645c.707 1.453 2.38 2.228 3.554 1.649 1.174-.58 1.616-1.999 1.039-3.515L868.459-43.93c.838 1.388 2.223 1.905 3.397 1.326 1.174-.58 1.59-2.386.883-3.838-.315-.645-.89-1.162-1.387-1.517l26.27-128.84c.549.13 1.097.259 1.619.002 1.174-.58 1.59-2.386.883-3.838-.969-1.323-2.432-2.002-3.737-1.358zM-333.859 395.389l56.666-184.068s.13-.064.209.097l-5.937 158.629c-.339-.032-.809 0-1.2.193-1.175.58-1.538 2.16-1.04 3.515l-47.73 22.957c-.314-.645-.68-1.065-.968-1.323zM195.016-71.574l.261-.13c.783-.386 1.251-1.417 1.25-2.417l200.117 3.495 32.617.512c.079.161.106.549.184.71l-9.314 5.798L230.16 52.77c-.602-.903-1.516-1.453-2.457-1.389l-1.732-6.55-30.955-116.405zM688.389-181.4l-41.643 42.768c-.863-.775-1.96-1.034-2.873-.583-.392.193-.574.483-.887.838l-78.762-56.387c.052-.226.104-.452.077-.839l123.381 12.751c.027.387.184.71.341 1.033.209.097.288.258.366.419zm-125.156-12.075c.392-.193.574-.483.887-.838l78.762 56.387c-.234.516-.259 1.129-.075 1.839L434.039-71.271l-.158-.323 126.61-122.527c.523.742 1.699 1.162 2.742.647zm185.537-94.575l6.161 16.972 36.312 101.154c-.783.386-1.2 1.192-1.277 2.031l-97.087-14.922c-.027-.387-.184-.71-.419-1.194-.158-.323-.524-.742-.811-1l55.266-103.526a3.02 3.02 0 0 0 1.855.485zm46.054 120.161l-.236-.484c-.629-1.291-1.753-1.937-2.954-1.745l-3.827-10.518-38.646-107.607c.391-.193.574-.483.756-.774l145.062 108.118c-.104.452-.208.903-.103 1.452l-21.749 2.529-78.303 9.029zM229.093 256.627l-.522.257L134.328 149.1c.548-.87.677-1.934.127-3.064l-.158-.323 92.526-89.494c.366.42.862.775 1.411.904l2.06 199.311c-.6.096-.94.064-1.201.193zm-98.996-108.24L-72.492 298.008l-.157-.322L41.113 120.86c.784.614 1.672.776 2.455.39.653-.322 1.018-.903 1.173-1.58l85.04 27.072c-.104.451.002 1 .316 1.645zm-254.129-9.058c.913-.451 1.382-1.482 1.302-2.644l162.718-17.471.236.484c.157.323.314.646.601.904L11.46 166.316-73.145 297.33c-.497-.355-1.124-.646-1.725-.549l-19.281-61.529-30.012-95.858.131-.065zM141.929-14.753l-9.749 159.11c-.339-.033-.809-.001-1.201.192-.652.322-1.017.903-1.173 1.58l-85.04-27.072c.026-.613-.08-1.161-.315-1.645-.157-.323-.236-.484-.524-.742l97.087-131.972c.288.258.497.355.915.549zm84.24 70.294l.157.323-92.525 89.494c-.366-.419-.785-.613-1.203-.807l9.749-159.11c.339.032.809 0 1.201-.193.261-.128.652-.322.835-.612l81.599 68.195c-.286.742-.285 1.742.187 2.71zm261.915-6.193L433.208-67.659c.835-.612 1.225-1.805.936-3.064l208.768-64.815c.079.162.236.484.445.581L490.409 49.802c-.575-.517-1.463-.679-2.325-.454zM688.57 36.651l-.627-.29 2.642-216.242c.34.033.81.001 1.071-.128.783-.386 1.199-1.192 1.276-2.031l97.088 14.922c.026.387.184.71.419 1.194.236.484.524.742.811 1L740.34-64.749l-51.77 101.4zm58.057-325.444l-55.266 103.526c-.706-.452-1.594-.614-2.246-.292-.783.386-1.2 1.192-1.198 2.192l-112.856-11.742-10.604-1.17c.052-.226-.105-.548-.184-.71l181.961-92.61c.027.387.105.548.393.806zM327.272-153.261c.261-.129.573-.483.834-.612L429.494-71.63c-.182.29-.286.742-.181 1.29l-232.734-4.007c-.079-.161-.105-.548-.184-.71l127.846-79.11c.602.904 1.987 1.421 3.031.906zM140.648-15.721L43.561 116.25c-.784-.614-1.75-.937-2.664-.486l-.392.193-57.031-71.915c.495-.645.624-1.71.362-2.58l156.237-57.7c.209.096.287.258.575.516zM-124.763 139.49l49.162 157.451-.13.065-.13.064-36.431-55.866-56.347-86.463c.626-.709.885-1.838.544-2.87l40.378-14.125c.759 1.226 2.014 1.808 2.954 1.744zm-46.566 15.378l-60.657 186.838-2.496 7.836c-.418-.194-.758-.226-1.097-.259l-14.697-50.783-25.168-87.242.261-.129c1.175-.579 1.538-2.16 1.04-3.515l102.134-53.811c.026.387.184.71.68 1.065zm-111.122 215.148l5.937-158.63c.13-.064.34.033.34.033l39.785 137.864-.261.128c-1.044.516-1.485 1.934-1.118 3.354l-43.166 18.703c-.184-.709-.759-1.226-1.517-1.452zm513.24-315.955c-.079-.161-.105-.548-.184-.71L429.969-68.662c.68 1.065 1.934 1.647 2.926 1.358L444.84-41.78l42.853 91.321c-.705.548-1.121 1.354-.989 2.29l-180.002 1.586-75.913.644zM646.283-133.6l.392-.193c1.174-.579 1.589-2.385.882-3.837l-.236-.484 41.644-42.768c.366.42.784.613 1.202.807l-2.642 216.242s-.131.064-.209-.097l-22.487-93.368-18.546-76.302zm42.784 170.607l24.114-47.525 78.357-154.147c.706.452 1.594.614 2.246.292l.131-.065 74.644 117.057c-.756.774-1.016 1.902-.466 3.032L689.799 37.846c-.287-.258-.445-.581-.732-.84zM869.002-47.8l-54.439-85.202-20.336-31.79c.574-.483.782-1.386.65-2.322l100.392-11.525.236.484c.314.645.889 1.162 1.386 1.517l-26.27 128.84c-.627-.291-1.097-.26-1.619-.002zm-81.43-315.436c.706.452 1.594.614 2.247.292l106.046 181.209c-.13.064-.312.354-.443.419L750.361-289.435c.286-.741.154-1.677-.239-2.483-.157-.323-.523-.743-.68-1.066l38.13-70.252zm-228.05 167.791a98.08 98.08 0 0 0 .315.646L433.228-72.272c-.733-.839-1.908-1.26-2.952-.744-.261.129-.574.483-.835.612l-101.388-82.243c.234-.516.26-1.129.154-1.678l231.315-39.12zM192.613-72.189c.575.516 1.202.807 2.011.808l32.688 122.955-.261.13c-.261.128-.652.321-.835.611L172.383 7.24l-27.766-23.12c.286-.741.285-1.741-.187-2.71l-.236-.483 48.419-53.116zM-20.182 43.845c.81 1 1.908 1.26 2.952.744l.391-.193 57.032 71.915c-.365.581-.651 1.322-.468 2.032l-162.718 17.471-.235-.484-.158-.322 103.204-91.163zm-212.783 307.15c-.315-.645-.681-1.065-1.177-1.42l63.231-194.513c.627.291 1.307.356 1.959.034l.13-.065 92.778 142.329c-.626.709-.964 1.677-.623 2.709l-156.298 50.926zm160.945-52.019l-.236-.484-.078-.161 202.667-149.46c.811 1.001 2.065 1.582 3.109 1.067l.522-.257 94.243 107.783c-.365.581-.521 1.258-.468 2.032l-299.76 39.48zm304.537-40.637c-.472-.968-1.256-1.582-2.014-1.808l-2.06-199.31c.34.032.679.064 1.071-.129.261-.129.391-.193.573-.483l151.705 151.669c-.365.58-.442 1.419-.18 2.29l-149.095 47.771zm152.747-50.574c-.784-.614-1.672-.776-2.455-.389-.261.128-.392.193-.574.483L230.531 56.189c.234-.515.338-.967.363-1.58l135.583-1.076 120.28-.928c.079.161.105.548.184.71.157.322.314.645.523.742l-102.2 153.708zM491.613 51.609l-.314-.645c-.079-.161-.236-.484-.445-.581l61.653-74.458 91.164-110.236c.575.516 1.202.807 1.803.711l22.198 92.11 19.122 77.817-.392.194c-.913.45-1.382 1.482-1.171 2.579L491.613 51.61z" fill="#fff"/></svg>