<svg width="1920" height="1080" fill="none" xmlns="http://www.w3.org/2000/svg"><path opacity=".5" d="M826.296-181.992l106.047-181.209c-.887-.838-1.067-2.128-.439-3.419.707-1.452 2.38-2.227 3.554-1.648 1.174.58 1.59 2.386.882 3.838-.157.323-.523.742-.68 1.065l38 70.188c.706-.452 1.594-.614 2.377-.228 1.174.58 1.538 2.16 1.039 3.515l181.964 92.611c.76-1.226 2.22-1.905 3.39-1.325.92.45 1.31 1.644 1.23 2.805l230.71 39.024.16-.323c.71-1.452 2.38-2.228 3.55-1.648 1.18.579 1.54 2.16.96 3.676l127.85 79.11c.76-1.226 2.14-1.744 3.19-1.228 1.17.58 1.59 2.385.88 3.837l-.24.484 48.42 53.116c.87-.775 1.83-1.098 2.75-.647 1.04.515 1.48 1.934.98 3.289l156.24 57.7c.71-1.452 2.3-2.066 3.48-1.487 1.17.58 1.58 2.386.88 3.838l-.16.322 103.26 91.389c.81-1.001 1.9-1.26 2.95-.745 1.04.516 1.48 1.935 1.06 3.128l40.38 14.126c.71-1.452 2.38-2.228 3.56-1.648 1.17.579 1.53 2.16 1.04 3.515l102.13 53.811c.76-1.226 2.22-1.905 3.4-1.325 1.17.579 1.59 2.385.88 3.837-.32.646-.68 1.065-1.18 1.421l56.67 184.067c.62-.291 1.3-.356 1.83-.098 1.17.579 1.59 2.385.88 3.838-.71 1.452-2.38 2.227-3.56 1.648-1.17-.58-1.53-2.16-1.04-3.515l-47.73-22.957c-.83 1.387-2.22 1.905-3.39 1.325-1.05-.515-1.49-1.934-1.12-3.354l-43.17-18.703c-.83 1.388-2.3 2.066-3.47 1.487-1.05-.515-1.49-1.934-1.07-3.128l-156.3-50.926c-.7 1.452-2.38 2.227-3.55 1.648-.91-.451-1.38-1.483-1.22-2.805l-299.81-39.706-.24.484c-.71 1.452-2.38 2.228-3.55 1.648-1.05-.515-1.49-1.934-1.07-3.128l-149.1-47.771c-.7 1.452-2.38 2.228-3.55 1.648-1.17-.58-1.59-2.386-.88-3.838.15-.322.31-.645.52-.742L1234.72 54.413c-.78.614-1.67.776-2.45.39-.92-.452-1.38-1.483-1.17-2.58l-193.67-12.735-.32.645c-.71 1.452-2.38 2.228-3.55 1.648-1.18-.58-1.62-1.998-1.04-3.515L854.224-43.929c-.838 1.388-2.222 1.905-3.397 1.326-1.174-.58-1.589-2.386-.882-3.838.314-.646.89-1.162 1.386-1.517l-26.269-128.84c-.549.129-1.098.259-1.619.001-1.175-.579-1.59-2.385-.883-3.837.968-1.324 2.431-2.002 3.736-1.358zM2056.54 395.389l-56.66-184.067s-.13-.065-.21.097l5.93 158.629c.34-.033.81-.001 1.21.193 1.17.579 1.53 2.159 1.03 3.515l47.73 22.957c.32-.646.69-1.065.97-1.324zM1527.67-71.574l-.26-.129c-.79-.386-1.25-1.418-1.25-2.418l-200.12 3.496-32.62.512c-.08.161-.1.548-.18.71l9.31 5.798L1492.52 52.77c.61-.904 1.52-1.453 2.46-1.39l1.73-6.549 30.96-116.406zm-493.38-109.824l41.65 42.768c.86-.775 1.96-1.034 2.87-.584.39.194.57.484.89.838l78.76-56.387a2.74 2.74 0 0 1-.08-.838L1035-182.85c-.03.387-.18.71-.34 1.032-.21.097-.29.259-.37.42zm125.16-12.075c-.39-.193-.57-.483-.89-.838l-78.76 56.387c.24.516.26 1.129.08 1.838l208.76 64.816.16-.323-126.61-122.528c-.52.743-1.7 1.163-2.74.648zm-185.536-94.575l-6.161 16.972-36.313 101.153c.783.387 1.2 1.193 1.277 2.031l97.083-14.921c.03-.387.19-.71.42-1.194.16-.323.53-.743.82-1.001l-55.271-103.526a3.031 3.031 0 0 1-1.855.486zm-46.054 120.16l.236-.484c.628-1.29 1.752-1.937 2.953-1.744l3.828-10.519 38.646-107.607c-.392-.193-.574-.483-.757-.773L827.705-180.897c.104.452.208.903.102 1.452l21.75 2.529 78.303 9.028zm565.73 424.515l.52.258 94.25-107.784c-.55-.871-.68-1.935-.13-3.064l.16-.323-92.53-89.495c-.37.42-.86.775-1.41.905l-2.06 199.311c.6.096.94.063 1.2.192zm99-108.239l202.59 149.621c.07-.161.07-.161.15-.323l-113.76-176.825c-.78.613-1.67.776-2.45.389-.66-.322-1.02-.902-1.18-1.579l-85.04 27.071c.11.452 0 1-.31 1.646zm254.13-9.058c-.92-.451-1.39-1.483-1.31-2.644l-162.71-17.471-.24.484c-.16.323-.31.645-.6.904l29.36 45.713 84.61 131.015c.5-.355 1.12-.646 1.72-.55l19.28-61.528 30.02-95.859-.13-.064zM1580.75-14.753l9.75 159.11c.34-.032.81 0 1.2.193.66.322 1.02.902 1.18 1.579l85.04-27.071c-.03-.613.08-1.161.31-1.646.16-.322.24-.484.53-.742l-97.09-131.972c-.29.259-.5.356-.92.55zm-84.24 70.294c-.07.162-.15.323-.15.323l92.52 89.495c.37-.42.79-.614 1.21-.808l-9.75-159.11c-.34.033-.81.001-1.2-.192-.27-.129-.66-.322-.84-.612l-81.6 68.195c.29.741.29 1.741-.19 2.71zM1234.6 49.35l54.88-117.007c-.84-.613-1.23-1.806-.94-3.064l-208.77-64.815c-.08.161-.23.484-.44.581l152.94 184.758c.58-.516 1.47-.678 2.33-.453zm-200.49-12.697l.63-.29-2.64-216.242c-.34.032-.81.001-1.07-.128-.78-.387-1.2-1.193-1.28-2.031l-97.086 14.921c-.027.387-.184.71-.42 1.194-.235.484-.523.743-.811 1.001l50.91 100.175 51.767 101.4zm-58.054-325.444l55.264 103.526c.71-.452 1.6-.614 2.25-.292.78.386 1.2 1.192 1.2 2.192l112.85-11.742 10.61-1.17c-.06-.226.1-.549.18-.71l-181.961-92.611c-.026.387-.105.549-.393.807zM1395.41-153.26c-.26-.129-.57-.484-.83-.613l-101.39 82.244c.18.29.29.742.18 1.29l232.73-4.007c.08-.162.11-.549.19-.71l-127.85-79.11c-.6.903-1.98 1.421-3.03.906zm186.63 137.539l97.08 131.971c.79-.613 1.75-.936 2.67-.486l.39.194 57.03-71.916c-.5-.645-.62-1.709-.36-2.58l-156.24-57.7c-.21.097-.29.258-.57.517zm265.41 155.212l-49.17 157.451.13.064.14.065 36.43-55.867 56.34-86.462c-.62-.709-.88-1.838-.54-2.87l-40.38-14.126c-.76 1.227-2.01 1.808-2.95 1.745zm46.56 15.378l60.66 186.838 2.5 7.836c.41-.194.75-.227 1.09-.259l14.7-50.784 25.17-87.241-.26-.129c-1.18-.58-1.54-2.16-1.04-3.515l-102.14-53.811c-.02.387-.18.709-.68 1.065zm111.12 215.147l-5.93-158.629c-.13-.065-.34.032-.34.032l-39.79 137.864.26.129c1.05.515 1.49 1.934 1.12 3.354l43.17 18.703c.18-.71.76-1.226 1.51-1.453zM1491.89 54.062c.08-.162.11-.549.19-.71L1292.72-68.661c-.69 1.065-1.94 1.647-2.93 1.357l-11.95 25.525-42.85 91.321c.71.548 1.12 1.354.99 2.29l180 1.586 75.91.644zM1076.4-133.6l-.39-.193c-1.18-.58-1.59-2.386-.88-3.838.08-.161.15-.322.23-.484l-41.64-42.767c-.37.419-.79.613-1.2.807l2.64 216.241s.13.065.21-.097l22.48-93.368 18.55-76.301zm-42.78 170.606l-24.12-47.524-78.354-154.148c-.706.452-1.594.614-2.246.292l-.131-.064L854.125-47.38c.756.773 1.015 1.902.465 3.031l178.29 82.196c.29-.259.45-.581.74-.84zM853.681-47.799l54.439-85.203 20.336-31.79c-.574-.483-.781-1.386-.649-2.321l-100.393-11.526-.235.484c-.315.646-.89 1.162-1.387 1.517l26.27 128.84c.627-.29 1.097-.259 1.619-.001zm81.43-315.437c-.705.453-1.594.615-2.246.293L826.818-181.735c.131.065.313.355.444.419l145.061-108.118c-.286-.742-.154-1.677.239-2.484.157-.323.523-.742.68-1.065l-38.131-70.253zm228.049 167.792l-.16.323c-.07.161-.15.322-.15.322l126.61 122.528c.73-.84 1.9-1.26 2.95-.745.26.13.57.484.83.613l101.39-82.244c-.23-.516-.26-1.128-.15-1.677l-231.32-39.12zm366.91 123.255c-.57.517-1.2.808-2.01.808l-32.69 122.956.26.129c.26.129.65.322.84.612L1550.3 7.24l27.77-23.12c-.29-.74-.29-1.74.18-2.709l.24-.484-48.42-53.116zm212.8 116.034c-.82 1.001-1.91 1.26-2.96.745l-.39-.193-57.03 71.915c.37.58.65 1.322.47 2.032l162.72 17.471c.07-.161.15-.323.23-.484l.16-.323-103.2-91.163zm212.78 307.151c.31-.646.68-1.065 1.18-1.421l-63.24-194.512c-.62.29-1.3.355-1.95.033l-.13-.064-92.78 142.329c.62.709.96 1.676.62 2.709l156.3 50.926zm-160.95-52.019l.24-.484.08-.161-202.67-149.46c-.81 1-2.06 1.582-3.11 1.067l-.52-.258-94.24 107.784c.36.58.52 1.258.46 2.032l299.76 39.48zm-304.53-40.637c.47-.968 1.25-1.582 2.01-1.808l2.06-199.311c-.34.032-.68.065-1.07-.128-.26-.13-.39-.194-.57-.484l-151.71 151.67c.37.58.44 1.418.18 2.29l149.1 47.771zm-152.75-50.575c.78-.613 1.67-.775 2.45-.389.27.129.4.193.58.484l151.7-151.67a3.91 3.91 0 0 1-.36-1.58l-135.58-1.076-120.28-.928c-.08.16-.11.548-.19.71-.15.322-.31.645-.52.742l102.2 153.707zM1231.07 51.61l.32-.646c.07-.16.23-.484.44-.58l-61.65-74.458-91.17-110.237c-.57.517-1.2.808-1.8.711l-22.2 92.11-19.12 77.818.39.193c.91.45 1.38 1.483 1.17 2.58l193.62 12.509z" fill="#fff"/><path opacity=".4" d="M-390.675 810.633l134.383-369.239c-1.935-.938-2.687-3.867-1.986-6.381.802-2.874 3.538-4.808 5.865-4.146 2.326.662 3.66 3.756 2.858 6.63-.2.718-.401 1.436-.892 2.072l93.748 116.256c1.274-1.189 2.637-1.576 4.091-1.162 2.326.662 3.47 3.314 2.959 6.271l366.342 108.955c1.093-2.791 3.338-4.09 5.665-3.428 2.035.579 3.088 2.43 3.069 4.751l438.721-5.366.2-.719c.802-2.873 3.539-4.808 5.865-4.146 2.326.662 3.66 3.756 2.859 6.63l262.047 102.524c.992-2.431 3.238-3.731 5.564-3.068 2.327.662 3.661 3.756 2.859 6.63l-.3 1.077 107.158 81.689c1.08-1.631 3.23-2.571 4.97-2.074 2.04.579 3.57 2.955 3.16 5.552l307.45 53.414c.8-2.873 3.54-4.808 5.86-4.146 2.33.663 3.66 3.756 2.86 6.63l-.2.718 221.08 133.513c1.18-1.99 3.32-2.93 5.07-2.44 2.03.58 3.28 2.88 3.16 5.56l79.08 12.43c.8-2.87 3.54-4.81 5.86-4.15 2.33.67 3.47 3.32 2.96 6.27l206.41 64.59c.99-2.44 3.33-4.09 5.66-3.43 2.33.66 3.66 3.75 2.86 6.63-.3 1.08-.89 2.07-1.77 2.98l166.54 319.99c1.18-.83 2.15-.94 3.31-.61 2.33.67 3.66 3.76 2.86 6.63-.8 2.88-3.54 4.81-5.86 4.15-2.33-.66-3.47-3.32-3.06-5.91l-95.97-26.16c-1.09 2.79-3.44 4.45-5.76 3.78-2.33-.66-3.47-3.31-3.06-5.91l-85.82-19.78c-1.1 2.79-3.44 4.45-5.77 3.79-2.03-.58-3.28-2.87-3.16-5.55l-304.24-41.26c-.81 2.87-3.54 4.81-5.87 4.14-1.74-.49-3.09-2.43-3.07-4.75l-565.999 28.45-.2.72c-.802 2.88-3.538 4.81-5.865 4.15-2.035-.58-3.279-2.87-3.159-5.55l-290.771-37.81c-.801 2.87-3.538 4.8-5.864 4.14-2.327-.66-3.661-3.75-2.859-6.63.2-.72.301-1.08.792-1.71l-240.118-248.66c-1.273 1.19-2.736 1.94-4.481 1.44-1.745-.5-2.798-2.35-3.169-4.39l-360.72 41.92-.3 1.08c-.802 2.87-3.539 4.8-5.865 4.14-2.326-.66-3.47-3.31-3.06-5.91l-356.192-91.33c-1.092 2.79-3.438 4.45-5.765 3.79-2.326-.67-3.66-3.76-2.858-6.63.401-1.44.992-2.44 2.165-3.26l-91.924-228.569c-1.073.47-2.046.581-2.918.332-2.326-.662-3.66-3.756-2.859-6.629.311-2.238 3.047-4.173 5.374-3.511zM2070.92 1459.14l-166.55-319.99-.39.27 64.4 290.13c.68-.19 1.36-.38 2.23-.14 2.33.67 3.47 3.32 3.06 5.92l95.97 26.16c.2-.72.69-1.36 1.28-2.35zM986.882 1393.6c.291.08.582.17.873.25l111.955-187.58 25.33-42.41c-1.25-1.14-1.81-3.62-1.21-5.78l.2-.72-200.674-133.51c-.591.99-1.373 1.55-2.155 2.1l63.445 367.79c.973-.11 1.655-.3 2.236-.14zM-7.091 741.878l91.172 64.731c1.183-1.99 3.228-2.571 4.973-2.074.872.248 1.353.773 1.835 1.298l126.146-130.419-.571-1.326L-6.68 739.281c.09.801-.01 1.161-.21 1.879l-.2.718zm74.34 400.752l-77.768-397.463c-.682.194-1.364.387-2.236.139-1.454-.414-2.607-1.905-2.888-3.148l-75.814 26.492-97.64 33.849c.09.801-.11 1.52-.311 2.238-.2.719-.691 1.354-.892 2.073l256.858 337.17c-.09-.8.3-1.08.692-1.35zm-218.772-578.353c-.882.912-1.955 1.382-3.219 1.41L-193.039 797.5c1.454.414 2.608 1.905 2.888 3.148l173.745-60.258c-.09-.802.11-1.52.31-2.238.201-.719.402-1.437.893-2.073l-101.521-127.774-34.799-44.028zM91.912 811.165l-.4 1.437L435.64 1101.34c.982-1.27 2.837-2.29 4.291-1.88l43.563-165.175 18.265-68.856c-1.935-.938-2.988-2.789-2.578-5.386L230.71 827.806 91.912 811.165zM1556.84 1367.83l-269.42-287.63c-1.27 1.19-2.73 1.93-4.48 1.44-1.16-.33-2.12-1.38-2.7-2.71l-147.47 78.6c.09.8.08 1.96-.22 3.04l-.1.35 424 207.19c.1-.36.1-.36.39-.28zm-633.134-350.86c.862 1.41 1.043 3.01.542 4.81-.1.35-.1.35-.2.71l200.672 133.52c.49-.64.98-1.27 1.76-1.82l-17.94-72.96-53.64-217.282c-.68.194-1.65.305-2.23.139-.59-.165-1.17-.331-1.65-.856l-1.86 2.184-125.454 151.555zm133.634-153.879c-.49.636-.88.912-1.28 1.189l71.69 289.88c.68-.2 1.65-.31 2.23-.14 1.17.33 2.13 1.38 2.7 2.71l147.47-78.6c-.09-.8-.08-1.96.22-3.04.2-.72.3-1.08.69-1.35l-46.46-43.86-177.26-166.789zm540.88 195.489l-.29-.09c-1.74-.49-3.08-2.43-3.16-4.39l-305.47 22.76-.3 1.07c-.2.72-.4 1.44-.8 1.72l254.31 270.92 15.03 15.91c.88-.92 1.95-1.39 2.92-1.5l22.55-184.34 15.21-122.06zm-682.204-39.92c.792-1.72 2.456-3.18 4.11-3.49l18.915-237.715-.582-.165c-1.744-.497-2.898-1.988-2.978-3.95l-427.357 86.147c-.1.359.091.801-.109 1.52l5.715 2.015 402.286 155.638zM86.629 815.476l-.581-.165c-2.326-.662-3.66-3.756-2.859-6.63l.3-1.078-14.389-10.3-76.682-54.789c-.491.636-1.373 1.548-2.055 1.741l77.769 397.465.29.08L85.48 836.474l1.15-20.998zm-285.151-12.946l.3-1.078c.702-2.514 2.757-4.255 4.993-4.394l29.183-176.636 9.114-55.177c-.582-.165-1.354-.773-1.835-1.298l-156.59 168.666-74.03 79.732c.382.884.763 1.768.853 2.569l87.299-5.775 100.713-6.609zm47.881-239.165l92.675 116.726 43.936 55.159c1.273-1.188 2.636-1.576 4.09-1.162 1.454.414 2.608 1.906 3.08 3.591l223.143-65.193c.1-.359.01-1.161.11-1.52L-149.85 561.652c-.2.718-.4 1.437-.791 1.713zm375.356 111.522c-1.182 1.989-3.328 2.929-5.073 2.433-.872-.249-1.353-.773-1.834-1.298L91.661 806.44c.381.884.662 2.128.652 3.288l330.105 39.703 76.191 9.286.201-.719-125.215-83.34-148.88-99.771zm442.883-3.406c-.581-.166-1.163-.332-1.645-.856l-76.734 89.429-82.328 95.98c.481.525.571 1.326.662 2.127l427.356-86.147c.1-.359.01-1.16.11-1.52L672.971 667.97c-.801 2.874-3.047 4.173-5.373 3.511zm390.332 190.615l223.44 210.564c1.37-1.55 2.83-2.29 4.58-1.8.29.08.58.17.58.17l80.66-151.901c-1.25-1.132-1.72-2.817-1.51-4.696l-307.35-53.773c.19.442-.01 1.16-.4 1.436zm541.27 196.364l-37.47 306.5.29.08.29.08 122.67-293.48c-1.65-.85-2.31-2.98-2-5.22l-79.08-12.43c-.8 2.87-2.76 4.25-4.7 4.47zm91.03 12.35l140.15 259.36 41.99 77.87c.78-.56 1.46-.75 2.05-.59l26.94-267.61c-.29-.08-.29-.08-.59-.17-2.32-.66-3.46-3.31-2.95-6.27l-206.41-64.58c-.2.72-.5 1.8-1.18 1.99zm277.36 359.3l-64.39-290.13c-.29-.09-.39.27-.68.19l-15.68 154.12-11.26 113.5.58.16c2.33.66 3.47 3.32 3.06 5.91l85.82 19.78c.5-1.79 1.48-3.06 2.55-3.53zM915.314 1021.17c.101-.36-.09-.8.01-1.16l-165.797-63.876-242.595-93.497c-.892 2.073-2.847 3.455-4.982 3.234l-61.538 234.109c1.454.42 2.507 2.27 2.688 3.87l454.408-79.61 17.806-3.07zm-850.12 123.2l-58.808-77.23-197.759-259.86c-1.273 1.188-2.636 1.575-4.09 1.161l-.291-.082-97.932 240.811c1.645.86 2.207 3.34 1.896 5.58l356.193 91.33c.2-.72.692-1.35.792-1.71zm-360.043-95.53c.291.08.291.08 0 0l98.223-240.73c-1.354-.773-2.116-2.541-2.006-4.06l-188.693 12.577-.301 1.078c-.401 1.437-.992 2.431-2.165 3.261l91.924 228.564c1.173-.83 2.146-.94 3.018-.69zm43.62-608.718c-1.273 1.188-2.636 1.576-4.09 1.162l-134.384 369.238c.291.083.772.608 1.063.691l230.91-248.315c-.572-1.326-1.043-3.011-.542-4.807.2-.719.4-1.437.891-2.073l-93.848-115.896zm476.646 232.25l-.201.719-.2.718 141.54 94.58 132.845 88.614c1.183-1.989 3.328-2.929 5.073-2.432.581.165 1.163.331 1.644.855l159.063-185.409c-.381-.884-.762-1.768-.752-2.928l-439.012 5.283zm717.624 103.121c-.982 1.271-2.155 2.1-3.419 2.128l-18.624 237.799c.291.09.291.09.582.17.581.16 1.163.33 1.644.85l127.216-153.374c-.86-1.409-1.04-3.011-.54-4.807l.3-1.078-107.159-81.688zM1374.2 917.635c-1.18 1.99-3.33 2.93-5.07 2.433l-.58-.166-77.7 145.768-3.16 5.69c1.06.69 1.64 2.02 1.82 3.62l305.47-22.76.3-1.08c.1-.36.1-.36.2-.71L1374.2 917.635zm495.91 494.025c.3-1.08.89-2.08 1.77-2.99l-182.14-337.22c-1.18.83-2.15.94-3.6.52l-.29-.08-29.26 69.99-93.41 223.49c1.35.77 2.31 2.98 2.1 4.86l304.83 41.43zm-314.26-41.4l.2-.72.1-.36-424-207.18c-1.28 2.35-3.43 3.29-5.46 2.71-.29-.08-.59-.16-.88-.25l-137.383 230.36c.962 1.05 1.243 2.29 1.524 3.53l565.899-28.09zm-574.933 27.85c.501-1.8 1.584-3.43 2.948-3.82l-3.062-17.15-60.675-350.72c-.682.19-1.263.03-1.845-.14-.581-.16-.872-.25-1.063-.69l-228.398 330.45c.963 1.05 1.144 2.65 1.034 4.17l291.061 37.9zm-298.511-41.57c1.273-1.19 2.736-1.93 4.481-1.44.582.17.873.25 1.063.69l228.398-330.45c-.772-.61-1.053-1.85-1.144-2.65l-69.57 11.99-402.544 70.33c-.1.36-.01 1.16-.11 1.52-.2.72-.301 1.08-.792 1.71l240.218 248.3zm-248.35-251.77l.301-1.08.401-1.44L90.629 813.513c-.882.912-2.055 1.742-3.027 1.853L69.295 1142.05l.581.16c1.745.5 2.798 2.35 3.17 4.39l361.01-41.83z" fill="#fff"/><g clip-path="url(#clip0)"><g opacity=".5"><path opacity=".11" d="M971.213 951.879c-7.008-2.736-15.698-2.736-22.425 0l-134.27 53.931c-2.243.78-2.243 2.93 0 3.91l135.391 54.52c6.167 2.54 13.735 2.54 19.902 0l135.669-54.52c2.25-.78 2.25-2.93 0-3.91l-134.267-53.931z" fill="url(#paint0_linear)"/><path opacity=".11" d="M971.213 936.05c-7.008-2.735-15.698-2.735-22.425 0l-134.27 53.935c-2.243.781-2.243 2.931 0 3.908l135.391 54.517c6.167 2.54 13.735 2.54 19.902 0l135.669-54.517c2.25-.782 2.25-2.931 0-3.908L971.213 936.05z" fill="url(#paint1_linear)"/><path opacity=".11" d="M971.213 920.417c-7.008-2.735-15.698-2.735-22.425 0l-134.27 53.934c-2.243.782-2.243 2.932 0 3.909l135.391 54.52c6.167 2.54 13.735 2.54 19.902 0l135.669-54.52c2.25-.782 2.25-2.931 0-3.909l-134.267-53.934z" fill="url(#paint2_linear)"/><path opacity=".11" d="M971.213 904.589c-7.008-2.736-15.698-2.736-22.425 0l-134.27 53.934c-2.243.782-2.243 2.931 0 3.908l135.391 54.519c6.167 2.54 13.735 2.54 19.902 0l135.669-54.519c2.25-.781 2.25-2.931 0-3.908l-134.267-53.934z" fill="url(#paint3_linear)"/><path opacity=".2" d="M1105.48 958.523l-134.267-53.934c-7.008-2.736-15.698-2.736-22.425 0l-134.27 53.934c-1.121.391-1.682 1.173-1.682 1.954v47.293c0 .78.561 1.56 1.682 1.95l135.391 54.52c6.167 2.54 13.735 2.54 19.902 0l135.669-54.52c1.12-.39 1.68-1.17 1.68-1.95v-47.293c-.28-.781-.56-1.563-1.68-1.954z" fill="url(#paint4_linear)"/></g><path opacity=".11" d="M973.734 849.873c-8.409-3.322-18.781-3.322-27.19 0l-162.021 65.073c-2.523.977-2.523 3.517 0 4.69l163.142 65.659c7.288 2.931 16.539 2.931 24.107 0l163.418-65.659c2.53-.978 2.53-3.518 0-4.69l-161.456-65.073z" fill="url(#paint5_linear)"/><path opacity=".11" d="M973.734 830.918c-8.409-3.322-18.781-3.322-27.19 0l-162.021 65.073c-2.523.977-2.523 3.517 0 4.69l163.142 65.659c7.288 2.931 16.539 2.931 24.107 0l163.418-65.659c2.53-.978 2.53-3.518 0-4.69l-161.456-65.073z" fill="url(#paint6_linear)"/><path opacity=".11" d="M973.734 811.963c-8.409-3.322-18.781-3.322-27.19 0l-162.021 65.073c-2.523.977-2.523 3.517 0 4.689l163.142 65.659c7.288 2.932 16.539 2.932 24.107 0l163.418-65.659c2.53-.977 2.53-3.517 0-4.689l-161.456-65.073z" fill="url(#paint7_linear)"/><path opacity=".11" d="M973.734 792.812c-8.409-3.322-18.781-3.322-27.19 0l-162.021 65.073c-2.523.977-2.523 3.517 0 4.69l163.142 65.659c7.288 2.931 16.539 2.931 24.107 0l163.418-65.659c2.53-.977 2.53-3.518 0-4.69l-161.456-65.073z" fill="url(#paint8_linear)"/><path opacity=".5" d="M1135.19 857.885l-161.456-65.073c-8.409-3.322-18.781-3.322-27.19 0l-162.021 65.073c-1.402.586-1.962 1.368-1.962 2.345v57.061c0 .977.56 1.758 1.962 2.345l163.142 65.659c7.288 2.931 16.538 2.931 24.107 0l163.418-65.659c1.41-.587 1.97-1.368 1.97-2.345V860.23c0-.977-.56-1.759-1.97-2.345z" fill="url(#paint9_linear)"/><path opacity=".11" d="M976.538 746.304c-10.091-4.104-22.705-4.104-33.077 0l-196.219 78.751c-3.083 1.173-3.083 4.299 0 5.667l197.901 79.729c8.97 3.713 20.183 3.713 29.153 0l198.184-79.533c3.08-1.173 3.08-4.299 0-5.667l-195.942-78.947z" fill="url(#paint10_linear)"/><path opacity=".11" d="M976.538 723.245c-10.091-4.104-22.705-4.104-33.077 0l-196.219 78.751c-3.083 1.173-3.083 4.3 0 5.667l197.901 79.729c8.97 3.713 20.183 3.713 29.153 0l198.184-79.533c3.08-1.173 3.08-4.299 0-5.667l-195.942-78.947z" fill="url(#paint11_linear)"/><path opacity=".11" d="M976.538 700.186c-10.091-4.104-22.705-4.104-33.077 0l-196.219 78.752c-3.083 1.172-3.083 4.299 0 5.667l197.901 79.729c8.97 3.712 20.183 3.712 29.153 0L1172.48 784.8c3.08-1.172 3.08-4.299 0-5.667l-195.942-78.947z" fill="url(#paint12_linear)"/><path opacity=".11" d="M976.538 677.127c-10.091-4.104-22.705-4.104-33.077 0l-196.219 78.752c-3.083 1.172-3.083 4.299 0 5.667l197.901 79.728c8.97 3.713 20.183 3.713 29.153 0l198.184-79.533c3.08-1.172 3.08-4.299 0-5.667l-195.942-78.947z" fill="url(#paint13_linear)"/><path opacity=".5" d="M1172.48 755.878l-195.942-78.752c-10.091-4.103-22.705-4.103-33.076 0l-196.219 78.752c-1.402.586-2.243 1.759-2.243 2.736v69.176c0 1.173.841 2.15 2.243 2.736l197.9 79.729c8.97 3.713 20.183 3.713 29.153 0l198.184-79.533c1.68-.587 2.24-1.759 2.24-2.736v-69.177c.28-1.172-.56-2.149-2.24-2.931z" fill="url(#paint14_linear)"/><path opacity=".11" d="M976.538 677.127c-10.091-4.104-22.705-4.104-33.077 0l-196.219 78.752c-3.083 1.172-3.083 4.299 0 5.667l197.901 79.728c8.97 3.713 20.183 3.713 29.153 0l198.184-79.533c3.08-1.172 3.08-4.299 0-5.667l-195.942-78.947z" fill="url(#paint15_linear)"/><path d="M1172.48 758.419l-198.184 79.534c-8.97 3.713-20.183 3.713-29.153 0l-197.9-79.729c-.841-.391-1.402-.782-1.682-1.173-1.122 1.368-.561 3.518 1.682 4.299l197.9 79.729c8.97 3.713 20.183 3.713 29.153 0l198.184-79.533c2.24-.977 2.8-2.931 1.68-4.299-.28.391-.84.781-1.68 1.172z" fill="url(#paint16_linear)"/></g><defs><linearGradient id="paint0_linear" x1="812.89" y1="1007.92" x2="1107" y2="1007.92" gradientUnits="userSpaceOnUse"><stop stop-color="#781B0E"/><stop offset=".317" stop-color="#8F1B1F"/><stop offset=".475" stop-color="#A31B1F"/><stop offset=".738" stop-color="#D4002F"/><stop offset="1" stop-color="#AA0038"/></linearGradient><linearGradient id="paint1_linear" x1="812.89" y1="992.147" x2="1107" y2="992.147" gradientUnits="userSpaceOnUse"><stop stop-color="#781B0E"/><stop offset=".317" stop-color="#8F1B1F"/><stop offset=".475" stop-color="#A31B1F"/><stop offset=".738" stop-color="#D4002F"/><stop offset="1" stop-color="#AA0038"/></linearGradient><linearGradient id="paint2_linear" x1="812.89" y1="976.375" x2="1107" y2="976.375" gradientUnits="userSpaceOnUse"><stop stop-color="#781B0E"/><stop offset=".317" stop-color="#8F1B1F"/><stop offset=".475" stop-color="#A31B1F"/><stop offset=".738" stop-color="#D4002F"/><stop offset="1" stop-color="#AA0038"/></linearGradient><linearGradient id="paint3_linear" x1="812.89" y1="960.602" x2="1107" y2="960.602" gradientUnits="userSpaceOnUse"><stop stop-color="#781B0E"/><stop offset=".317" stop-color="#8F1B1F"/><stop offset=".475" stop-color="#A31B1F"/><stop offset=".738" stop-color="#D4002F"/><stop offset="1" stop-color="#AA0038"/></linearGradient><linearGradient id="paint4_linear" x1="812.891" y1="984.261" x2="1107" y2="984.261" gradientUnits="userSpaceOnUse"><stop stop-color="#781B0E"/><stop offset=".317" stop-color="#8F1B1F"/><stop offset=".475" stop-color="#A31B1F"/><stop offset=".738" stop-color="#D4002F"/><stop offset="1" stop-color="#AA0038"/></linearGradient><linearGradient id="paint5_linear" x1="782.678" y1="917.409" x2="1137.21" y2="917.409" gradientUnits="userSpaceOnUse"><stop stop-color="#781B0E"/><stop offset=".317" stop-color="#8F1B1F"/><stop offset=".475" stop-color="#A31B1F"/><stop offset=".738" stop-color="#D4002F"/><stop offset="1" stop-color="#AA0038"/></linearGradient><linearGradient id="paint6_linear" x1="782.678" y1="898.397" x2="1137.21" y2="898.397" gradientUnits="userSpaceOnUse"><stop stop-color="#781B0E"/><stop offset=".317" stop-color="#8F1B1F"/><stop offset=".475" stop-color="#A31B1F"/><stop offset=".738" stop-color="#D4002F"/><stop offset="1" stop-color="#AA0038"/></linearGradient><linearGradient id="paint7_linear" x1="782.678" y1="879.384" x2="1137.21" y2="879.384" gradientUnits="userSpaceOnUse"><stop stop-color="#781B0E"/><stop offset=".317" stop-color="#8F1B1F"/><stop offset=".475" stop-color="#A31B1F"/><stop offset=".738" stop-color="#D4002F"/><stop offset="1" stop-color="#AA0038"/></linearGradient><linearGradient id="paint8_linear" x1="782.678" y1="860.371" x2="1137.21" y2="860.371" gradientUnits="userSpaceOnUse"><stop stop-color="#781B0E"/><stop offset=".317" stop-color="#8F1B1F"/><stop offset=".475" stop-color="#A31B1F"/><stop offset=".738" stop-color="#D4002F"/><stop offset="1" stop-color="#AA0038"/></linearGradient><linearGradient id="paint9_linear" x1="782.678" y1="888.89" x2="1137.21" y2="888.89" gradientUnits="userSpaceOnUse"><stop stop-color="#781B0E"/><stop offset=".317" stop-color="#8F1B1F"/><stop offset=".475" stop-color="#A31B1F"/><stop offset=".738" stop-color="#D4002F"/><stop offset="1" stop-color="#AA0038"/></linearGradient><linearGradient id="paint10_linear" x1="745" y1="828.1" x2="1174.89" y2="828.1" gradientUnits="userSpaceOnUse"><stop stop-color="#781B0E"/><stop offset=".317" stop-color="#8F1B1F"/><stop offset=".475" stop-color="#A31B1F"/><stop offset=".738" stop-color="#D4002F"/><stop offset="1" stop-color="#AA0038"/></linearGradient><linearGradient id="paint11_linear" x1="745" y1="805.046" x2="1174.89" y2="805.046" gradientUnits="userSpaceOnUse"><stop stop-color="#781B0E"/><stop offset=".317" stop-color="#8F1B1F"/><stop offset=".475" stop-color="#A31B1F"/><stop offset=".738" stop-color="#D4002F"/><stop offset="1" stop-color="#AA0038"/></linearGradient><linearGradient id="paint12_linear" x1="745" y1="781.993" x2="1174.89" y2="781.993" gradientUnits="userSpaceOnUse"><stop stop-color="#781B0E"/><stop offset=".317" stop-color="#8F1B1F"/><stop offset=".475" stop-color="#A31B1F"/><stop offset=".738" stop-color="#D4002F"/><stop offset="1" stop-color="#AA0038"/></linearGradient><linearGradient id="paint13_linear" x1="745" y1="758.938" x2="1174.89" y2="758.938" gradientUnits="userSpaceOnUse"><stop stop-color="#781B0E"/><stop offset=".317" stop-color="#8F1B1F"/><stop offset=".475" stop-color="#A31B1F"/><stop offset=".738" stop-color="#D4002F"/><stop offset="1" stop-color="#AA0038"/></linearGradient><linearGradient id="paint14_linear" x1="745" y1="793.519" x2="1174.89" y2="793.519" gradientUnits="userSpaceOnUse"><stop stop-color="#781B0E"/><stop offset=".317" stop-color="#8F1B1F"/><stop offset=".475" stop-color="#A31B1F"/><stop offset=".738" stop-color="#D4002F"/><stop offset="1" stop-color="#AA0038"/></linearGradient><linearGradient id="paint15_linear" x1="745" y1="758.938" x2="1174.89" y2="758.938" gradientUnits="userSpaceOnUse"><stop stop-color="#781B0E"/><stop offset=".317" stop-color="#8F1B1F"/><stop offset=".475" stop-color="#A31B1F"/><stop offset=".738" stop-color="#D4002F"/><stop offset="1" stop-color="#AA0038"/></linearGradient><linearGradient id="paint16_linear" x1="745.003" y1="800.49" x2="1174.89" y2="800.49" gradientUnits="userSpaceOnUse"><stop stop-color="#781B0E"/><stop offset=".317" stop-color="#8F1B1F"/><stop offset=".475" stop-color="#A31B1F"/><stop offset=".738" stop-color="#D4002F"/><stop offset="1" stop-color="#AA0038"/></linearGradient><clipPath id="clip0"><path fill="#fff" transform="translate(745 674)" d="M0 0h430v392H0z"/></clipPath></defs></svg>