<svg width="1920" height="1727" viewBox="0 0 1920 1727" fill="none" xmlns="http://www.w3.org/2000/svg">
<path opacity="0.5" d="M896.387 -181.993L790.34 -363.201C791.227 -364.039 791.408 -365.329 790.78 -366.62C790.072 -368.072 788.4 -368.848 787.226 -368.268C786.051 -367.689 785.636 -365.883 786.343 -364.431C786.5 -364.108 786.867 -363.688 787.024 -363.366L749.024 -293.177C748.318 -293.63 747.43 -293.792 746.647 -293.405C745.472 -292.826 745.109 -291.245 745.607 -289.89L563.646 -197.279C562.887 -198.506 561.423 -199.185 560.249 -198.605C559.336 -198.154 558.946 -196.961 559.026 -195.8L328.311 -156.776C328.233 -156.937 328.233 -156.937 328.154 -157.099C327.447 -158.551 325.775 -159.326 324.6 -158.747C323.426 -158.167 323.063 -156.587 323.639 -155.07L195.793 -75.9603C195.034 -77.1867 193.649 -77.704 192.605 -77.1888C191.431 -76.6093 191.016 -74.8033 191.723 -73.3511C191.802 -73.1898 191.88 -73.0284 191.959 -72.8671L143.541 -19.7512C142.678 -20.5261 141.711 -20.8495 140.798 -20.3987C139.754 -19.8835 139.312 -18.4646 139.81 -17.1095L-16.4265 40.5903C-17.1336 39.1382 -18.7275 38.524 -19.9018 39.1036C-21.0761 39.6831 -21.4913 41.4891 -20.7841 42.9412C-20.7055 43.1026 -20.7055 43.1026 -20.627 43.2639L-123.882 134.652C-124.693 133.652 -125.79 133.393 -126.834 133.908C-127.878 134.423 -128.32 135.842 -127.9 137.036L-168.279 151.161C-168.986 149.709 -170.658 148.934 -171.833 149.513C-173.007 150.093 -173.37 151.673 -172.872 153.028L-275.006 206.84C-275.765 205.613 -277.228 204.935 -278.403 205.514C-279.577 206.094 -279.992 207.9 -279.285 209.352C-278.971 209.997 -278.605 210.417 -278.108 210.772L-334.774 394.84C-335.401 394.549 -336.08 394.484 -336.602 394.741C-337.776 395.321 -338.192 397.127 -337.484 398.579C-336.777 400.031 -335.105 400.807 -333.93 400.227C-332.756 399.648 -332.393 398.067 -332.891 396.712L-285.161 373.755C-284.323 375.143 -282.939 375.66 -281.764 375.08C-280.72 374.565 -280.279 373.146 -280.646 371.727L-237.48 353.023C-236.643 354.411 -235.179 355.09 -234.005 354.51C-232.961 353.995 -232.519 352.576 -232.939 351.382L-76.6402 300.456C-75.933 301.908 -74.2606 302.684 -73.0863 302.104C-72.173 301.654 -71.7044 300.622 -71.8629 299.299L227.949 259.593C228.027 259.755 228.106 259.916 228.184 260.077C228.891 261.529 230.564 262.305 231.738 261.725C232.782 261.21 233.224 259.791 232.804 258.598L381.9 210.826C382.607 212.278 384.279 213.054 385.454 212.475C386.628 211.895 387.043 210.089 386.336 208.637C386.179 208.314 386.022 207.991 385.813 207.894L487.961 54.4125C488.745 55.026 489.633 55.188 490.416 54.8016C491.33 54.3508 491.798 53.319 491.588 52.2221L685.258 39.4872C685.336 39.6485 685.415 39.8098 685.572 40.1325C686.279 41.5846 687.952 42.3602 689.126 41.7806C690.3 41.2011 690.742 39.7821 690.165 38.2656L868.459 -43.9295C869.297 -42.5418 870.682 -42.0244 871.856 -42.604C873.03 -43.1836 873.446 -44.9896 872.739 -46.4417C872.424 -47.0871 871.849 -47.6038 871.352 -47.959L897.622 -176.799C898.171 -176.669 898.719 -176.54 899.241 -176.797C900.415 -177.377 900.831 -179.183 900.124 -180.635C899.155 -181.958 897.692 -182.637 896.387 -181.993ZM-333.859 395.389L-277.193 211.321C-277.193 211.321 -277.063 211.257 -276.984 211.418L-282.921 370.048C-283.26 370.015 -283.73 370.047 -284.121 370.24C-285.296 370.82 -285.659 372.4 -285.161 373.755L-332.891 396.712C-333.205 396.067 -333.571 395.647 -333.859 395.389ZM195.016 -71.5742C195.146 -71.6386 195.146 -71.6386 195.277 -71.703C196.06 -72.0894 196.528 -73.1212 196.527 -74.1211L396.644 -70.6258L429.261 -70.1138C429.34 -69.9525 429.367 -69.5654 429.445 -69.404L420.131 -63.606L230.16 52.7704C229.558 51.8667 228.644 51.3175 227.703 51.3812L225.971 44.8318L195.016 -71.5742ZM688.389 -181.398L646.746 -138.631C645.883 -139.406 644.786 -139.665 643.873 -139.214C643.481 -139.021 643.299 -138.731 642.986 -138.376L564.224 -194.763C564.276 -194.989 564.328 -195.215 564.301 -195.602L687.682 -182.851C687.709 -182.464 687.866 -182.141 688.023 -181.818C688.232 -181.721 688.311 -181.56 688.389 -181.398ZM563.233 -193.474C563.625 -193.667 563.807 -193.957 564.12 -194.311L642.882 -137.925C642.648 -137.409 642.623 -136.796 642.807 -136.086L434.039 -71.2709C433.96 -71.4322 433.881 -71.5936 433.881 -71.5936L560.491 -194.121C561.014 -193.379 562.19 -192.958 563.233 -193.474ZM748.77 -288.049L754.931 -271.077L791.243 -169.923C790.46 -169.537 790.043 -168.731 789.966 -167.892L692.879 -182.814C692.852 -183.201 692.695 -183.524 692.46 -184.008C692.302 -184.33 691.936 -184.75 691.649 -185.008L746.915 -288.534C747.62 -288.082 748.3 -288.017 748.77 -288.049ZM794.824 -167.888C794.745 -168.049 794.666 -168.211 794.588 -168.372C793.959 -169.663 792.835 -170.309 791.634 -170.117L787.807 -180.635L749.161 -288.242C749.552 -288.435 749.735 -288.725 749.917 -289.015L894.979 -180.897C894.875 -180.446 894.771 -179.994 894.876 -179.446L873.127 -176.917L794.824 -167.888ZM229.093 256.627C228.963 256.691 228.832 256.756 228.571 256.884L134.328 149.1C134.876 148.23 135.005 147.166 134.455 146.036C134.376 145.875 134.297 145.714 134.297 145.714L226.823 56.2189C227.189 56.6385 227.685 56.9938 228.234 57.1233L230.294 256.434C229.694 256.53 229.354 256.498 229.093 256.627ZM130.097 148.387L-72.4915 298.008C-72.5701 297.847 -72.5701 297.847 -72.6487 297.686L41.113 120.86C41.8973 121.474 42.7854 121.636 43.5683 121.25C44.2207 120.928 44.5855 120.347 44.7412 119.67L129.781 146.742C129.677 147.193 129.783 147.742 130.097 148.387ZM-124.032 139.329C-123.119 138.879 -122.65 137.847 -122.73 136.686L39.9877 119.214C40.0663 119.376 40.1449 119.537 40.2235 119.698C40.3806 120.021 40.5378 120.344 40.8254 120.602L11.4601 166.316L-73.1454 297.33C-73.642 296.975 -74.2692 296.684 -74.8697 296.781L-94.1514 235.252L-124.163 139.394L-124.032 139.329ZM141.929 -14.753L132.18 144.357C131.841 144.324 131.371 144.356 130.979 144.549C130.327 144.871 129.962 145.452 129.806 146.129L44.7664 119.057C44.7916 118.444 44.6864 117.896 44.4507 117.412C44.2936 117.089 44.215 116.928 43.9274 116.67L141.014 -15.3021C141.302 -15.0438 141.511 -14.9469 141.929 -14.753ZM226.169 55.5409C226.247 55.7023 226.326 55.8636 226.326 55.8636L133.801 145.358C133.435 144.939 133.016 144.745 132.598 144.551L142.347 -14.5591C142.686 -14.5265 143.156 -14.5584 143.548 -14.7516C143.809 -14.8804 144.2 -15.0735 144.383 -15.3637L225.982 52.8313C225.696 53.5729 225.697 54.5728 226.169 55.5409ZM488.084 49.3484L433.208 -67.659C434.043 -68.2711 434.433 -69.4642 434.144 -70.7224L642.912 -135.538C642.991 -135.376 643.148 -135.054 643.357 -134.957L490.409 49.8019C489.834 49.2854 488.946 49.1233 488.084 49.3484ZM688.57 36.6515C688.361 36.5546 688.152 36.4576 687.943 36.3606L690.585 -179.881C690.925 -179.848 691.395 -179.88 691.656 -180.009C692.439 -180.395 692.855 -181.201 692.932 -182.04L790.02 -167.118C790.046 -166.731 790.204 -166.408 790.439 -165.924C790.675 -165.44 790.963 -165.182 791.25 -164.924L740.34 -64.7485L688.57 36.6515ZM746.627 -288.793L691.361 -185.267C690.655 -185.719 689.767 -185.881 689.115 -185.559C688.332 -185.172 687.915 -184.366 687.917 -183.367L575.061 -195.108L564.457 -196.279C564.509 -196.505 564.352 -196.827 564.273 -196.989L746.234 -289.599C746.261 -289.212 746.339 -289.051 746.627 -288.793ZM327.272 -153.261C327.533 -153.39 327.845 -153.744 328.106 -153.873L429.494 -71.6296C429.312 -71.3395 429.208 -70.888 429.313 -70.3396L196.579 -74.3469C196.5 -74.5082 196.474 -74.8953 196.395 -75.0567L324.241 -154.167C324.843 -153.263 326.228 -152.746 327.272 -153.261ZM140.648 -15.7217L43.5612 116.25C42.7769 115.636 41.8101 115.313 40.8968 115.764C40.7663 115.828 40.6359 115.893 40.5054 115.957L-16.526 44.0416C-16.0308 43.3969 -15.9017 42.3326 -16.1641 41.4615L140.073 -16.2383C140.282 -16.1414 140.36 -15.98 140.648 -15.7217ZM-124.763 139.49L-75.6007 296.941L-75.7311 297.006L-75.8616 297.07L-112.292 241.204L-168.639 154.741C-168.013 154.032 -167.754 152.904 -168.095 151.871L-127.717 137.746C-126.958 138.972 -125.703 139.554 -124.763 139.49ZM-171.329 154.868L-231.986 341.706L-234.482 349.542C-234.9 349.348 -235.24 349.316 -235.579 349.283L-250.276 298.5L-275.444 211.258C-275.313 211.194 -275.313 211.194 -275.183 211.129C-274.008 210.55 -273.645 208.97 -274.143 207.614L-172.009 153.803C-171.983 154.19 -171.825 154.513 -171.329 154.868ZM-282.451 370.016L-276.514 211.386C-276.384 211.322 -276.174 211.419 -276.174 211.419L-236.389 349.283C-236.519 349.347 -236.519 349.347 -236.65 349.411C-237.694 349.927 -238.135 351.346 -237.768 352.765L-280.934 371.469C-281.118 370.759 -281.693 370.242 -282.451 370.016ZM230.789 54.0612C230.71 53.8998 230.684 53.5127 230.605 53.3513L429.969 -68.6617C430.649 -67.5967 431.903 -67.015 432.895 -67.3044L444.84 -41.7796L487.693 49.5416C486.988 50.0893 486.572 50.8954 486.704 51.8309L306.702 53.4171L230.789 54.0612ZM646.283 -133.599C646.414 -133.664 646.544 -133.728 646.675 -133.793C647.849 -134.372 648.264 -136.178 647.557 -137.63C647.479 -137.792 647.4 -137.953 647.321 -138.114L688.965 -180.882C689.331 -180.462 689.749 -180.268 690.167 -180.074L687.525 36.1668C687.525 36.1668 687.394 36.2312 687.316 36.0698L664.829 -57.2982L646.283 -133.599ZM689.067 37.0067L713.181 -10.5176L791.538 -164.665C792.244 -164.213 793.132 -164.051 793.784 -164.373C793.784 -164.373 793.784 -164.373 793.915 -164.438L868.559 -47.3808C867.803 -46.6073 867.543 -45.4787 868.093 -44.3492L689.799 37.8461C689.512 37.5878 689.354 37.265 689.067 37.0067ZM869.002 -47.7998L814.563 -133.002L794.227 -164.792C794.801 -165.275 795.009 -166.178 794.877 -167.114L895.269 -178.639C895.348 -178.478 895.426 -178.317 895.505 -178.155C895.819 -177.51 896.394 -176.993 896.891 -176.638L870.621 -47.7984C869.994 -48.0892 869.524 -48.0574 869.002 -47.7998ZM787.572 -363.236C788.278 -362.784 789.166 -362.622 789.819 -362.944L895.865 -181.735C895.735 -181.671 895.553 -181.381 895.422 -181.316L750.361 -289.434C750.647 -290.176 750.515 -291.112 750.122 -291.918C749.965 -292.241 749.599 -292.661 749.442 -292.983L787.572 -363.236ZM559.522 -195.444C559.601 -195.283 559.601 -195.283 559.68 -195.122C559.758 -194.96 559.837 -194.799 559.837 -194.799L433.228 -72.2715C432.495 -73.1108 431.32 -73.5311 430.276 -73.0159C430.015 -72.8871 429.702 -72.5326 429.441 -72.4038L328.053 -154.647C328.287 -155.163 328.313 -155.776 328.207 -156.324L559.522 -195.444ZM192.613 -72.1892C193.188 -71.6726 193.815 -71.3817 194.624 -71.381L227.312 51.5744C227.182 51.6388 227.182 51.6388 227.051 51.7032C226.79 51.832 226.399 52.0252 226.216 52.3154L172.383 7.23967L144.617 -15.8796C144.903 -16.6212 144.902 -17.6212 144.43 -18.5892C144.352 -18.7506 144.273 -18.9119 144.194 -19.0733L192.613 -72.1892ZM-20.1823 43.8449C-19.3713 44.8456 -18.2741 45.1046 -17.2303 44.5894C-17.0998 44.525 -16.9693 44.4605 -16.8388 44.3961L40.1925 116.312C39.8278 116.892 39.5416 117.634 39.7254 118.343L-122.993 135.814C-123.071 135.653 -123.15 135.492 -123.228 135.33C-123.307 135.169 -123.307 135.169 -123.386 135.008L-20.1823 43.8449ZM-232.965 350.995C-233.28 350.35 -233.646 349.93 -234.142 349.575L-170.911 155.062C-170.284 155.353 -169.604 155.418 -168.952 155.096L-168.822 155.032L-76.044 297.36C-76.6697 298.069 -77.0078 299.037 -76.6668 300.069L-232.965 350.995ZM-72.0201 298.977C-72.0987 298.815 -72.1772 298.654 -72.2558 298.492C-72.2558 298.492 -72.2558 298.492 -72.3344 298.331L130.333 148.871C131.144 149.872 132.398 150.454 133.442 149.938C133.572 149.874 133.703 149.809 133.964 149.681L228.207 257.465C227.842 258.045 227.686 258.722 227.739 259.496L-72.0201 298.977ZM232.517 258.339C232.045 257.371 231.261 256.758 230.503 256.531L228.443 57.2202C228.783 57.2527 229.122 57.2853 229.514 57.0921C229.775 56.9633 229.905 56.8989 230.087 56.6087L381.792 208.278C381.427 208.858 381.35 209.697 381.612 210.568L232.517 258.339ZM385.264 207.765C384.48 207.151 383.592 206.989 382.809 207.376C382.548 207.505 382.417 207.569 382.235 207.859L230.531 56.1898C230.765 55.6739 230.869 55.2224 230.894 54.6096L366.477 53.5333L486.757 52.605C486.836 52.7664 486.862 53.1535 486.941 53.3149C487.098 53.6375 487.255 53.9602 487.464 54.0572L385.264 207.765ZM491.613 51.6093C491.534 51.4479 491.456 51.2866 491.299 50.9639C491.22 50.8026 491.063 50.4799 490.854 50.383L552.507 -24.0749L643.671 -134.311C644.246 -133.795 644.873 -133.504 645.474 -133.6L667.672 -41.4903L686.794 36.3274C686.664 36.3918 686.533 36.4562 686.402 36.5206C685.489 36.9714 685.02 38.0032 685.231 39.1001L491.613 51.6093Z" fill="white"/>
<path opacity="0.4" d="M2056.36 796.633L1921.98 427.394C1923.91 426.456 1924.66 423.527 1923.96 421.013C1923.16 418.139 1920.42 416.205 1918.1 416.867C1915.77 417.529 1914.44 420.623 1915.24 423.497C1915.44 424.215 1915.64 424.933 1916.13 425.569L1822.38 541.825C1821.11 540.636 1819.75 540.249 1818.29 540.663C1815.97 541.325 1814.82 543.977 1815.33 546.934L1448.99 655.889C1447.9 653.098 1445.65 651.799 1443.33 652.461C1441.29 653.04 1440.24 654.891 1440.26 657.212L1001.54 651.846C1001.44 651.486 1001.44 651.486 1001.34 651.127C1000.53 648.254 997.797 646.319 995.471 646.981C993.145 647.643 991.81 650.737 992.612 653.611L730.564 756.135C729.572 753.704 727.327 752.404 725 753.067C722.674 753.729 721.34 756.823 722.141 759.697C722.242 760.056 722.342 760.415 722.442 760.774L615.286 842.463C614.203 840.832 612.057 839.892 610.313 840.389C608.277 840.968 606.743 843.344 607.153 845.941L299.706 899.355C298.904 896.482 296.168 894.547 293.841 895.209C291.515 895.872 290.181 898.965 290.982 901.839C291.083 902.198 291.083 902.198 291.183 902.557L70.1071 1036.07C68.9244 1034.08 66.7789 1033.14 65.0343 1033.63C62.9988 1034.21 61.7551 1036.51 61.8749 1039.19L-17.2051 1051.62C-18.0067 1048.75 -20.7435 1046.81 -23.0697 1047.47C-25.396 1048.14 -26.5394 1050.79 -26.0287 1053.74L-232.433 1118.33C-233.425 1115.89 -235.771 1114.24 -238.097 1114.9C-240.423 1115.56 -241.757 1118.65 -240.956 1121.53C-240.655 1122.61 -240.064 1123.6 -239.182 1124.51L-405.729 1444.5C-406.902 1443.67 -407.875 1443.56 -409.038 1443.89C-411.364 1444.56 -412.698 1447.65 -411.897 1450.52C-411.095 1453.4 -408.358 1455.33 -406.032 1454.67C-403.706 1454.01 -402.562 1451.35 -402.973 1448.76L-307.006 1422.6C-305.914 1425.39 -303.568 1427.05 -301.242 1426.38C-298.915 1425.72 -297.772 1423.07 -298.182 1420.47L-212.363 1400.69C-211.271 1403.48 -208.925 1405.14 -206.599 1404.48C-204.563 1403.9 -203.32 1401.61 -203.44 1398.93L100.807 1357.67C101.609 1360.54 104.346 1362.48 106.672 1361.81C108.417 1361.32 109.761 1359.38 109.741 1357.06L675.742 1385.51C675.842 1385.87 675.943 1386.23 675.943 1386.23C676.744 1389.11 679.481 1391.04 681.807 1390.38C683.843 1389.8 685.086 1387.51 684.966 1384.83L975.737 1347.02C976.539 1349.89 979.276 1351.82 981.602 1351.16C983.928 1350.5 985.262 1347.41 984.461 1344.53C984.26 1343.81 984.16 1343.45 983.669 1342.82L1223.79 1094.16C1225.06 1095.35 1226.52 1096.1 1228.27 1095.6C1230.01 1095.1 1231.07 1093.25 1231.44 1091.21L1592.16 1133.13C1592.26 1133.49 1592.36 1133.85 1592.46 1134.21C1593.26 1137.08 1596 1139.01 1598.32 1138.35C1600.65 1137.69 1601.79 1135.04 1601.38 1132.44L1957.57 1041.11C1958.67 1043.9 1961.01 1045.56 1963.34 1044.9C1965.66 1044.23 1967 1041.14 1966.2 1038.27C1965.8 1036.83 1965.2 1035.83 1964.03 1035.01L2055.96 806.441C2057.03 806.911 2058 807.022 2058.87 806.773C2061.2 806.111 2062.53 803.017 2061.73 800.144C2061.42 797.906 2058.69 795.971 2056.36 796.633ZM-405.238 1445.14L-238.691 1125.15C-238.691 1125.15 -238.691 1125.15 -238.3 1125.42L-302.693 1415.55C-303.375 1415.36 -304.057 1415.17 -304.929 1415.41C-307.255 1416.08 -308.399 1418.73 -307.988 1421.33L-403.955 1447.49C-404.156 1446.77 -404.647 1446.13 -405.238 1445.14ZM678.801 1379.6C678.51 1379.68 678.22 1379.77 677.929 1379.85L565.97 1192.27L540.642 1149.86C541.895 1148.72 542.457 1146.24 541.856 1144.08C541.756 1143.72 541.756 1143.72 541.655 1143.36L742.328 1009.85C742.919 1010.84 743.701 1011.4 744.483 1011.95L681.037 1379.74C680.064 1379.63 679.383 1379.44 678.801 1379.6ZM1672.77 727.878L1581.6 792.609C1580.42 790.619 1578.37 790.038 1576.63 790.535C1575.76 790.783 1575.28 791.308 1574.8 791.833L1448.65 661.414C1448.84 660.972 1449.03 660.53 1449.22 660.088L1672.36 725.281C1672.27 726.082 1672.37 726.442 1672.57 727.16C1672.57 727.16 1672.67 727.519 1672.77 727.878ZM1598.43 1128.63L1676.2 731.167C1676.88 731.361 1677.57 731.554 1678.44 731.306C1679.89 730.892 1681.05 729.401 1681.33 728.158L1757.14 754.65L1854.78 788.499C1854.69 789.3 1854.89 790.019 1855.09 790.737C1855.29 791.456 1855.78 792.091 1855.98 792.81L1599.13 1129.98C1599.22 1129.18 1598.82 1128.9 1598.43 1128.63ZM1817.21 550.277C1818.09 551.189 1819.16 551.659 1820.43 551.687L1858.72 783.5C1857.27 783.914 1856.12 785.405 1855.83 786.648L1682.09 726.39C1682.18 725.588 1681.98 724.87 1681.78 724.152C1681.58 723.433 1681.38 722.715 1680.89 722.079L1782.41 594.305L1817.21 550.277ZM1573.77 797.165C1573.97 797.883 1574.07 798.242 1574.17 798.602L1230.04 1087.34C1229.06 1086.07 1227.21 1085.05 1225.75 1085.46L1182.19 920.285L1163.92 851.429C1165.86 850.491 1166.91 848.64 1166.5 846.043L1434.97 813.806L1573.77 797.165ZM108.839 1353.83L378.261 1066.2C379.534 1067.39 380.998 1068.13 382.742 1067.64C383.905 1067.31 384.868 1066.26 385.44 1064.93L532.913 1143.53C532.822 1144.33 532.832 1145.49 533.132 1146.57C533.132 1146.57 533.132 1146.57 533.233 1146.92L109.23 1354.11C109.13 1353.75 109.13 1353.75 108.839 1353.83ZM741.978 1002.97C741.115 1004.38 740.935 1005.98 741.436 1007.78C741.536 1008.13 741.536 1008.13 741.636 1008.49L540.964 1142.01C540.473 1141.37 539.982 1140.74 539.2 1140.19L557.14 1067.23L610.782 849.948C611.464 850.142 612.436 850.253 613.018 850.087C613.6 849.922 614.181 849.756 614.663 849.231L616.527 851.415L741.978 1002.97ZM608.346 849.091C608.837 849.727 609.228 850.003 609.619 850.28L537.936 1140.16C537.255 1139.96 536.282 1139.85 535.7 1140.02C534.537 1140.35 533.575 1141.4 533.003 1142.73L385.53 1064.13C385.621 1063.33 385.611 1062.17 385.31 1061.09C385.11 1060.37 385.01 1060.01 384.619 1059.74L431.079 1015.88L608.346 849.091ZM67.4586 1044.58L67.7493 1044.49C69.494 1044 70.838 1042.06 70.9186 1040.1L376.387 1062.86C376.487 1063.22 376.587 1063.57 376.687 1063.93C376.888 1064.65 377.088 1065.37 377.479 1065.65L123.17 1336.57L108.148 1352.48C107.265 1351.56 106.193 1351.09 105.22 1350.98L82.6757 1166.64L67.4586 1044.58ZM749.668 1004.66C748.876 1002.94 747.212 1001.48 745.558 1001.17L726.643 763.455C726.934 763.373 726.934 763.373 727.224 763.29C728.969 762.793 730.122 761.302 730.203 759.34L1157.56 845.487C1157.66 845.846 1157.47 846.288 1157.67 847.007L1151.95 849.022L749.668 1004.66ZM1579.05 801.476C1579.35 801.394 1579.64 801.311 1579.64 801.311C1581.96 800.649 1583.3 797.555 1582.49 794.681C1582.39 794.322 1582.29 793.963 1582.19 793.603L1596.58 783.303L1673.27 728.514C1673.76 729.15 1674.64 730.062 1675.32 730.255L1597.55 1127.72L1597.26 1127.8L1580.2 822.474L1579.05 801.476ZM1864.21 788.53C1864.11 788.171 1864.01 787.812 1863.91 787.452C1863.2 784.938 1861.15 783.197 1858.91 783.058L1829.73 606.422L1820.62 551.245C1821.2 551.08 1821.97 550.472 1822.45 549.947L1979.04 718.613L2053.07 798.345C2052.69 799.229 2052.31 800.113 2052.22 800.914L1964.92 795.139L1864.21 788.53ZM1816.32 549.365L1723.65 666.091L1679.71 721.25C1678.44 720.062 1677.08 719.674 1675.62 720.088C1674.17 720.502 1673.02 721.994 1672.54 723.679L1449.4 658.486C1449.3 658.127 1449.39 657.325 1449.29 656.966L1815.53 547.652C1815.73 548.37 1815.93 549.089 1816.32 549.365ZM1440.97 660.887C1442.15 662.876 1444.3 663.816 1446.04 663.32C1446.91 663.071 1447.39 662.547 1447.88 662.022L1574.02 792.44C1573.64 793.324 1573.36 794.568 1573.37 795.728L1243.27 835.431L1167.07 844.717C1166.97 844.358 1166.87 843.998 1166.87 843.998L1292.09 760.658L1440.97 660.887ZM998.085 657.481C998.667 657.315 999.249 657.149 999.73 656.625L1076.46 746.054L1158.79 842.034C1158.31 842.559 1158.22 843.36 1158.13 844.161L730.775 758.014C730.674 757.655 730.765 756.854 730.665 756.494L992.712 653.97C993.514 656.844 995.759 658.143 998.085 657.481ZM607.755 848.096L384.318 1058.66C382.945 1057.11 381.481 1056.37 379.736 1056.86C379.446 1056.94 379.155 1057.03 379.155 1057.03L298.492 905.129C299.745 903.997 300.217 902.312 300.006 900.433L607.354 846.66C607.163 847.102 607.364 847.82 607.755 848.096ZM66.4861 1044.46L103.957 1350.96L103.666 1351.04C103.666 1351.04 103.666 1351.04 103.375 1351.12L-19.2917 1057.64C-17.6472 1056.79 -16.9851 1054.66 -17.2955 1052.42L61.7845 1039.99C62.5861 1042.86 64.541 1044.24 66.4861 1044.46ZM-24.5454 1056.81L-164.692 1316.17L-206.687 1394.04C-207.469 1393.48 -208.151 1393.29 -208.732 1393.45L-235.673 1125.84C-235.382 1125.76 -235.382 1125.76 -235.091 1125.67C-232.765 1125.01 -231.622 1122.36 -232.132 1119.4L-25.7281 1054.82C-25.5277 1055.54 -25.2271 1056.62 -24.5454 1056.81ZM-301.911 1416.11L-237.518 1125.98C-237.227 1125.89 -237.127 1126.25 -236.836 1126.17L-221.154 1280.29L-209.895 1393.79C-210.186 1393.87 -210.186 1393.87 -210.477 1393.95C-212.803 1394.61 -213.947 1397.27 -213.536 1399.86L-299.355 1419.64C-299.856 1417.85 -300.839 1416.58 -301.911 1416.11ZM750.369 1007.17C750.269 1006.81 750.46 1006.37 750.359 1006.01L916.157 942.134L1158.75 848.637C1159.64 850.71 1161.6 852.092 1163.73 851.871L1225.27 1085.98C1223.82 1086.4 1222.76 1088.25 1222.58 1089.85L768.175 1010.24L750.369 1007.17ZM1600.49 1130.37L1659.3 1053.14L1857.06 793.28C1858.33 794.468 1859.69 794.855 1861.15 794.441C1861.15 794.441 1861.15 794.441 1861.44 794.359L1959.37 1035.17C1957.72 1036.03 1957.16 1038.51 1957.47 1040.75L1601.28 1132.08C1601.08 1131.36 1600.59 1130.73 1600.49 1130.37ZM1960.53 1034.84C1960.24 1034.92 1960.24 1034.92 1960.53 1034.84L1862.31 794.11C1863.66 793.337 1864.43 791.569 1864.32 790.05L2053.01 802.627C2053.11 802.986 2053.21 803.346 2053.31 803.705C2053.71 805.142 2054.3 806.136 2055.47 806.966L1963.55 1035.53C1962.38 1034.7 1961.4 1034.59 1960.53 1034.84ZM1916.91 426.122C1918.19 427.31 1919.55 427.698 1921 427.284L2055.39 796.522C2055.1 796.605 2054.61 797.13 2054.32 797.213L1823.41 548.898C1823.99 547.572 1824.46 545.887 1823.96 544.091C1823.76 543.372 1823.56 542.654 1823.06 542.018L1916.91 426.122ZM1440.27 658.372C1440.37 658.732 1440.37 658.732 1440.47 659.091C1440.57 659.45 1440.67 659.809 1440.67 659.809L1299.13 754.389L1166.28 843.003C1165.1 841.014 1162.95 840.074 1161.21 840.571C1160.63 840.736 1160.05 840.902 1159.57 841.426L1000.5 656.017C1000.88 655.133 1001.26 654.249 1001.25 653.089L1440.27 658.372ZM722.642 761.493C723.625 762.764 724.798 763.593 726.061 763.621L744.685 1001.42C744.395 1001.51 744.394 1001.51 744.104 1001.59C743.522 1001.75 742.941 1001.92 742.459 1002.44L615.244 849.066C616.106 847.657 616.287 846.055 615.786 844.259C615.686 843.899 615.586 843.54 615.486 843.181L722.642 761.493ZM291.483 903.635C292.666 905.625 294.812 906.565 296.556 906.068C296.847 905.985 297.138 905.902 297.138 905.902L374.835 1051.67L377.992 1057.36C376.929 1058.05 376.357 1059.38 376.176 1060.98L70.7083 1038.22C70.6081 1037.86 70.5079 1037.5 70.4077 1037.14C70.3075 1036.78 70.3075 1036.78 70.2073 1036.43L291.483 903.635ZM-204.422 1397.66C-204.722 1396.58 -205.314 1395.58 -206.196 1394.67L-24.0542 1057.45C-22.8813 1058.28 -21.9087 1058.39 -20.4548 1057.97C-20.4548 1057.97 -20.4548 1057.97 -20.164 1057.89L9.08967 1127.88L102.503 1351.37C101.149 1352.14 100.196 1354.35 100.407 1356.23L-204.422 1397.66ZM109.831 1356.26C109.731 1355.9 109.631 1355.54 109.631 1355.54C109.631 1355.54 109.631 1355.54 109.531 1355.18L533.533 1148C534.816 1150.35 536.962 1151.29 538.997 1150.71C539.288 1150.63 539.579 1150.55 539.869 1150.46L677.257 1380.82C676.294 1381.87 676.013 1383.11 675.732 1384.35L109.831 1356.26ZM684.766 1384.11C684.265 1382.31 683.183 1380.68 681.819 1380.29L684.88 1363.14L745.556 1012.42C746.237 1012.61 746.819 1012.45 747.4 1012.28C747.982 1012.12 748.273 1012.03 748.463 1011.59L976.861 1342.04C975.898 1343.09 975.718 1344.69 975.828 1346.21L684.766 1384.11ZM983.278 1342.54C982.005 1341.35 980.541 1340.61 978.796 1341.1C978.215 1341.27 977.924 1341.35 977.733 1341.79L749.336 1011.34C750.108 1010.73 750.389 1009.49 750.479 1008.69L820.05 1020.68L1222.59 1091.01C1222.69 1091.37 1222.6 1092.17 1222.7 1092.53C1222.9 1093.25 1223 1093.61 1223.5 1094.24L983.278 1342.54ZM1231.63 1090.77C1231.53 1090.41 1231.43 1090.05 1231.33 1089.69C1231.23 1089.33 1231.13 1088.97 1230.93 1088.25L1575.05 799.513C1575.94 800.425 1577.11 801.255 1578.08 801.366L1596.39 1128.05C1596.1 1128.13 1595.81 1128.21 1595.81 1128.21C1594.06 1128.71 1593.01 1130.56 1592.64 1132.6L1231.63 1090.77Z" fill="white"/>
<g clip-path="url(#clip0)">
<g opacity="0.5">
<g opacity="0.11">
<path opacity="0.11" d="M971.213 960.612C964.205 958.086 955.515 958.086 948.788 960.612L814.518 1010.42C812.275 1011.14 812.275 1013.13 814.518 1014.03L949.909 1064.38C956.076 1066.72 963.644 1066.72 969.811 1064.38L1105.48 1014.03C1107.73 1013.31 1107.73 1011.32 1105.48 1010.42L971.213 960.612Z" fill="url(#paint0_linear)"/>
</g>
<g opacity="0.11">
<path opacity="0.11" d="M971.213 945.995C964.205 943.469 955.515 943.469 948.788 945.995L814.518 995.802C812.275 996.524 812.275 998.509 814.518 999.411L949.909 1049.76C956.076 1052.1 963.644 1052.1 969.811 1049.76L1105.48 999.411C1107.73 998.689 1107.73 996.704 1105.48 995.802L971.213 945.995Z" fill="url(#paint1_linear)"/>
</g>
<g opacity="0.11">
<path opacity="0.11" d="M971.213 931.558C964.205 929.032 955.515 929.032 948.788 931.558L814.518 981.365C812.275 982.087 812.275 984.072 814.518 984.974L949.909 1035.32C956.076 1037.67 963.644 1037.67 969.811 1035.32L1105.48 984.974C1107.73 984.252 1107.73 982.267 1105.48 981.365L971.213 931.558Z" fill="url(#paint2_linear)"/>
</g>
<g opacity="0.11">
<path opacity="0.11" d="M971.213 916.941C964.205 914.415 955.515 914.415 948.788 916.941L814.518 966.748C812.275 967.47 812.275 969.455 814.518 970.357L949.909 1020.71C956.076 1023.05 963.644 1023.05 969.811 1020.71L1105.48 970.357C1107.73 969.635 1107.73 967.65 1105.48 966.748L971.213 916.941Z" fill="url(#paint3_linear)"/>
</g>
<path opacity="0.2" d="M1105.48 966.748L971.213 916.941C964.205 914.415 955.515 914.415 948.788 916.941L814.518 966.748C813.397 967.109 812.836 967.831 812.836 968.553V1012.22C812.836 1012.95 813.397 1013.67 814.518 1014.03L949.909 1064.38C956.076 1066.72 963.644 1066.72 969.811 1064.38L1105.48 1014.03C1106.6 1013.67 1107.16 1012.95 1107.16 1012.22V968.553C1106.88 967.831 1106.6 967.109 1105.48 966.748Z" fill="url(#paint4_linear)"/>
</g>
<g opacity="0.11">
<path opacity="0.11" d="M973.734 866.413C965.325 863.345 954.953 863.345 946.544 866.413L784.523 926.506C782 927.408 782 929.754 784.523 930.837L947.665 991.471C954.953 994.177 964.204 994.177 971.772 991.471L1135.19 930.837C1137.72 929.934 1137.72 927.588 1135.19 926.506L973.734 866.413Z" fill="url(#paint5_linear)"/>
</g>
<g opacity="0.11">
<path opacity="0.11" d="M973.734 848.908C965.325 845.841 954.953 845.841 946.544 848.908L784.523 909.001C782 909.903 782 912.249 784.523 913.332L947.665 973.966C954.953 976.673 964.204 976.673 971.772 973.966L1135.19 913.332C1137.72 912.43 1137.72 910.084 1135.19 909.001L973.734 848.908Z" fill="url(#paint6_linear)"/>
</g>
<g opacity="0.11">
<path opacity="0.11" d="M973.734 831.404C965.325 828.336 954.953 828.336 946.544 831.404L784.523 891.497C782 892.399 782 894.745 784.523 895.828L947.665 956.462C954.953 959.169 964.204 959.169 971.772 956.462L1135.19 895.828C1137.72 894.925 1137.72 892.579 1135.19 891.497L973.734 831.404Z" fill="url(#paint7_linear)"/>
</g>
<g opacity="0.11">
<path opacity="0.11" d="M973.734 813.719C965.325 810.651 954.953 810.651 946.544 813.719L784.523 873.812C782 874.714 782 877.06 784.523 878.143L947.665 938.777C954.953 941.484 964.204 941.484 971.772 938.777L1135.19 878.143C1137.72 877.24 1137.72 874.894 1135.19 873.812L973.734 813.719Z" fill="url(#paint8_linear)"/>
</g>
<path opacity="0.5" d="M1135.19 873.812L973.734 813.719C965.325 810.651 954.953 810.651 946.544 813.719L784.523 873.812C783.121 874.353 782.561 875.075 782.561 875.977V928.671C782.561 929.573 783.121 930.295 784.523 930.837L947.665 991.471C954.953 994.178 964.203 994.178 971.772 991.471L1135.19 930.837C1136.6 930.295 1137.16 929.573 1137.16 928.671V875.977C1137.16 875.075 1136.6 874.353 1135.19 873.812Z" fill="url(#paint9_linear)"/>
<g opacity="0.11">
<path opacity="0.11" d="M976.538 770.77C966.447 766.98 953.833 766.98 943.461 770.77L747.242 843.495C744.159 844.577 744.159 847.465 747.242 848.728L945.143 922.355C954.113 925.784 965.326 925.784 974.296 922.355L1172.48 848.908C1175.56 847.826 1175.56 844.938 1172.48 843.675L976.538 770.77Z" fill="url(#paint10_linear)"/>
</g>
<g opacity="0.11">
<path opacity="0.11" d="M976.538 749.476C966.447 745.686 953.833 745.686 943.461 749.476L747.242 822.2C744.159 823.283 744.159 826.171 747.242 827.434L945.143 901.061C954.113 904.49 965.326 904.49 974.296 901.061L1172.48 827.614C1175.56 826.531 1175.56 823.644 1172.48 822.381L976.538 749.476Z" fill="url(#paint11_linear)"/>
</g>
<g opacity="0.11">
<path opacity="0.11" d="M976.538 728.182C966.447 724.392 953.833 724.392 943.461 728.182L747.242 800.906C744.159 801.989 744.159 804.876 747.242 806.14L945.143 879.767C954.113 883.196 965.326 883.196 974.296 879.767L1172.48 806.32C1175.56 805.237 1175.56 802.35 1172.48 801.087L976.538 728.182Z" fill="url(#paint12_linear)"/>
</g>
<g opacity="0.11">
<path opacity="0.11" d="M976.538 706.887C966.447 703.098 953.833 703.098 943.461 706.887L747.242 779.612C744.159 780.695 744.159 783.582 747.242 784.845L945.143 858.472C954.113 861.901 965.326 861.901 974.296 858.472L1172.48 785.026C1175.56 783.943 1175.56 781.056 1172.48 779.792L976.538 706.887Z" fill="url(#paint13_linear)"/>
</g>
<path opacity="0.5" d="M1172.48 779.612L976.538 706.887C966.447 703.097 953.833 703.097 943.462 706.887L747.243 779.612C745.841 780.153 745 781.236 745 782.138V846.02C745 847.103 745.841 848.005 747.243 848.547L945.143 922.174C954.113 925.603 965.326 925.603 974.296 922.174L1172.48 848.727C1174.16 848.186 1174.72 847.103 1174.72 846.201V782.318C1175 781.236 1174.16 780.333 1172.48 779.612Z" fill="url(#paint14_linear)"/>
<g opacity="0.11">
<path opacity="0.11" d="M976.538 706.887C966.447 703.098 953.833 703.098 943.461 706.887L747.242 779.612C744.159 780.695 744.159 783.582 747.242 784.845L945.143 858.472C954.113 861.901 965.326 861.901 974.296 858.472L1172.48 785.026C1175.56 783.943 1175.56 781.056 1172.48 779.792L976.538 706.887Z" fill="url(#paint15_linear)"/>
</g>
<path d="M1172.48 781.958L974.296 855.405C965.326 858.834 954.113 858.834 945.143 855.405L747.243 781.778C746.402 781.417 745.841 781.056 745.561 780.695C744.439 781.958 745 783.943 747.243 784.665L945.143 858.292C954.113 861.721 965.326 861.721 974.296 858.292L1172.48 784.845C1174.72 783.943 1175.28 782.139 1174.16 780.875C1173.88 781.236 1173.32 781.597 1172.48 781.958Z" fill="url(#paint16_linear)"/>
</g>
<defs>
<linearGradient id="paint0_linear" x1="812.89" y1="1012.36" x2="1107" y2="1012.36" gradientUnits="userSpaceOnUse">
<stop stop-color="#781B0E"/>
<stop offset="0.317" stop-color="#8F1B1F"/>
<stop offset="0.4751" stop-color="#A31B1F"/>
<stop offset="0.7381" stop-color="#D4002F"/>
<stop offset="1" stop-color="#AA0038"/>
</linearGradient>
<linearGradient id="paint1_linear" x1="812.89" y1="997.798" x2="1107" y2="997.798" gradientUnits="userSpaceOnUse">
<stop stop-color="#781B0E"/>
<stop offset="0.317" stop-color="#8F1B1F"/>
<stop offset="0.4751" stop-color="#A31B1F"/>
<stop offset="0.7381" stop-color="#D4002F"/>
<stop offset="1" stop-color="#AA0038"/>
</linearGradient>
<linearGradient id="paint2_linear" x1="812.89" y1="983.233" x2="1107" y2="983.233" gradientUnits="userSpaceOnUse">
<stop stop-color="#781B0E"/>
<stop offset="0.317" stop-color="#8F1B1F"/>
<stop offset="0.4751" stop-color="#A31B1F"/>
<stop offset="0.7381" stop-color="#D4002F"/>
<stop offset="1" stop-color="#AA0038"/>
</linearGradient>
<linearGradient id="paint3_linear" x1="812.89" y1="968.668" x2="1107" y2="968.668" gradientUnits="userSpaceOnUse">
<stop stop-color="#781B0E"/>
<stop offset="0.317" stop-color="#8F1B1F"/>
<stop offset="0.4751" stop-color="#A31B1F"/>
<stop offset="0.7381" stop-color="#D4002F"/>
<stop offset="1" stop-color="#AA0038"/>
</linearGradient>
<linearGradient id="paint4_linear" x1="812.891" y1="990.516" x2="1107" y2="990.516" gradientUnits="userSpaceOnUse">
<stop stop-color="#781B0E"/>
<stop offset="0.317" stop-color="#8F1B1F"/>
<stop offset="0.4751" stop-color="#A31B1F"/>
<stop offset="0.7381" stop-color="#D4002F"/>
<stop offset="1" stop-color="#AA0038"/>
</linearGradient>
<linearGradient id="paint5_linear" x1="782.678" y1="928.781" x2="1137.21" y2="928.781" gradientUnits="userSpaceOnUse">
<stop stop-color="#781B0E"/>
<stop offset="0.317" stop-color="#8F1B1F"/>
<stop offset="0.4751" stop-color="#A31B1F"/>
<stop offset="0.7381" stop-color="#D4002F"/>
<stop offset="1" stop-color="#AA0038"/>
</linearGradient>
<linearGradient id="paint6_linear" x1="782.678" y1="911.223" x2="1137.21" y2="911.223" gradientUnits="userSpaceOnUse">
<stop stop-color="#781B0E"/>
<stop offset="0.317" stop-color="#8F1B1F"/>
<stop offset="0.4751" stop-color="#A31B1F"/>
<stop offset="0.7381" stop-color="#D4002F"/>
<stop offset="1" stop-color="#AA0038"/>
</linearGradient>
<linearGradient id="paint7_linear" x1="782.678" y1="893.665" x2="1137.21" y2="893.665" gradientUnits="userSpaceOnUse">
<stop stop-color="#781B0E"/>
<stop offset="0.317" stop-color="#8F1B1F"/>
<stop offset="0.4751" stop-color="#A31B1F"/>
<stop offset="0.7381" stop-color="#D4002F"/>
<stop offset="1" stop-color="#AA0038"/>
</linearGradient>
<linearGradient id="paint8_linear" x1="782.678" y1="876.108" x2="1137.21" y2="876.108" gradientUnits="userSpaceOnUse">
<stop stop-color="#781B0E"/>
<stop offset="0.317" stop-color="#8F1B1F"/>
<stop offset="0.4751" stop-color="#A31B1F"/>
<stop offset="0.7381" stop-color="#D4002F"/>
<stop offset="1" stop-color="#AA0038"/>
</linearGradient>
<linearGradient id="paint9_linear" x1="782.678" y1="902.444" x2="1137.21" y2="902.444" gradientUnits="userSpaceOnUse">
<stop stop-color="#781B0E"/>
<stop offset="0.317" stop-color="#8F1B1F"/>
<stop offset="0.4751" stop-color="#A31B1F"/>
<stop offset="0.7381" stop-color="#D4002F"/>
<stop offset="1" stop-color="#AA0038"/>
</linearGradient>
<linearGradient id="paint10_linear" x1="745" y1="846.307" x2="1174.89" y2="846.307" gradientUnits="userSpaceOnUse">
<stop stop-color="#781B0E"/>
<stop offset="0.317" stop-color="#8F1B1F"/>
<stop offset="0.4751" stop-color="#A31B1F"/>
<stop offset="0.7381" stop-color="#D4002F"/>
<stop offset="1" stop-color="#AA0038"/>
</linearGradient>
<linearGradient id="paint11_linear" x1="745" y1="825.017" x2="1174.89" y2="825.017" gradientUnits="userSpaceOnUse">
<stop stop-color="#781B0E"/>
<stop offset="0.317" stop-color="#8F1B1F"/>
<stop offset="0.4751" stop-color="#A31B1F"/>
<stop offset="0.7381" stop-color="#D4002F"/>
<stop offset="1" stop-color="#AA0038"/>
</linearGradient>
<linearGradient id="paint12_linear" x1="745" y1="803.728" x2="1174.89" y2="803.728" gradientUnits="userSpaceOnUse">
<stop stop-color="#781B0E"/>
<stop offset="0.317" stop-color="#8F1B1F"/>
<stop offset="0.4751" stop-color="#A31B1F"/>
<stop offset="0.7381" stop-color="#D4002F"/>
<stop offset="1" stop-color="#AA0038"/>
</linearGradient>
<linearGradient id="paint13_linear" x1="745" y1="782.438" x2="1174.89" y2="782.438" gradientUnits="userSpaceOnUse">
<stop stop-color="#781B0E"/>
<stop offset="0.317" stop-color="#8F1B1F"/>
<stop offset="0.4751" stop-color="#A31B1F"/>
<stop offset="0.7381" stop-color="#D4002F"/>
<stop offset="1" stop-color="#AA0038"/>
</linearGradient>
<linearGradient id="paint14_linear" x1="745" y1="814.372" x2="1174.89" y2="814.372" gradientUnits="userSpaceOnUse">
<stop stop-color="#781B0E"/>
<stop offset="0.317" stop-color="#8F1B1F"/>
<stop offset="0.4751" stop-color="#A31B1F"/>
<stop offset="0.7381" stop-color="#D4002F"/>
<stop offset="1" stop-color="#AA0038"/>
</linearGradient>
<linearGradient id="paint15_linear" x1="745" y1="782.438" x2="1174.89" y2="782.438" gradientUnits="userSpaceOnUse">
<stop stop-color="#781B0E"/>
<stop offset="0.317" stop-color="#8F1B1F"/>
<stop offset="0.4751" stop-color="#A31B1F"/>
<stop offset="0.7381" stop-color="#D4002F"/>
<stop offset="1" stop-color="#AA0038"/>
</linearGradient>
<linearGradient id="paint16_linear" x1="745.003" y1="820.809" x2="1174.89" y2="820.809" gradientUnits="userSpaceOnUse">
<stop stop-color="#781B0E"/>
<stop offset="0.317" stop-color="#8F1B1F"/>
<stop offset="0.4751" stop-color="#A31B1F"/>
<stop offset="0.7381" stop-color="#D4002F"/>
<stop offset="1" stop-color="#AA0038"/>
</linearGradient>
<clipPath id="clip0">
<rect width="430" height="362" fill="white" transform="translate(745 704)"/>
</clipPath>
</defs>
</svg>
