<svg width="1920" height="1727" fill="none" xmlns="http://www.w3.org/2000/svg"><path opacity=".5" d="M896.387-181.993L790.34-363.201c.887-.838 1.068-2.128.44-3.419-.708-1.452-2.38-2.228-3.554-1.648-1.175.579-1.59 2.385-.883 3.837.157.323.524.743.681 1.065l-38 70.189c-.706-.453-1.594-.615-2.377-.228-1.175.579-1.538 2.16-1.04 3.515l-181.961 92.611c-.759-1.227-2.223-1.906-3.397-1.326-.913.451-1.303 1.644-1.223 2.805l-230.715 39.024-.157-.323c-.707-1.452-2.379-2.227-3.554-1.648-1.174.58-1.537 2.16-.961 3.677L195.793-75.96c-.759-1.227-2.144-1.744-3.188-1.229-1.174.58-1.589 2.386-.882 3.838l.236.484-48.418 53.116c-.863-.775-1.83-1.098-2.743-.648-1.044.515-1.486 1.934-.988 3.29l-156.237 57.7c-.707-1.453-2.3-2.067-3.475-1.487-1.174.58-1.59 2.385-.882 3.837l.157.323-103.255 91.388c-.811-1-1.908-1.259-2.952-.744-1.044.515-1.486 1.934-1.066 3.128l-40.379 14.125c-.707-1.452-2.379-2.227-3.554-1.648-1.174.58-1.537 2.16-1.039 3.515l-102.134 53.812c-.759-1.227-2.222-1.905-3.397-1.326-1.174.58-1.589 2.386-.882 3.838.314.645.68 1.065 1.177 1.42l-56.666 184.068c-.627-.291-1.306-.356-1.828-.099-1.174.58-1.59 2.386-.882 3.838.707 1.452 2.379 2.228 3.554 1.648 1.174-.579 1.537-2.16 1.039-3.515l47.73-22.957c.838 1.388 2.222 1.905 3.397 1.325 1.044-.515 1.485-1.934 1.118-3.353l43.166-18.704c.837 1.388 2.301 2.067 3.475 1.487 1.044-.515 1.486-1.934 1.066-3.128l156.299-50.926c.707 1.452 2.38 2.228 3.554 1.648.913-.45 1.382-1.482 1.223-2.805l299.812-39.706.235.484c.707 1.452 2.38 2.228 3.554 1.648 1.044-.515 1.486-1.934 1.066-3.127L381.9 210.826c.707 1.452 2.379 2.228 3.554 1.649 1.174-.58 1.589-2.386.882-3.838-.157-.323-.314-.646-.523-.743L487.961 54.412c.784.614 1.672.776 2.455.39.914-.451 1.382-1.483 1.172-2.58l193.67-12.735.314.645c.707 1.453 2.38 2.228 3.554 1.649 1.174-.58 1.616-1.999 1.039-3.515L868.459-43.93c.838 1.387 2.223 1.905 3.397 1.325 1.174-.58 1.59-2.386.883-3.838-.315-.645-.89-1.162-1.387-1.517l26.27-128.84c.549.13 1.097.259 1.619.002 1.174-.58 1.59-2.386.883-3.838-.969-1.323-2.432-2.002-3.737-1.358zM-333.859 395.389l56.666-184.068s.13-.064.209.097l-5.937 158.63c-.339-.033-.809-.001-1.2.192-1.175.58-1.538 2.16-1.04 3.515l-47.73 22.957c-.314-.645-.68-1.065-.968-1.323zM195.016-71.574l.261-.129c.783-.386 1.251-1.418 1.25-2.418l200.117 3.495 32.617.512c.079.162.106.549.184.71l-9.314 5.798L230.16 52.77c-.602-.903-1.516-1.453-2.457-1.389l-1.732-6.55-30.955-116.405zm493.373-109.824l-41.643 42.767c-.863-.775-1.96-1.034-2.873-.583-.392.193-.574.483-.887.838l-78.762-56.387c.052-.226.104-.452.077-.839l123.381 12.751c.027.387.184.71.341 1.033.209.097.288.258.366.42zm-125.156-12.076c.392-.193.574-.483.887-.837l78.762 56.386c-.234.516-.259 1.129-.075 1.839L434.039-71.271l-.158-.323 126.61-122.527c.523.742 1.699 1.163 2.742.647zm185.537-94.575l6.161 16.972 36.312 101.154c-.783.386-1.2 1.192-1.277 2.031l-97.087-14.922c-.027-.387-.184-.71-.419-1.194-.158-.322-.524-.742-.811-1l55.266-103.526a3.02 3.02 0 0 0 1.855.485zm46.054 120.161l-.236-.484c-.629-1.291-1.753-1.937-2.954-1.745l-3.827-10.518-38.646-107.607c.391-.193.574-.483.756-.773l145.062 108.118c-.104.451-.208.903-.103 1.451l-21.749 2.529-78.303 9.029zM229.093 256.627l-.522.257L134.328 149.1c.548-.87.677-1.934.127-3.064l-.158-.322 92.526-89.495c.366.42.862.775 1.411.904l2.06 199.311c-.6.096-.94.064-1.201.193zm-98.996-108.24L-72.492 298.008l-.157-.322L41.113 120.86c.784.614 1.672.776 2.455.39.653-.322 1.018-.903 1.173-1.58l85.04 27.072c-.104.451.002 1 .316 1.645zm-254.129-9.058c.913-.45 1.382-1.482 1.302-2.643l162.718-17.472.236.484c.157.323.314.646.601.904L11.46 166.316-73.145 297.33c-.497-.355-1.124-.646-1.725-.549l-19.281-61.529-30.012-95.858.131-.065zM141.929-14.753l-9.749 159.11c-.339-.033-.809-.001-1.201.192-.652.322-1.017.903-1.173 1.58l-85.04-27.072c.026-.613-.08-1.161-.315-1.645-.157-.323-.236-.484-.524-.742l97.087-131.972c.288.258.497.355.915.549zm84.24 70.294l.157.323-92.525 89.494c-.366-.419-.785-.613-1.203-.807l9.749-159.11c.339.032.809 0 1.201-.193.261-.128.652-.321.835-.612l81.599 68.195c-.286.742-.285 1.742.187 2.71zm261.915-6.193L433.208-67.659c.835-.612 1.225-1.805.936-3.063l208.768-64.816c.079.162.236.484.445.581L490.409 49.802c-.575-.517-1.463-.679-2.325-.454zM688.57 36.651l-.627-.29 2.642-216.242c.34.033.81.001 1.071-.128.783-.386 1.199-1.192 1.276-2.031l97.088 14.922c.026.387.184.71.419 1.194.236.484.524.742.811 1L740.34-64.749l-51.77 101.4zm58.057-325.444l-55.266 103.526c-.706-.452-1.594-.614-2.246-.292-.783.387-1.2 1.193-1.198 2.192l-112.856-11.741-10.604-1.171c.052-.226-.105-.548-.184-.71l181.961-92.61c.027.387.105.548.393.806zM327.272-153.261c.261-.129.573-.483.834-.612L429.494-71.63c-.182.29-.286.742-.181 1.29l-232.734-4.007c-.079-.161-.105-.548-.184-.71l127.846-79.11c.602.904 1.987 1.421 3.031.906zM140.648-15.721L43.561 116.25c-.784-.614-1.75-.937-2.664-.486l-.392.193-57.031-71.915c.495-.645.624-1.71.362-2.58l156.237-57.7c.209.097.287.258.575.516zM-124.763 139.49l49.162 157.451-.13.065-.13.064-36.431-55.866-56.347-86.463c.626-.709.885-1.837.544-2.87l40.378-14.125c.759 1.226 2.014 1.808 2.954 1.744zm-46.566 15.378l-60.657 186.838-2.496 7.836c-.418-.194-.758-.226-1.097-.259l-14.697-50.783-25.168-87.242.261-.129c1.175-.579 1.538-2.159 1.04-3.515l102.134-53.811c.026.387.184.71.68 1.065zm-111.122 215.148l5.937-158.63c.13-.064.34.033.34.033l39.785 137.864-.261.128c-1.044.516-1.485 1.935-1.118 3.354l-43.166 18.704c-.184-.71-.759-1.227-1.517-1.453zm513.24-315.955c-.079-.161-.105-.548-.184-.71L429.969-68.662c.68 1.065 1.934 1.647 2.926 1.358L444.84-41.78l42.853 91.322c-.705.547-1.121 1.353-.989 2.289l-180.002 1.586-75.913.644zm415.494-187.66l.392-.194c1.174-.579 1.589-2.385.882-3.837l-.236-.484 41.644-42.768c.366.42.784.614 1.202.808l-2.642 216.24s-.131.065-.209-.096l-22.487-93.368-18.546-76.301zm42.784 170.606l24.114-47.525 78.357-154.147c.706.452 1.594.614 2.246.292l.131-.065 74.644 117.057c-.756.774-1.016 1.902-.466 3.032L689.799 37.846c-.287-.258-.445-.581-.732-.84zM869.002-47.8l-54.439-85.202-20.336-31.79c.574-.483.782-1.386.65-2.322l100.392-11.525.236.484c.314.645.889 1.162 1.386 1.517l-26.27 128.84c-.627-.291-1.097-.26-1.619-.002zm-81.43-315.436c.706.452 1.594.614 2.247.292l106.046 181.209c-.13.064-.312.354-.443.419L750.361-289.434c.286-.742.154-1.678-.239-2.484-.157-.323-.523-.743-.68-1.065l38.13-70.253zm-228.05 167.792l.158.322.157.323L433.228-72.271c-.733-.84-1.908-1.26-2.952-.745-.261.129-.574.483-.835.612l-101.388-82.243c.234-.516.26-1.129.154-1.677l231.315-39.12zM192.613-72.189c.575.516 1.202.807 2.011.808l32.688 122.955-.261.13c-.261.128-.652.321-.835.611L172.383 7.24l-27.766-23.12c.286-.741.285-1.741-.187-2.71l-.236-.483 48.419-53.116zM-20.182 43.845c.81 1 1.908 1.26 2.952.744l.391-.193 57.032 71.916c-.365.58-.651 1.322-.468 2.031l-162.718 17.471-.235-.484-.158-.322 103.204-91.163zm-212.783 307.15c-.315-.645-.681-1.065-1.177-1.42l63.231-194.513c.627.291 1.307.356 1.959.034l.13-.064 92.778 142.328c-.626.709-.964 1.677-.623 2.709l-156.298 50.926zm160.945-52.018l-.236-.485-.078-.161 202.667-149.46c.811 1.001 2.065 1.583 3.109 1.067l.522-.257 94.243 107.784c-.365.58-.521 1.257-.468 2.031l-299.76 39.481zm304.537-40.638c-.472-.968-1.256-1.581-2.014-1.808l-2.06-199.31c.34.032.679.064 1.071-.129.261-.129.391-.193.573-.483l151.705 151.669c-.365.58-.442 1.419-.18 2.29l-149.095 47.771zm152.747-50.574c-.784-.614-1.672-.776-2.455-.389-.261.129-.392.193-.574.483L230.531 56.189c.234-.515.338-.967.363-1.58l135.583-1.076 120.28-.928c.079.161.105.549.184.71.157.323.314.645.523.742l-102.2 153.708zM491.613 51.609l-.314-.645c-.079-.161-.236-.484-.445-.581l61.653-74.458 91.164-110.236c.575.516 1.202.807 1.803.711l22.198 92.11 19.122 77.817-.392.194c-.913.45-1.382 1.482-1.171 2.58L491.613 51.608z" fill="#fff"/><path opacity=".4" d="M2056.36 796.633l-134.38-369.239c1.93-.938 2.68-3.867 1.98-6.381-.8-2.874-3.54-4.808-5.86-4.146-2.33.662-3.66 3.756-2.86 6.63.2.718.4 1.436.89 2.072l-93.75 116.256c-1.27-1.189-2.63-1.576-4.09-1.162-2.32.662-3.47 3.314-2.96 6.271l-366.34 108.955c-1.09-2.791-3.34-4.09-5.66-3.428-2.04.579-3.09 2.43-3.07 4.751l-438.72-5.366-.2-.719c-.81-2.873-3.543-4.808-5.869-4.146-2.326.662-3.661 3.756-2.859 6.63L730.564 756.135c-.992-2.431-3.237-3.731-5.564-3.068-2.326.662-3.66 3.756-2.859 6.63l.301 1.077-107.156 81.689c-1.083-1.631-3.229-2.571-4.973-2.074-2.036.579-3.57 2.955-3.16 5.552l-307.447 53.414c-.802-2.873-3.538-4.808-5.865-4.146-2.326.663-3.66 3.756-2.859 6.63l.201.718L70.107 1036.07c-1.183-1.99-3.328-2.93-5.073-2.44-2.035.58-3.279 2.88-3.16 5.56l-79.08 12.43c-.8-2.87-3.538-4.81-5.864-4.15-2.326.67-3.47 3.32-2.959 6.27l-206.404 64.59c-.992-2.44-3.338-4.09-5.664-3.43-2.326.66-3.66 3.75-2.859 6.63.301 1.08.892 2.07 1.774 2.98l-166.547 319.99c-1.173-.83-2.146-.94-3.309-.61-2.326.67-3.66 3.76-2.859 6.63.802 2.88 3.539 4.81 5.865 4.15 2.326-.66 3.47-3.32 3.059-5.91l95.967-26.16c1.092 2.79 3.438 4.45 5.764 3.78 2.327-.66 3.47-3.31 3.06-5.91l85.819-19.78c1.092 2.79 3.438 4.45 5.764 3.79 2.036-.58 3.279-2.87 3.159-5.55l304.247-41.26c.802 2.87 3.539 4.81 5.865 4.14 1.745-.49 3.089-2.43 3.069-4.75l566.001 28.45.201.72c.801 2.88 3.538 4.81 5.864 4.15 2.036-.58 3.279-2.87 3.159-5.55l290.771-37.81c.802 2.87 3.539 4.8 5.865 4.14 2.326-.66 3.66-3.75 2.859-6.63-.201-.72-.301-1.08-.792-1.71l240.121-248.66c1.27 1.19 2.73 1.94 4.48 1.44 1.74-.5 2.8-2.35 3.17-4.39l360.72 41.92.3 1.08c.8 2.87 3.54 4.8 5.86 4.14 2.33-.66 3.47-3.31 3.06-5.91l356.19-91.33c1.1 2.79 3.44 4.45 5.77 3.79 2.32-.67 3.66-3.76 2.86-6.63-.4-1.44-1-2.44-2.17-3.26l91.93-228.569c1.07.47 2.04.581 2.91.332 2.33-.662 3.66-3.756 2.86-6.629-.31-2.238-3.04-4.173-5.37-3.511zM-405.238 1445.14l166.547-319.99.391.27-64.393 290.13c-.682-.19-1.364-.38-2.236-.14-2.326.67-3.47 3.32-3.059 5.92l-95.967 26.16c-.201-.72-.692-1.36-1.283-2.35zm1084.039-65.54c-.291.08-.581.17-.872.25L565.97 1192.27l-25.328-42.41c1.253-1.14 1.815-3.62 1.214-5.78l-.201-.72 200.673-133.51c.591.99 1.373 1.55 2.155 2.1l-63.446 367.79c-.973-.11-1.654-.3-2.236-.14zm993.969-651.722l-91.17 64.731c-1.18-1.99-3.23-2.571-4.97-2.074-.87.248-1.35.773-1.83 1.298l-126.15-130.419.57-1.326 223.14 65.193c-.09.801.01 1.161.21 1.879l.2.718zm-74.34 400.752l77.77-397.463c.68.194 1.37.387 2.24.139 1.45-.414 2.61-1.905 2.89-3.148l75.81 26.492 97.64 33.849c-.09.801.11 1.52.31 2.238.2.719.69 1.354.89 2.073l-256.85 337.17c.09-.8-.31-1.08-.7-1.35zm218.78-578.353c.88.912 1.95 1.382 3.22 1.41l38.29 231.813c-1.45.414-2.6 1.905-2.89 3.148l-173.74-60.258c.09-.802-.11-1.52-.31-2.238-.2-.719-.4-1.437-.89-2.073l101.52-127.774 34.8-44.028zm-243.44 246.888l.4 1.437-344.13 288.738c-.98-1.27-2.83-2.29-4.29-1.88l-43.56-165.175-18.27-68.856c1.94-.938 2.99-2.789 2.58-5.386l268.47-32.237 138.8-16.641zM108.839 1353.83l269.422-287.63c1.273 1.19 2.737 1.93 4.481 1.44 1.163-.33 2.126-1.38 2.698-2.71l147.473 78.6c-.091.8-.081 1.96.219 3.04l.101.35-424.003 207.19c-.1-.36-.1-.36-.391-.28zm633.139-350.86c-.863 1.41-1.043 3.01-.542 4.81.1.35.1.35.2.71l-200.672 133.52c-.491-.64-.982-1.27-1.764-1.82l17.94-72.96 53.642-217.282c.682.194 1.654.305 2.236.139.582-.165 1.163-.331 1.645-.856l1.864 2.184 125.451 151.555zM608.346 849.091c.491.636.882.912 1.273 1.189l-71.683 289.88c-.681-.2-1.654-.31-2.236-.14-1.163.33-2.125 1.38-2.697 2.71l-147.473-78.6c.091-.8.081-1.96-.22-3.04-.2-.72-.3-1.08-.691-1.35l46.46-43.86 177.267-166.789zM67.459 1044.58l.29-.09c1.745-.49 3.089-2.43 3.17-4.39l305.468 22.76.3 1.07c.201.72.401 1.44.792 1.72L123.17 1336.57l-15.022 15.91c-.883-.92-1.955-1.39-2.928-1.5l-22.544-184.34-15.217-122.06zm682.209-39.92c-.792-1.72-2.456-3.18-4.11-3.49l-18.915-237.715.581-.165c1.745-.497 2.898-1.988 2.979-3.95l427.357 86.147c.1.359-.09.801.11 1.52l-5.72 2.015-402.282 155.638zm829.382-203.184c.3-.082.59-.165.59-.165 2.32-.662 3.66-3.756 2.85-6.63l-.3-1.078 14.39-10.3 76.69-54.789c.49.636 1.37 1.548 2.05 1.741l-77.77 397.465-.29.08-17.06-305.326-1.15-20.998zm285.16-12.946l-.3-1.078c-.71-2.514-2.76-4.255-5-4.394l-29.18-176.636-9.11-55.177c.58-.165 1.35-.773 1.83-1.298l156.59 168.666 74.03 79.732c-.38.884-.76 1.768-.85 2.569l-87.3-5.775-100.71-6.609zm-47.89-239.165l-92.67 116.726-43.94 55.159c-1.27-1.188-2.63-1.576-4.09-1.162-1.45.414-2.6 1.906-3.08 3.591l-223.14-65.193c-.1-.359-.01-1.161-.11-1.52l366.24-109.314c.2.718.4 1.437.79 1.713zm-375.35 111.522c1.18 1.989 3.33 2.929 5.07 2.433.87-.249 1.35-.773 1.84-1.298l126.14 130.418c-.38.884-.66 2.128-.65 3.288l-330.1 39.703-76.2 9.286-.2-.719 125.22-83.34 148.88-99.771zm-442.885-3.406c.582-.166 1.164-.332 1.645-.856l76.73 89.429 82.33 95.98c-.48.525-.57 1.326-.66 2.127l-427.355-86.147c-.101-.359-.01-1.16-.11-1.52L992.712 653.97c.802 2.874 3.047 4.173 5.373 3.511zm-390.33 190.615L384.318 1058.66c-1.373-1.55-2.837-2.29-4.582-1.8-.29.08-.581.17-.581.17l-80.663-151.901c1.253-1.132 1.725-2.817 1.514-4.696l307.348-53.773c-.191.442.01 1.16.401 1.436zM66.486 1044.46l37.471 306.5-.291.08-.291.08-122.667-293.48c1.645-.85 2.307-2.98 1.997-5.22l79.08-12.43c.801 2.87 2.756 4.25 4.701 4.47zm-91.031 12.35l-140.147 259.36-41.995 77.87c-.782-.56-1.464-.75-2.045-.59l-26.941-267.61c.291-.08.291-.08.582-.17 2.326-.66 3.469-3.31 2.959-6.27l206.404-64.58c.2.72.5 1.8 1.183 1.99zm-277.366 359.3l64.393-290.13c.291-.09.391.27.682.19l15.682 154.12 11.259 113.5-.582.16c-2.326.66-3.47 3.32-3.059 5.91l-85.819 19.78c-.501-1.79-1.484-3.06-2.556-3.53zm1052.28-408.94c-.1-.36.091-.8-.01-1.16l165.798-63.876 242.593-93.497c.89 2.073 2.85 3.455 4.98 3.234l61.54 234.109c-1.45.42-2.51 2.27-2.69 3.87l-454.405-79.61-17.806-3.07zm850.121 123.2l58.81-77.23 197.76-259.86c1.27 1.188 2.63 1.575 4.09 1.161l.29-.082 97.93 240.811c-1.65.86-2.21 3.34-1.9 5.58l-356.19 91.33c-.2-.72-.69-1.35-.79-1.71zm360.04-95.53c-.29.08-.29.08 0 0l-98.22-240.73c1.35-.773 2.12-2.541 2.01-4.06l188.69 12.577.3 1.078c.4 1.437.99 2.431 2.16 3.261l-91.92 228.564c-1.17-.83-2.15-.94-3.02-.69zm-43.62-608.718c1.28 1.188 2.64 1.576 4.09 1.162l134.39 369.238c-.29.083-.78.608-1.07.691l-230.91-248.315c.58-1.326 1.05-3.011.55-4.807-.2-.719-.4-1.437-.9-2.073l93.85-115.896zm-476.64 232.25a692.764 692.764 0 0 0 .4 1.437l-141.54 94.58-132.85 88.614c-1.18-1.989-3.33-2.929-5.07-2.432-.58.165-1.16.331-1.64.855L1000.5 656.017c.38-.884.76-1.768.75-2.928l439.02 5.283zM722.642 761.493c.983 1.271 2.156 2.1 3.419 2.128l18.624 237.799c-.29.09-.291.09-.581.17-.582.16-1.163.33-1.645.85L615.244 849.066c.862-1.409 1.043-3.011.542-4.807l-.3-1.078 107.156-81.688zM291.483 903.635c1.183 1.99 3.329 2.93 5.073 2.433l.582-.166 77.697 145.768 3.157 5.69c-1.063.69-1.635 2.02-1.816 3.62l-305.468-22.76-.3-1.08c-.1-.36-.1-.36-.2-.71l221.275-132.795zm-495.905 494.025c-.3-1.08-.892-2.08-1.774-2.99l182.142-337.22c1.173.83 2.145.94 3.6.52l.29-.08 29.254 69.99 93.413 223.49c-1.354.77-2.307 2.98-2.096 4.86l-304.829 41.43zm314.253-41.4l-.2-.72-.1-.36L533.533 1148c1.283 2.35 3.429 3.29 5.464 2.71.291-.08.582-.16.872-.25l137.388 230.36c-.963 1.05-1.244 2.29-1.525 3.53l-565.901-28.09zm574.935 27.85c-.501-1.8-1.583-3.43-2.947-3.82l3.061-17.15 60.676-350.72c.681.19 1.263.03 1.844-.14.582-.16.873-.25 1.063-.69l228.398 330.45c-.963 1.05-1.143 2.65-1.033 4.17l-291.062 37.9zm298.512-41.57c-1.273-1.19-2.737-1.93-4.482-1.44-.581.17-.872.25-1.063.69l-228.397-330.45c.772-.61 1.053-1.85 1.143-2.65l69.571 11.99 402.54 70.33c.1.36.01 1.16.11 1.52.2.72.3 1.08.8 1.71l-240.222 248.3zm248.352-251.77l-.3-1.08-.4-1.44 344.12-288.737c.89.912 2.06 1.742 3.03 1.853l18.31 326.684-.58.16c-1.75.5-2.8 2.35-3.17 4.39l-361.01-41.83z" fill="#fff"/><g clip-path="url(#clip0)"><g opacity=".5"><path opacity=".11" d="M971.213 960.612c-7.008-2.526-15.698-2.526-22.425 0l-134.27 49.808c-2.243.72-2.243 2.71 0 3.61l135.391 50.35c6.167 2.34 13.735 2.34 19.902 0l135.669-50.35c2.25-.72 2.25-2.71 0-3.61l-134.267-49.808z" fill="url(#paint0_linear)"/><path opacity=".11" d="M971.213 945.995c-7.008-2.526-15.698-2.526-22.425 0l-134.27 49.807c-2.243.722-2.243 2.707 0 3.609l135.391 50.349c6.167 2.34 13.735 2.34 19.902 0l135.669-50.349c2.25-.722 2.25-2.707 0-3.609l-134.267-49.807z" fill="url(#paint1_linear)"/><path opacity=".11" d="M971.213 931.558c-7.008-2.526-15.698-2.526-22.425 0l-134.27 49.807c-2.243.722-2.243 2.707 0 3.609l135.391 50.346c6.167 2.35 13.735 2.35 19.902 0l135.669-50.346c2.25-.722 2.25-2.707 0-3.609l-134.267-49.807z" fill="url(#paint2_linear)"/><path opacity=".11" d="M971.213 916.941c-7.008-2.526-15.698-2.526-22.425 0l-134.27 49.807c-2.243.722-2.243 2.707 0 3.609l135.391 50.353c6.167 2.34 13.735 2.34 19.902 0l135.669-50.353c2.25-.722 2.25-2.707 0-3.609l-134.267-49.807z" fill="url(#paint3_linear)"/><path opacity=".2" d="M1105.48 966.748l-134.267-49.807c-7.008-2.526-15.698-2.526-22.425 0l-134.27 49.807c-1.121.361-1.682 1.083-1.682 1.805v43.667c0 .73.561 1.45 1.682 1.81l135.391 50.35c6.167 2.34 13.735 2.34 19.902 0l135.669-50.35c1.12-.36 1.68-1.08 1.68-1.81v-43.667c-.28-.722-.56-1.444-1.68-1.805z" fill="url(#paint4_linear)"/></g><path opacity=".11" d="M973.734 866.413c-8.409-3.068-18.781-3.068-27.19 0l-162.021 60.093c-2.523.902-2.523 3.248 0 4.331l163.142 60.634c7.288 2.706 16.539 2.706 24.107 0l163.418-60.634c2.53-.903 2.53-3.249 0-4.331l-161.456-60.093z" fill="url(#paint5_linear)"/><path opacity=".11" d="M973.734 848.908c-8.409-3.067-18.781-3.067-27.19 0l-162.021 60.093c-2.523.902-2.523 3.248 0 4.331l163.142 60.634c7.288 2.707 16.539 2.707 24.107 0l163.418-60.634c2.53-.902 2.53-3.248 0-4.331l-161.456-60.093z" fill="url(#paint6_linear)"/><path opacity=".11" d="M973.734 831.404c-8.409-3.068-18.781-3.068-27.19 0l-162.021 60.093c-2.523.902-2.523 3.248 0 4.331l163.142 60.634c7.288 2.707 16.539 2.707 24.107 0l163.418-60.634c2.53-.903 2.53-3.249 0-4.331l-161.456-60.093z" fill="url(#paint7_linear)"/><path opacity=".11" d="M973.734 813.719c-8.409-3.068-18.781-3.068-27.19 0l-162.021 60.093c-2.523.902-2.523 3.248 0 4.331l163.142 60.634c7.288 2.707 16.539 2.707 24.107 0l163.418-60.634c2.53-.903 2.53-3.249 0-4.331l-161.456-60.093z" fill="url(#paint8_linear)"/><path opacity=".5" d="M1135.19 873.812l-161.456-60.093c-8.409-3.068-18.781-3.068-27.19 0l-162.021 60.093c-1.402.541-1.962 1.263-1.962 2.165v52.694c0 .902.56 1.624 1.962 2.166l163.142 60.634c7.288 2.707 16.538 2.707 24.107 0l163.418-60.634c1.41-.542 1.97-1.264 1.97-2.166v-52.694c0-.902-.56-1.624-1.97-2.165z" fill="url(#paint9_linear)"/><path opacity=".11" d="M976.538 770.77c-10.091-3.79-22.705-3.79-33.077 0l-196.219 72.725c-3.083 1.082-3.083 3.97 0 5.233l197.901 73.627c8.97 3.429 20.183 3.429 29.153 0l198.184-73.447c3.08-1.082 3.08-3.97 0-5.233L976.538 770.77z" fill="url(#paint10_linear)"/><path opacity=".11" d="M976.538 749.476c-10.091-3.79-22.705-3.79-33.077 0L747.242 822.2c-3.083 1.083-3.083 3.971 0 5.234l197.901 73.627c8.97 3.429 20.183 3.429 29.153 0l198.184-73.447c3.08-1.083 3.08-3.97 0-5.233l-195.942-72.905z" fill="url(#paint11_linear)"/><path opacity=".11" d="M976.538 728.182c-10.091-3.79-22.705-3.79-33.077 0l-196.219 72.724c-3.083 1.083-3.083 3.97 0 5.234l197.901 73.627c8.97 3.429 20.183 3.429 29.153 0l198.184-73.447c3.08-1.083 3.08-3.97 0-5.233l-195.942-72.905z" fill="url(#paint12_linear)"/><path opacity=".11" d="M976.538 706.887c-10.091-3.789-22.705-3.789-33.077 0l-196.219 72.725c-3.083 1.083-3.083 3.97 0 5.233l197.901 73.627c8.97 3.429 20.183 3.429 29.153 0l198.184-73.446c3.08-1.083 3.08-3.97 0-5.234l-195.942-72.905z" fill="url(#paint13_linear)"/><path opacity=".5" d="M1172.48 779.612l-195.942-72.725c-10.091-3.79-22.705-3.79-33.076 0l-196.219 72.725c-1.402.541-2.243 1.624-2.243 2.526v63.882c0 1.083.841 1.985 2.243 2.527l197.9 73.627c8.97 3.429 20.183 3.429 29.153 0l198.184-73.447c1.68-.541 2.24-1.624 2.24-2.526v-63.883c.28-1.082-.56-1.985-2.24-2.706z" fill="url(#paint14_linear)"/><path opacity=".11" d="M976.538 706.887c-10.091-3.789-22.705-3.789-33.077 0l-196.219 72.725c-3.083 1.083-3.083 3.97 0 5.233l197.901 73.627c8.97 3.429 20.183 3.429 29.153 0l198.184-73.446c3.08-1.083 3.08-3.97 0-5.234l-195.942-72.905z" fill="url(#paint15_linear)"/><path d="M1172.48 781.958l-198.184 73.447c-8.97 3.429-20.183 3.429-29.153 0l-197.9-73.627c-.841-.361-1.402-.722-1.682-1.083-1.122 1.263-.561 3.248 1.682 3.97l197.9 73.627c8.97 3.429 20.183 3.429 29.153 0l198.184-73.447c2.24-.902 2.8-2.706 1.68-3.97-.28.361-.84.722-1.68 1.083z" fill="url(#paint16_linear)"/></g><defs><linearGradient id="paint0_linear" x1="812.89" y1="1012.36" x2="1107" y2="1012.36" gradientUnits="userSpaceOnUse"><stop stop-color="#781B0E"/><stop offset=".317" stop-color="#8F1B1F"/><stop offset=".475" stop-color="#A31B1F"/><stop offset=".738" stop-color="#D4002F"/><stop offset="1" stop-color="#AA0038"/></linearGradient><linearGradient id="paint1_linear" x1="812.89" y1="997.798" x2="1107" y2="997.798" gradientUnits="userSpaceOnUse"><stop stop-color="#781B0E"/><stop offset=".317" stop-color="#8F1B1F"/><stop offset=".475" stop-color="#A31B1F"/><stop offset=".738" stop-color="#D4002F"/><stop offset="1" stop-color="#AA0038"/></linearGradient><linearGradient id="paint2_linear" x1="812.89" y1="983.233" x2="1107" y2="983.233" gradientUnits="userSpaceOnUse"><stop stop-color="#781B0E"/><stop offset=".317" stop-color="#8F1B1F"/><stop offset=".475" stop-color="#A31B1F"/><stop offset=".738" stop-color="#D4002F"/><stop offset="1" stop-color="#AA0038"/></linearGradient><linearGradient id="paint3_linear" x1="812.89" y1="968.668" x2="1107" y2="968.668" gradientUnits="userSpaceOnUse"><stop stop-color="#781B0E"/><stop offset=".317" stop-color="#8F1B1F"/><stop offset=".475" stop-color="#A31B1F"/><stop offset=".738" stop-color="#D4002F"/><stop offset="1" stop-color="#AA0038"/></linearGradient><linearGradient id="paint4_linear" x1="812.891" y1="990.516" x2="1107" y2="990.516" gradientUnits="userSpaceOnUse"><stop stop-color="#781B0E"/><stop offset=".317" stop-color="#8F1B1F"/><stop offset=".475" stop-color="#A31B1F"/><stop offset=".738" stop-color="#D4002F"/><stop offset="1" stop-color="#AA0038"/></linearGradient><linearGradient id="paint5_linear" x1="782.678" y1="928.781" x2="1137.21" y2="928.781" gradientUnits="userSpaceOnUse"><stop stop-color="#781B0E"/><stop offset=".317" stop-color="#8F1B1F"/><stop offset=".475" stop-color="#A31B1F"/><stop offset=".738" stop-color="#D4002F"/><stop offset="1" stop-color="#AA0038"/></linearGradient><linearGradient id="paint6_linear" x1="782.678" y1="911.223" x2="1137.21" y2="911.223" gradientUnits="userSpaceOnUse"><stop stop-color="#781B0E"/><stop offset=".317" stop-color="#8F1B1F"/><stop offset=".475" stop-color="#A31B1F"/><stop offset=".738" stop-color="#D4002F"/><stop offset="1" stop-color="#AA0038"/></linearGradient><linearGradient id="paint7_linear" x1="782.678" y1="893.665" x2="1137.21" y2="893.665" gradientUnits="userSpaceOnUse"><stop stop-color="#781B0E"/><stop offset=".317" stop-color="#8F1B1F"/><stop offset=".475" stop-color="#A31B1F"/><stop offset=".738" stop-color="#D4002F"/><stop offset="1" stop-color="#AA0038"/></linearGradient><linearGradient id="paint8_linear" x1="782.678" y1="876.108" x2="1137.21" y2="876.108" gradientUnits="userSpaceOnUse"><stop stop-color="#781B0E"/><stop offset=".317" stop-color="#8F1B1F"/><stop offset=".475" stop-color="#A31B1F"/><stop offset=".738" stop-color="#D4002F"/><stop offset="1" stop-color="#AA0038"/></linearGradient><linearGradient id="paint9_linear" x1="782.678" y1="902.444" x2="1137.21" y2="902.444" gradientUnits="userSpaceOnUse"><stop stop-color="#781B0E"/><stop offset=".317" stop-color="#8F1B1F"/><stop offset=".475" stop-color="#A31B1F"/><stop offset=".738" stop-color="#D4002F"/><stop offset="1" stop-color="#AA0038"/></linearGradient><linearGradient id="paint10_linear" x1="745" y1="846.307" x2="1174.89" y2="846.307" gradientUnits="userSpaceOnUse"><stop stop-color="#781B0E"/><stop offset=".317" stop-color="#8F1B1F"/><stop offset=".475" stop-color="#A31B1F"/><stop offset=".738" stop-color="#D4002F"/><stop offset="1" stop-color="#AA0038"/></linearGradient><linearGradient id="paint11_linear" x1="745" y1="825.017" x2="1174.89" y2="825.017" gradientUnits="userSpaceOnUse"><stop stop-color="#781B0E"/><stop offset=".317" stop-color="#8F1B1F"/><stop offset=".475" stop-color="#A31B1F"/><stop offset=".738" stop-color="#D4002F"/><stop offset="1" stop-color="#AA0038"/></linearGradient><linearGradient id="paint12_linear" x1="745" y1="803.728" x2="1174.89" y2="803.728" gradientUnits="userSpaceOnUse"><stop stop-color="#781B0E"/><stop offset=".317" stop-color="#8F1B1F"/><stop offset=".475" stop-color="#A31B1F"/><stop offset=".738" stop-color="#D4002F"/><stop offset="1" stop-color="#AA0038"/></linearGradient><linearGradient id="paint13_linear" x1="745" y1="782.438" x2="1174.89" y2="782.438" gradientUnits="userSpaceOnUse"><stop stop-color="#781B0E"/><stop offset=".317" stop-color="#8F1B1F"/><stop offset=".475" stop-color="#A31B1F"/><stop offset=".738" stop-color="#D4002F"/><stop offset="1" stop-color="#AA0038"/></linearGradient><linearGradient id="paint14_linear" x1="745" y1="814.372" x2="1174.89" y2="814.372" gradientUnits="userSpaceOnUse"><stop stop-color="#781B0E"/><stop offset=".317" stop-color="#8F1B1F"/><stop offset=".475" stop-color="#A31B1F"/><stop offset=".738" stop-color="#D4002F"/><stop offset="1" stop-color="#AA0038"/></linearGradient><linearGradient id="paint15_linear" x1="745" y1="782.438" x2="1174.89" y2="782.438" gradientUnits="userSpaceOnUse"><stop stop-color="#781B0E"/><stop offset=".317" stop-color="#8F1B1F"/><stop offset=".475" stop-color="#A31B1F"/><stop offset=".738" stop-color="#D4002F"/><stop offset="1" stop-color="#AA0038"/></linearGradient><linearGradient id="paint16_linear" x1="745.003" y1="820.809" x2="1174.89" y2="820.809" gradientUnits="userSpaceOnUse"><stop stop-color="#781B0E"/><stop offset=".317" stop-color="#8F1B1F"/><stop offset=".475" stop-color="#A31B1F"/><stop offset=".738" stop-color="#D4002F"/><stop offset="1" stop-color="#AA0038"/></linearGradient><clipPath id="clip0"><path fill="#fff" transform="translate(745 704)" d="M0 0h430v362H0z"/></clipPath></defs></svg>