<svg width="1920" height="1080" viewBox="0 0 1920 1080" fill="none" xmlns="http://www.w3.org/2000/svg">
<path opacity="0.5" d="M826.296 -181.992L932.343 -363.201C931.456 -364.039 931.276 -365.329 931.904 -366.62C932.611 -368.072 934.284 -368.847 935.458 -368.268C936.632 -367.688 937.048 -365.882 936.34 -364.43C936.183 -364.107 935.817 -363.688 935.66 -363.365L973.66 -293.177C974.366 -293.629 975.254 -293.791 976.037 -293.405C977.211 -292.825 977.575 -291.245 977.076 -289.89L1159.04 -197.279C1159.8 -198.505 1161.26 -199.184 1162.43 -198.604C1163.35 -198.154 1163.74 -196.96 1163.66 -195.799L1394.37 -156.775C1394.45 -156.937 1394.45 -156.937 1394.53 -157.098C1395.24 -158.55 1396.91 -159.326 1398.08 -158.746C1399.26 -158.167 1399.62 -156.586 1399.04 -155.07L1526.89 -75.9599C1527.65 -77.1862 1529.03 -77.7036 1530.08 -77.1884C1531.25 -76.6088 1531.67 -74.8028 1530.96 -73.3507C1530.88 -73.1893 1530.8 -73.028 1530.72 -72.8666L1579.14 -19.7508C1580.01 -20.5256 1580.97 -20.849 1581.89 -20.3982C1582.93 -19.8831 1583.37 -18.4642 1582.87 -17.109L1739.11 40.5908C1739.82 39.1387 1741.41 38.5245 1742.59 39.104C1743.76 39.6836 1744.17 41.4896 1743.47 42.9417C1743.39 43.1031 1743.39 43.103 1743.31 43.2644L1846.57 134.653C1847.38 133.652 1848.47 133.393 1849.52 133.908C1850.56 134.424 1851 135.843 1850.58 137.036L1890.96 151.162C1891.67 149.71 1893.34 148.934 1894.52 149.514C1895.69 150.093 1896.05 151.674 1895.56 153.029L1997.69 206.84C1998.45 205.614 1999.91 204.935 2001.09 205.515C2002.26 206.094 2002.68 207.9 2001.97 209.352C2001.65 209.998 2001.29 210.417 2000.79 210.773L2057.46 394.84C2058.08 394.549 2058.76 394.484 2059.29 394.742C2060.46 395.321 2060.88 397.127 2060.17 398.58C2059.46 400.032 2057.79 400.807 2056.61 400.228C2055.44 399.648 2055.08 398.068 2055.57 396.713L2007.84 373.756C2007.01 375.143 2005.62 375.661 2004.45 375.081C2003.4 374.566 2002.96 373.147 2003.33 371.727L1960.16 353.024C1959.33 354.412 1957.86 355.09 1956.69 354.511C1955.64 353.996 1955.2 352.577 1955.62 351.383L1799.32 300.457C1798.62 301.909 1796.94 302.684 1795.77 302.105C1794.86 301.654 1794.39 300.622 1794.55 299.3L1494.74 259.594C1494.66 259.755 1494.58 259.916 1494.5 260.078C1493.79 261.53 1492.12 262.306 1490.95 261.726C1489.9 261.211 1489.46 259.792 1489.88 258.598L1340.78 210.827C1340.08 212.279 1338.4 213.055 1337.23 212.475C1336.06 211.895 1335.64 210.089 1336.35 208.637C1336.5 208.315 1336.66 207.992 1336.87 207.895L1234.72 54.413C1233.94 55.0265 1233.05 55.1885 1232.27 54.8021C1231.35 54.3513 1230.89 53.3195 1231.1 52.2227L1037.43 39.4877C1037.35 39.649 1037.27 39.8103 1037.11 40.133C1036.4 41.5852 1034.73 42.3607 1033.56 41.7811C1032.38 41.2015 1031.94 39.7827 1032.52 38.2661L854.224 -43.929C853.386 -42.5413 852.002 -42.0239 850.827 -42.6035C849.653 -43.1831 849.238 -44.9891 849.945 -46.4413C850.259 -47.0867 850.835 -47.6032 851.331 -47.9585L825.062 -176.798C824.513 -176.669 823.964 -176.539 823.443 -176.797C822.268 -177.376 821.853 -179.182 822.56 -180.634C823.528 -181.958 824.991 -182.636 826.296 -181.992ZM2056.54 395.389L1999.88 211.322C1999.88 211.322 1999.75 211.257 1999.67 211.419L2005.6 370.048C2005.94 370.015 2006.41 370.047 2006.81 370.241C2007.98 370.82 2008.34 372.4 2007.84 373.756L2055.57 396.713C2055.89 396.067 2056.26 395.648 2056.54 395.389ZM1527.67 -71.5737C1527.54 -71.6381 1527.54 -71.6381 1527.41 -71.7025C1526.62 -72.0889 1526.16 -73.1207 1526.16 -74.1206L1326.04 -70.6253L1293.42 -70.1133C1293.34 -69.952 1293.32 -69.5649 1293.24 -69.4035L1302.55 -63.6055L1492.52 52.7709C1493.13 51.8672 1494.04 51.318 1494.98 51.3817L1496.71 44.8323L1527.67 -71.5737ZM1034.29 -181.398L1075.94 -138.63C1076.8 -139.405 1077.9 -139.664 1078.81 -139.214C1079.2 -139.02 1079.38 -138.73 1079.7 -138.376L1158.46 -194.763C1158.41 -194.988 1158.36 -195.214 1158.38 -195.601L1035 -182.85C1034.97 -182.463 1034.82 -182.14 1034.66 -181.818C1034.45 -181.721 1034.37 -181.559 1034.29 -181.398ZM1159.45 -193.473C1159.06 -193.666 1158.88 -193.956 1158.56 -194.311L1079.8 -137.924C1080.04 -137.408 1080.06 -136.795 1079.88 -136.086L1288.64 -71.2704C1288.72 -71.4317 1288.8 -71.5931 1288.8 -71.5931L1162.19 -194.121C1161.67 -193.378 1160.49 -192.958 1159.45 -193.473ZM973.914 -288.048L967.753 -271.076L931.44 -169.923C932.223 -169.536 932.64 -168.73 932.717 -167.892L1029.8 -182.813C1029.83 -183.2 1029.99 -183.523 1030.22 -184.007C1030.38 -184.33 1030.75 -184.75 1031.04 -185.008L975.769 -288.534C975.063 -288.082 974.384 -288.017 973.914 -288.048ZM927.86 -167.888C927.939 -168.049 928.017 -168.21 928.096 -168.372C928.724 -169.662 929.848 -170.309 931.049 -170.116L934.877 -180.635L973.523 -288.242C973.131 -288.435 972.949 -288.725 972.766 -289.015L827.705 -180.897C827.809 -180.445 827.913 -179.994 827.807 -179.445L849.557 -176.916L927.86 -167.888ZM1493.59 256.627C1493.72 256.692 1493.85 256.756 1494.11 256.885L1588.36 149.101C1587.81 148.23 1587.68 147.166 1588.23 146.037C1588.31 145.875 1588.39 145.714 1588.39 145.714L1495.86 56.2194C1495.49 56.639 1495 56.9943 1494.45 57.1238L1492.39 256.435C1492.99 256.531 1493.33 256.498 1493.59 256.627ZM1592.59 148.388L1795.18 298.009C1795.25 297.848 1795.25 297.848 1795.33 297.686L1681.57 120.861C1680.79 121.474 1679.9 121.637 1679.12 121.25C1678.46 120.928 1678.1 120.348 1677.94 119.671L1592.9 146.742C1593.01 147.194 1592.9 147.742 1592.59 148.388ZM1846.72 139.33C1845.8 138.879 1845.33 137.847 1845.41 136.686L1682.7 119.215C1682.62 119.376 1682.54 119.538 1682.46 119.699C1682.3 120.022 1682.15 120.344 1681.86 120.603L1711.22 166.316L1795.83 297.331C1796.33 296.976 1796.95 296.685 1797.55 296.781L1816.83 235.253L1846.85 139.394L1846.72 139.33ZM1580.75 -14.7525L1590.5 144.357C1590.84 144.325 1591.31 144.357 1591.7 144.55C1592.36 144.872 1592.72 145.452 1592.88 146.129L1677.92 119.058C1677.89 118.445 1678 117.897 1678.23 117.412C1678.39 117.09 1678.47 116.928 1678.76 116.67L1581.67 -15.3016C1581.38 -15.0433 1581.17 -14.9464 1580.75 -14.7525ZM1496.51 55.5414C1496.44 55.7028 1496.36 55.8641 1496.36 55.8641L1588.88 145.359C1589.25 144.939 1589.67 144.745 1590.09 144.551L1580.34 -14.5586C1580 -14.526 1579.53 -14.5579 1579.14 -14.7511C1578.87 -14.8799 1578.48 -15.0731 1578.3 -15.3632L1496.7 52.8318C1496.99 53.5734 1496.99 54.5733 1496.51 55.5414ZM1234.6 49.3488L1289.48 -67.6585C1288.64 -68.2706 1288.25 -69.4637 1288.54 -70.7219L1079.77 -135.537C1079.69 -135.376 1079.54 -135.053 1079.33 -134.956L1232.27 49.8024C1232.85 49.2858 1233.74 49.1238 1234.6 49.3488ZM1034.11 36.652C1034.32 36.555 1034.53 36.4581 1034.74 36.3611L1032.1 -179.88C1031.76 -179.848 1031.29 -179.879 1031.03 -180.008C1030.25 -180.395 1029.83 -181.201 1029.75 -182.039L932.664 -167.118C932.637 -166.731 932.48 -166.408 932.244 -165.924C932.009 -165.44 931.721 -165.181 931.433 -164.923L982.343 -64.748L1034.11 36.652ZM976.056 -288.792L1031.32 -185.266C1032.03 -185.718 1032.92 -185.88 1033.57 -185.558C1034.35 -185.172 1034.77 -184.366 1034.77 -183.366L1147.62 -195.108L1158.23 -196.278C1158.17 -196.504 1158.33 -196.827 1158.41 -196.988L976.449 -289.599C976.423 -289.212 976.344 -289.05 976.056 -288.792ZM1395.41 -153.26C1395.15 -153.389 1394.84 -153.744 1394.58 -153.873L1293.19 -71.6292C1293.37 -71.339 1293.48 -70.8875 1293.37 -70.3391L1526.1 -74.3464C1526.18 -74.5077 1526.21 -74.8948 1526.29 -75.0562L1398.44 -154.166C1397.84 -153.263 1396.46 -152.745 1395.41 -153.26ZM1582.04 -15.7213L1679.12 116.25C1679.91 115.637 1680.87 115.314 1681.79 115.764C1681.92 115.829 1682.05 115.893 1682.18 115.958L1739.21 44.0421C1738.71 43.3974 1738.59 42.3331 1738.85 41.4619L1582.61 -16.2378C1582.4 -16.1409 1582.32 -15.9796 1582.04 -15.7213ZM1847.45 139.491L1798.28 296.942L1798.41 297.006L1798.55 297.071L1834.98 241.204L1891.32 154.742C1890.7 154.033 1890.44 152.904 1890.78 151.872L1850.4 137.746C1849.64 138.973 1848.39 139.554 1847.45 139.491ZM1894.01 154.869L1954.67 341.707L1957.17 349.543C1957.58 349.349 1957.92 349.316 1958.26 349.284L1972.96 298.5L1998.13 211.259C1998 211.194 1998 211.194 1997.87 211.13C1996.69 210.55 1996.33 208.97 1996.83 207.615L1894.69 153.804C1894.67 154.191 1894.51 154.513 1894.01 154.869ZM2005.13 370.016L1999.2 211.387C1999.07 211.322 1998.86 211.419 1998.86 211.419L1959.07 349.283C1959.2 349.348 1959.2 349.348 1959.33 349.412C1960.38 349.927 1960.82 351.346 1960.45 352.766L2003.62 371.469C2003.8 370.759 2004.38 370.243 2005.13 370.016ZM1491.89 54.0616C1491.97 53.9003 1492 53.5132 1492.08 53.3518L1292.72 -68.6612C1292.03 -67.5962 1290.78 -67.0145 1289.79 -67.3039L1277.84 -41.7792L1234.99 49.542C1235.7 50.0898 1236.11 50.8959 1235.98 51.8314L1415.98 53.4176L1491.89 54.0616ZM1076.4 -133.599C1076.27 -133.663 1076.14 -133.728 1076.01 -133.792C1074.83 -134.372 1074.42 -136.178 1075.13 -137.63C1075.21 -137.791 1075.28 -137.952 1075.36 -138.114L1033.72 -180.881C1033.35 -180.462 1032.93 -180.268 1032.52 -180.074L1035.16 36.1673C1035.16 36.1673 1035.29 36.2317 1035.37 36.0703L1057.85 -57.2977L1076.4 -133.599ZM1033.62 37.0072L1009.5 -10.5171L931.146 -164.665C930.44 -164.213 929.552 -164.051 928.9 -164.373C928.9 -164.373 928.899 -164.373 928.769 -164.437L854.125 -47.3803C854.881 -46.6068 855.14 -45.4782 854.59 -44.3487L1032.88 37.8466C1033.17 37.5883 1033.33 37.2655 1033.62 37.0072ZM853.681 -47.7993L908.12 -133.002L928.456 -164.792C927.882 -165.275 927.675 -166.178 927.807 -167.113L827.414 -178.639C827.336 -178.477 827.257 -178.316 827.179 -178.155C826.864 -177.509 826.289 -176.993 825.792 -176.638L852.062 -47.7979C852.689 -48.0888 853.159 -48.0569 853.681 -47.7993ZM935.111 -363.236C934.406 -362.783 933.517 -362.621 932.865 -362.943L826.818 -181.735C826.949 -181.67 827.131 -181.38 827.262 -181.316L972.323 -289.434C972.037 -290.176 972.169 -291.111 972.562 -291.918C972.719 -292.241 973.085 -292.66 973.242 -292.983L935.111 -363.236ZM1163.16 -195.444C1163.08 -195.283 1163.08 -195.283 1163 -195.121C1162.93 -194.96 1162.85 -194.799 1162.85 -194.799L1289.46 -72.2711C1290.19 -73.1103 1291.36 -73.5307 1292.41 -73.0155C1292.67 -72.8867 1292.98 -72.5321 1293.24 -72.4033L1394.63 -154.647C1394.4 -155.163 1394.37 -155.775 1394.48 -156.324L1163.16 -195.444ZM1530.07 -72.1887C1529.5 -71.6721 1528.87 -71.3812 1528.06 -71.3805L1495.37 51.5749C1495.5 51.6393 1495.5 51.6393 1495.63 51.7037C1495.89 51.8325 1496.28 52.0257 1496.47 52.3159L1550.3 7.24015L1578.07 -15.8791C1577.78 -16.6207 1577.78 -17.6207 1578.25 -18.5888C1578.33 -18.7501 1578.41 -18.9115 1578.49 -19.0728L1530.07 -72.1887ZM1742.87 43.8454C1742.05 44.8461 1740.96 45.105 1739.91 44.5899C1739.78 44.5255 1739.65 44.461 1739.52 44.3966L1682.49 116.312C1682.86 116.892 1683.14 117.634 1682.96 118.344L1845.68 135.815C1845.75 135.654 1845.83 135.492 1845.91 135.331C1845.99 135.169 1845.99 135.169 1846.07 135.008L1742.87 43.8454ZM1955.65 350.996C1955.96 350.35 1956.33 349.931 1956.83 349.575L1893.59 155.063C1892.97 155.353 1892.29 155.418 1891.64 155.096L1891.51 155.032L1798.73 297.361C1799.35 298.07 1799.69 299.037 1799.35 300.07L1955.65 350.996ZM1794.7 298.977C1794.78 298.816 1794.86 298.654 1794.94 298.493C1794.94 298.493 1794.94 298.493 1795.02 298.332L1592.35 148.872C1591.54 149.872 1590.29 150.454 1589.24 149.939C1589.11 149.874 1588.98 149.81 1588.72 149.681L1494.48 257.465C1494.84 258.045 1495 258.723 1494.94 259.497L1794.7 298.977ZM1490.17 258.34C1490.64 257.372 1491.42 256.758 1492.18 256.532L1494.24 57.2207C1493.9 57.2532 1493.56 57.2858 1493.17 57.0926C1492.91 56.9638 1492.78 56.8994 1492.6 56.6092L1340.89 208.279C1341.26 208.859 1341.33 209.697 1341.07 210.569L1490.17 258.34ZM1337.42 207.765C1338.2 207.152 1339.09 206.99 1339.87 207.376C1340.14 207.505 1340.27 207.569 1340.45 207.86L1492.15 56.1903C1491.92 55.6744 1491.81 55.2229 1491.79 54.6101L1356.21 53.5338L1235.93 52.6055C1235.85 52.7669 1235.82 53.154 1235.74 53.3153C1235.59 53.638 1235.43 53.9607 1235.22 54.0577L1337.42 207.765ZM1231.07 51.6098C1231.15 51.4485 1231.23 51.2871 1231.39 50.9644C1231.46 50.8031 1231.62 50.4804 1231.83 50.3835L1170.18 -24.0744L1079.01 -134.311C1078.44 -133.794 1077.81 -133.503 1077.21 -133.6L1055.01 -41.4898L1035.89 36.3279C1036.02 36.3923 1036.15 36.4567 1036.28 36.5211C1037.19 36.9719 1037.66 38.0037 1037.45 39.1006L1231.07 51.6098Z" fill="white"/>
<path opacity="0.4" d="M-390.675 810.633L-256.292 441.394C-258.227 440.456 -258.979 437.527 -258.278 435.013C-257.476 432.139 -254.74 430.205 -252.413 430.867C-250.087 431.529 -248.753 434.623 -249.555 437.497C-249.755 438.215 -249.956 438.933 -250.447 439.569L-156.699 555.825C-155.425 554.636 -154.062 554.249 -152.608 554.663C-150.282 555.325 -149.138 557.977 -149.649 560.934L216.693 669.889C217.786 667.098 220.031 665.799 222.358 666.461C224.393 667.04 225.446 668.891 225.427 671.212L664.148 665.846C664.248 665.486 664.248 665.486 664.348 665.127C665.15 662.254 667.887 660.319 670.213 660.981C672.539 661.643 673.873 664.737 673.072 667.611L935.119 770.135C936.111 767.704 938.357 766.404 940.683 767.067C943.01 767.729 944.344 770.823 943.542 773.697C943.442 774.056 943.342 774.415 943.242 774.774L1050.4 856.463C1051.48 854.832 1053.63 853.892 1055.37 854.389C1057.41 854.968 1058.94 857.344 1058.53 859.941L1365.98 913.355C1366.78 910.482 1369.52 908.547 1371.84 909.209C1374.17 909.872 1375.5 912.965 1374.7 915.839C1374.6 916.198 1374.6 916.198 1374.5 916.557L1595.58 1050.07C1596.76 1048.08 1598.9 1047.14 1600.65 1047.63C1602.68 1048.21 1603.93 1050.51 1603.81 1053.19L1682.89 1065.62C1683.69 1062.75 1686.43 1060.81 1688.75 1061.47C1691.08 1062.14 1692.22 1064.79 1691.71 1067.74L1898.12 1132.33C1899.11 1129.89 1901.45 1128.24 1903.78 1128.9C1906.11 1129.56 1907.44 1132.65 1906.64 1135.53C1906.34 1136.61 1905.75 1137.6 1904.87 1138.51L2071.41 1458.5C2072.59 1457.67 2073.56 1457.56 2074.72 1457.89C2077.05 1458.56 2078.38 1461.65 2077.58 1464.52C2076.78 1467.4 2074.04 1469.33 2071.72 1468.67C2069.39 1468.01 2068.25 1465.35 2068.66 1462.76L1972.69 1436.6C1971.6 1439.39 1969.25 1441.05 1966.93 1440.38C1964.6 1439.72 1963.46 1437.07 1963.87 1434.47L1878.05 1414.69C1876.95 1417.48 1874.61 1419.14 1872.28 1418.48C1870.25 1417.9 1869 1415.61 1869.12 1412.93L1564.88 1371.67C1564.07 1374.54 1561.34 1376.48 1559.01 1375.81C1557.27 1375.32 1555.92 1373.38 1555.94 1371.06L989.941 1399.51C989.841 1399.87 989.741 1400.23 989.741 1400.23C988.939 1403.11 986.203 1405.04 983.876 1404.38C981.841 1403.8 980.597 1401.51 980.717 1398.83L689.946 1361.02C689.145 1363.89 686.408 1365.82 684.082 1365.16C681.755 1364.5 680.421 1361.41 681.223 1358.53C681.423 1357.81 681.524 1357.45 682.015 1356.82L441.897 1108.16C440.624 1109.35 439.161 1110.1 437.416 1109.6C435.671 1109.1 434.618 1107.25 434.247 1105.21L73.5273 1147.13C73.4271 1147.49 73.3269 1147.85 73.2267 1148.21C72.4251 1151.08 69.6883 1153.01 67.362 1152.35C65.0358 1151.69 63.8923 1149.04 64.3029 1146.44L-291.89 1055.11C-292.982 1057.9 -295.328 1059.56 -297.655 1058.9C-299.981 1058.23 -301.315 1055.14 -300.513 1052.27C-300.112 1050.83 -299.521 1049.83 -298.348 1049.01L-390.272 820.441C-391.345 820.911 -392.318 821.022 -393.19 820.773C-395.516 820.111 -396.85 817.017 -396.049 814.144C-395.738 811.906 -393.002 809.971 -390.675 810.633ZM2070.92 1459.14L1904.37 1139.15C1904.37 1139.15 1904.37 1139.15 1903.98 1139.42L1968.38 1429.55C1969.06 1429.36 1969.74 1429.17 1970.61 1429.41C1972.94 1430.08 1974.08 1432.73 1973.67 1435.33L2069.64 1461.49C2069.84 1460.77 2070.33 1460.13 2070.92 1459.14ZM986.882 1393.6C987.173 1393.68 987.464 1393.77 987.755 1393.85L1099.71 1206.27L1125.04 1163.86C1123.79 1162.72 1123.23 1160.24 1123.83 1158.08C1123.93 1157.72 1123.93 1157.72 1124.03 1157.36L923.356 1023.85C922.765 1024.84 921.983 1025.4 921.201 1025.95L984.646 1393.74C985.619 1393.63 986.301 1393.44 986.882 1393.6ZM-7.09091 741.878L84.081 806.609C85.2637 804.619 87.309 804.038 89.0536 804.535C89.926 804.783 90.4072 805.308 90.8886 805.833L217.035 675.414C216.845 674.972 216.654 674.53 216.464 674.088L-6.68022 739.281C-6.58983 740.082 -6.69012 740.442 -6.89051 741.16C-6.89051 741.16 -6.99071 741.519 -7.09091 741.878ZM67.2499 1142.63L-10.5191 745.167C-11.2008 745.361 -11.8827 745.554 -12.755 745.306C-14.2089 744.892 -15.3621 743.401 -15.6431 742.158L-91.4574 768.65L-189.097 802.499C-189.007 803.3 -189.207 804.019 -189.408 804.737C-189.608 805.456 -190.099 806.091 -190.3 806.81L66.5584 1143.98C66.468 1143.18 66.8589 1142.9 67.2499 1142.63ZM-151.523 564.277C-152.405 565.189 -153.478 565.659 -154.742 565.687L-193.039 797.5C-191.585 797.914 -190.431 799.405 -190.151 800.648L-16.4056 740.39C-16.496 739.588 -16.2955 738.87 -16.0951 738.152C-15.8947 737.433 -15.6944 736.715 -15.2032 736.079L-116.724 608.305L-151.523 564.277ZM91.9125 811.165C91.7121 811.883 91.6119 812.242 91.5117 812.602L435.64 1101.34C436.622 1100.07 438.477 1099.05 439.931 1099.46L483.494 934.285L501.759 865.429C499.824 864.491 498.771 862.64 499.181 860.043L230.71 827.806L91.9125 811.165ZM1556.84 1367.83L1287.42 1080.2C1286.15 1081.39 1284.69 1082.13 1282.94 1081.64C1281.78 1081.31 1280.82 1080.26 1280.24 1078.93L1132.77 1157.53C1132.86 1158.33 1132.85 1159.49 1132.55 1160.57C1132.55 1160.57 1132.55 1160.57 1132.45 1160.92L1556.45 1368.11C1556.55 1367.75 1556.55 1367.75 1556.84 1367.83ZM923.706 1016.97C924.568 1018.38 924.749 1019.98 924.248 1021.78C924.148 1022.13 924.148 1022.13 924.048 1022.49L1124.72 1156.01C1125.21 1155.37 1125.7 1154.74 1126.48 1154.19L1108.54 1081.23L1054.9 863.948C1054.22 864.142 1053.25 864.253 1052.67 864.087C1052.08 863.922 1051.5 863.756 1051.02 863.231L1049.16 865.415L923.706 1016.97ZM1057.34 863.091C1056.85 863.727 1056.46 864.003 1056.06 864.28L1127.75 1154.16C1128.43 1153.96 1129.4 1153.85 1129.98 1154.02C1131.15 1154.35 1132.11 1155.4 1132.68 1156.73L1280.15 1078.13C1280.06 1077.33 1280.07 1076.17 1280.37 1075.09C1280.57 1074.37 1280.67 1074.01 1281.06 1073.74L1234.6 1029.88L1057.34 863.091ZM1598.22 1058.58L1597.93 1058.49C1596.19 1058 1594.85 1056.06 1594.77 1054.1L1289.3 1076.86C1289.2 1077.22 1289.1 1077.57 1289 1077.93C1288.8 1078.65 1288.6 1079.37 1288.2 1079.65L1542.51 1350.57L1557.54 1366.48C1558.42 1365.56 1559.49 1365.09 1560.46 1364.98L1583.01 1180.64L1598.22 1058.58ZM916.016 1018.66C916.808 1016.94 918.472 1015.48 920.126 1015.17L939.041 777.455C938.75 777.373 938.75 777.373 938.459 777.29C936.715 776.793 935.561 775.302 935.481 773.34L508.124 859.487C508.024 859.846 508.215 860.288 508.015 861.007L513.73 863.022L916.016 1018.66ZM86.6292 815.476C86.3384 815.394 86.0478 815.311 86.0478 815.311C83.7215 814.649 82.3876 811.555 83.1891 808.681C83.2893 808.322 83.3895 807.963 83.4897 807.603L69.1 797.303L-7.58199 742.514C-8.07316 743.15 -8.95534 744.062 -9.63709 744.255L68.1318 1141.72L68.4226 1141.8L85.4802 836.474L86.6292 815.476ZM-198.522 802.53C-198.422 802.171 -198.322 801.812 -198.222 801.452C-197.52 798.938 -195.465 797.197 -193.229 797.058L-164.046 620.422L-154.932 565.245C-155.514 565.08 -156.286 564.472 -156.767 563.947L-313.357 732.613L-387.387 812.345C-387.005 813.229 -386.624 814.113 -386.534 814.914L-299.235 809.139L-198.522 802.53ZM-150.641 563.365L-57.9659 680.091L-14.0301 735.25C-12.757 734.062 -11.3936 733.674 -9.93966 734.088C-8.48576 734.502 -7.33239 735.994 -6.86084 737.679L216.283 672.486C216.383 672.127 216.293 671.325 216.393 670.966L-149.85 561.652C-150.05 562.37 -150.25 563.089 -150.641 563.365ZM224.715 674.887C223.533 676.876 221.387 677.816 219.642 677.32C218.77 677.071 218.289 676.547 217.808 676.022L91.6609 806.44C92.0421 807.324 92.3231 808.568 92.3133 809.728L422.418 849.431L498.609 858.717C498.71 858.358 498.81 857.998 498.81 857.998L373.595 774.658L224.715 674.887ZM667.598 671.481C667.017 671.315 666.435 671.149 665.953 670.625L589.219 760.054L506.891 856.034C507.372 856.559 507.462 857.36 507.553 858.161L934.909 772.014C935.009 771.655 934.919 770.854 935.019 770.494L672.971 667.97C672.17 670.844 669.924 672.143 667.598 671.481ZM1057.93 862.096L1281.37 1072.66C1282.74 1071.11 1284.2 1070.37 1285.95 1070.86C1286.24 1070.94 1286.53 1071.03 1286.53 1071.03L1367.19 919.129C1365.94 917.997 1365.47 916.312 1365.68 914.433L1058.33 860.66C1058.52 861.102 1058.32 861.82 1057.93 862.096ZM1599.2 1058.46L1561.73 1364.96L1562.02 1365.04C1562.02 1365.04 1562.02 1365.04 1562.31 1365.12L1684.98 1071.64C1683.33 1070.79 1682.67 1068.66 1682.98 1066.42L1603.9 1053.99C1603.1 1056.86 1601.14 1058.24 1599.2 1058.46ZM1690.23 1070.81L1830.38 1330.17L1872.37 1408.04C1873.15 1407.48 1873.83 1407.29 1874.42 1407.45L1901.36 1139.84C1901.07 1139.76 1901.07 1139.76 1900.77 1139.67C1898.45 1139.01 1897.31 1136.36 1897.82 1133.4L1691.41 1068.82C1691.21 1069.54 1690.91 1070.62 1690.23 1070.81ZM1967.59 1430.11L1903.2 1139.98C1902.91 1139.89 1902.81 1140.25 1902.52 1140.17L1886.84 1294.29L1875.58 1407.79C1875.87 1407.87 1875.87 1407.87 1876.16 1407.95C1878.49 1408.61 1879.63 1411.27 1879.22 1413.86L1965.04 1433.64C1965.54 1431.85 1966.52 1430.58 1967.59 1430.11ZM915.314 1021.17C915.415 1020.81 915.224 1020.37 915.324 1020.01L749.527 956.134L506.932 862.637C506.04 864.71 504.085 866.092 501.95 865.871L440.412 1099.98C441.866 1100.4 442.919 1102.25 443.1 1103.85L897.508 1024.24L915.314 1021.17ZM65.1949 1144.37L6.38586 1067.14L-191.373 807.28C-192.646 808.468 -194.009 808.855 -195.463 808.441C-195.463 808.441 -195.463 808.441 -195.754 808.359L-293.686 1049.17C-292.041 1050.03 -291.479 1052.51 -291.79 1054.75L64.4031 1146.08C64.6035 1145.36 65.0947 1144.73 65.1949 1144.37ZM-294.849 1048.84C-294.558 1048.92 -294.558 1048.92 -294.849 1048.84L-196.626 808.11C-197.98 807.337 -198.742 805.569 -198.632 804.05L-387.325 816.627C-387.426 816.986 -387.526 817.346 -387.626 817.705C-388.027 819.142 -388.618 820.136 -389.791 820.966L-297.867 1049.53C-296.694 1048.7 -295.721 1048.59 -294.849 1048.84ZM-251.229 440.122C-252.502 441.31 -253.865 441.698 -255.319 441.284L-389.703 810.522C-389.412 810.605 -388.931 811.13 -388.64 811.213L-157.73 562.898C-158.302 561.572 -158.773 559.887 -158.272 558.091C-158.072 557.372 -157.872 556.654 -157.381 556.018L-251.229 440.122ZM225.417 672.372C225.317 672.732 225.317 672.732 225.216 673.091C225.116 673.45 225.016 673.809 225.016 673.809L366.556 768.389L499.401 857.003C500.584 855.014 502.729 854.074 504.474 854.571C505.055 854.736 505.637 854.902 506.118 855.426L665.181 670.017C664.8 669.133 664.419 668.249 664.429 667.089L225.417 672.372ZM943.041 775.493C942.059 776.764 940.886 777.593 939.622 777.621L920.998 1015.42C921.289 1015.51 921.289 1015.51 921.58 1015.59C922.161 1015.75 922.743 1015.92 923.224 1016.44L1050.44 863.066C1049.58 861.657 1049.4 860.055 1049.9 858.259C1050 857.899 1050.1 857.54 1050.2 857.181L943.041 775.493ZM1374.2 917.635C1373.02 919.625 1370.87 920.565 1369.13 920.068C1368.84 919.985 1368.55 919.902 1368.55 919.902L1290.85 1065.67L1287.69 1071.36C1288.75 1072.05 1289.33 1073.38 1289.51 1074.98L1594.98 1052.22C1595.08 1051.86 1595.18 1051.5 1595.28 1051.14C1595.38 1050.78 1595.38 1050.78 1595.48 1050.43L1374.2 917.635ZM1870.11 1411.66C1870.41 1410.58 1871 1409.58 1871.88 1408.67L1689.74 1071.45C1688.56 1072.28 1687.59 1072.39 1686.14 1071.97C1686.14 1071.97 1686.14 1071.97 1685.85 1071.89L1656.59 1141.88L1563.18 1365.37C1564.53 1366.14 1565.49 1368.35 1565.28 1370.23L1870.11 1411.66ZM1555.85 1370.26C1555.95 1369.9 1556.05 1369.54 1556.05 1369.54C1556.05 1369.54 1556.05 1369.54 1556.15 1369.18L1132.15 1162C1130.87 1164.35 1128.72 1165.29 1126.69 1164.71C1126.4 1164.63 1126.1 1164.55 1125.81 1164.46L988.427 1394.82C989.389 1395.87 989.67 1397.11 989.951 1398.35L1555.85 1370.26ZM980.917 1398.11C981.418 1396.31 982.501 1394.68 983.865 1394.29L980.803 1377.14L920.128 1026.42C919.446 1026.61 918.865 1026.45 918.283 1026.28C917.702 1026.12 917.411 1026.03 917.22 1025.59L688.822 1356.04C689.785 1357.09 689.966 1358.69 689.856 1360.21L980.917 1398.11ZM682.406 1356.54C683.679 1355.35 685.142 1354.61 686.887 1355.1C687.469 1355.27 687.76 1355.35 687.95 1355.79L916.348 1025.34C915.576 1024.73 915.295 1023.49 915.204 1022.69L845.634 1034.68L443.09 1105.01C442.99 1105.37 443.08 1106.17 442.98 1106.53C442.78 1107.25 442.679 1107.61 442.188 1108.24L682.406 1356.54ZM434.056 1104.77C434.156 1104.41 434.257 1104.05 434.357 1103.69C434.457 1103.33 434.557 1102.97 434.758 1102.25L90.6293 813.513C89.7471 814.425 88.5744 815.255 87.6019 815.366L69.2951 1142.05C69.5859 1142.13 69.8765 1142.21 69.8765 1142.21C71.6211 1142.71 72.6744 1144.56 73.0457 1146.6L434.056 1104.77Z" fill="white"/>
<g clip-path="url(#clip0)">
<g opacity="0.5">
<g opacity="0.11">
<path opacity="0.11" d="M971.213 951.879C964.205 949.143 955.515 949.143 948.788 951.879L814.518 1005.81C812.275 1006.59 812.275 1008.74 814.518 1009.72L949.909 1064.24C956.076 1066.78 963.644 1066.78 969.811 1064.24L1105.48 1009.72C1107.73 1008.94 1107.73 1006.79 1105.48 1005.81L971.213 951.879Z" fill="url(#paint0_linear)"/>
</g>
<g opacity="0.11">
<path opacity="0.11" d="M971.213 936.05C964.205 933.315 955.515 933.315 948.788 936.05L814.518 989.985C812.275 990.766 812.275 992.916 814.518 993.893L949.909 1048.41C956.076 1050.95 963.644 1050.95 969.811 1048.41L1105.48 993.893C1107.73 993.111 1107.73 990.962 1105.48 989.985L971.213 936.05Z" fill="url(#paint1_linear)"/>
</g>
<g opacity="0.11">
<path opacity="0.11" d="M971.213 920.417C964.205 917.682 955.515 917.682 948.788 920.417L814.518 974.351C812.275 975.133 812.275 977.283 814.518 978.26L949.909 1032.78C956.076 1035.32 963.644 1035.32 969.811 1032.78L1105.48 978.26C1107.73 977.478 1107.73 975.329 1105.48 974.351L971.213 920.417Z" fill="url(#paint2_linear)"/>
</g>
<g opacity="0.11">
<path opacity="0.11" d="M971.213 904.589C964.205 901.853 955.515 901.853 948.788 904.589L814.518 958.523C812.275 959.305 812.275 961.454 814.518 962.431L949.909 1016.95C956.076 1019.49 963.644 1019.49 969.811 1016.95L1105.48 962.431C1107.73 961.65 1107.73 959.5 1105.48 958.523L971.213 904.589Z" fill="url(#paint3_linear)"/>
</g>
<path opacity="0.2" d="M1105.48 958.523L971.213 904.589C964.205 901.853 955.515 901.853 948.788 904.589L814.518 958.523C813.397 958.914 812.836 959.696 812.836 960.477V1007.77C812.836 1008.55 813.397 1009.33 814.518 1009.72L949.909 1064.24C956.076 1066.78 963.644 1066.78 969.811 1064.24L1105.48 1009.72C1106.6 1009.33 1107.16 1008.55 1107.16 1007.77V960.477C1106.88 959.696 1106.6 958.914 1105.48 958.523Z" fill="url(#paint4_linear)"/>
</g>
<g opacity="0.11">
<path opacity="0.11" d="M973.734 849.873C965.325 846.551 954.953 846.551 946.544 849.873L784.523 914.946C782 915.923 782 918.463 784.523 919.636L947.665 985.295C954.953 988.226 964.204 988.226 971.772 985.295L1135.19 919.636C1137.72 918.658 1137.72 916.118 1135.19 914.946L973.734 849.873Z" fill="url(#paint5_linear)"/>
</g>
<g opacity="0.11">
<path opacity="0.11" d="M973.734 830.918C965.325 827.596 954.953 827.596 946.544 830.918L784.523 895.991C782 896.968 782 899.508 784.523 900.681L947.665 966.34C954.953 969.271 964.204 969.271 971.772 966.34L1135.19 900.681C1137.72 899.703 1137.72 897.163 1135.19 895.991L973.734 830.918Z" fill="url(#paint6_linear)"/>
</g>
<g opacity="0.11">
<path opacity="0.11" d="M973.734 811.963C965.325 808.641 954.953 808.641 946.544 811.963L784.523 877.036C782 878.013 782 880.553 784.523 881.725L947.665 947.384C954.953 950.316 964.204 950.316 971.772 947.384L1135.19 881.725C1137.72 880.748 1137.72 878.208 1135.19 877.036L973.734 811.963Z" fill="url(#paint7_linear)"/>
</g>
<g opacity="0.11">
<path opacity="0.11" d="M973.734 792.812C965.325 789.49 954.953 789.49 946.544 792.812L784.523 857.885C782 858.862 782 861.402 784.523 862.575L947.665 928.234C954.953 931.165 964.204 931.165 971.772 928.234L1135.19 862.575C1137.72 861.598 1137.72 859.057 1135.19 857.885L973.734 792.812Z" fill="url(#paint8_linear)"/>
</g>
<path opacity="0.5" d="M1135.19 857.885L973.734 792.812C965.325 789.49 954.953 789.49 946.544 792.812L784.523 857.885C783.121 858.471 782.561 859.253 782.561 860.23V917.291C782.561 918.268 783.121 919.049 784.523 919.636L947.665 985.295C954.953 988.226 964.203 988.226 971.772 985.295L1135.19 919.636C1136.6 919.049 1137.16 918.268 1137.16 917.291V860.23C1137.16 859.253 1136.6 858.471 1135.19 857.885Z" fill="url(#paint9_linear)"/>
<g opacity="0.11">
<path opacity="0.11" d="M976.538 746.304C966.447 742.2 953.833 742.2 943.461 746.304L747.242 825.055C744.159 826.228 744.159 829.354 747.242 830.722L945.143 910.451C954.113 914.164 965.326 914.164 974.296 910.451L1172.48 830.918C1175.56 829.745 1175.56 826.619 1172.48 825.251L976.538 746.304Z" fill="url(#paint10_linear)"/>
</g>
<g opacity="0.11">
<path opacity="0.11" d="M976.538 723.245C966.447 719.141 953.833 719.141 943.461 723.245L747.242 801.996C744.159 803.169 744.159 806.296 747.242 807.663L945.143 887.392C954.113 891.105 965.326 891.105 974.296 887.392L1172.48 807.859C1175.56 806.686 1175.56 803.56 1172.48 802.192L976.538 723.245Z" fill="url(#paint11_linear)"/>
</g>
<g opacity="0.11">
<path opacity="0.11" d="M976.538 700.186C966.447 696.082 953.833 696.082 943.461 700.186L747.242 778.938C744.159 780.11 744.159 783.237 747.242 784.605L945.143 864.334C954.113 868.046 965.326 868.046 974.296 864.334L1172.48 784.8C1175.56 783.628 1175.56 780.501 1172.48 779.133L976.538 700.186Z" fill="url(#paint12_linear)"/>
</g>
<g opacity="0.11">
<path opacity="0.11" d="M976.538 677.127C966.447 673.023 953.833 673.023 943.461 677.127L747.242 755.879C744.159 757.051 744.159 760.178 747.242 761.546L945.143 841.274C954.113 844.987 965.326 844.987 974.296 841.274L1172.48 761.741C1175.56 760.569 1175.56 757.442 1172.48 756.074L976.538 677.127Z" fill="url(#paint13_linear)"/>
</g>
<path opacity="0.5" d="M1172.48 755.878L976.538 677.126C966.447 673.023 953.833 673.023 943.462 677.126L747.243 755.878C745.841 756.464 745 757.637 745 758.614V827.79C745 828.963 745.841 829.94 747.243 830.526L945.143 910.255C954.113 913.968 965.326 913.968 974.296 910.255L1172.48 830.722C1174.16 830.135 1174.72 828.963 1174.72 827.986V758.809C1175 757.637 1174.16 756.66 1172.48 755.878Z" fill="url(#paint14_linear)"/>
<g opacity="0.11">
<path opacity="0.11" d="M976.538 677.127C966.447 673.023 953.833 673.023 943.461 677.127L747.242 755.879C744.159 757.051 744.159 760.178 747.242 761.546L945.143 841.274C954.113 844.987 965.326 844.987 974.296 841.274L1172.48 761.741C1175.56 760.569 1175.56 757.442 1172.48 756.074L976.538 677.127Z" fill="url(#paint15_linear)"/>
</g>
<path d="M1172.48 758.419L974.296 837.953C965.326 841.666 954.113 841.666 945.143 837.953L747.243 758.224C746.402 757.833 745.841 757.442 745.561 757.051C744.439 758.419 745 760.569 747.243 761.35L945.143 841.079C954.113 844.792 965.326 844.792 974.296 841.079L1172.48 761.546C1174.72 760.569 1175.28 758.615 1174.16 757.247C1173.88 757.638 1173.32 758.028 1172.48 758.419Z" fill="url(#paint16_linear)"/>
</g>
<defs>
<linearGradient id="paint0_linear" x1="812.89" y1="1007.92" x2="1107" y2="1007.92" gradientUnits="userSpaceOnUse">
<stop stop-color="#781B0E"/>
<stop offset="0.317" stop-color="#8F1B1F"/>
<stop offset="0.4751" stop-color="#A31B1F"/>
<stop offset="0.7381" stop-color="#D4002F"/>
<stop offset="1" stop-color="#AA0038"/>
</linearGradient>
<linearGradient id="paint1_linear" x1="812.89" y1="992.147" x2="1107" y2="992.147" gradientUnits="userSpaceOnUse">
<stop stop-color="#781B0E"/>
<stop offset="0.317" stop-color="#8F1B1F"/>
<stop offset="0.4751" stop-color="#A31B1F"/>
<stop offset="0.7381" stop-color="#D4002F"/>
<stop offset="1" stop-color="#AA0038"/>
</linearGradient>
<linearGradient id="paint2_linear" x1="812.89" y1="976.375" x2="1107" y2="976.375" gradientUnits="userSpaceOnUse">
<stop stop-color="#781B0E"/>
<stop offset="0.317" stop-color="#8F1B1F"/>
<stop offset="0.4751" stop-color="#A31B1F"/>
<stop offset="0.7381" stop-color="#D4002F"/>
<stop offset="1" stop-color="#AA0038"/>
</linearGradient>
<linearGradient id="paint3_linear" x1="812.89" y1="960.602" x2="1107" y2="960.602" gradientUnits="userSpaceOnUse">
<stop stop-color="#781B0E"/>
<stop offset="0.317" stop-color="#8F1B1F"/>
<stop offset="0.4751" stop-color="#A31B1F"/>
<stop offset="0.7381" stop-color="#D4002F"/>
<stop offset="1" stop-color="#AA0038"/>
</linearGradient>
<linearGradient id="paint4_linear" x1="812.891" y1="984.261" x2="1107" y2="984.261" gradientUnits="userSpaceOnUse">
<stop stop-color="#781B0E"/>
<stop offset="0.317" stop-color="#8F1B1F"/>
<stop offset="0.4751" stop-color="#A31B1F"/>
<stop offset="0.7381" stop-color="#D4002F"/>
<stop offset="1" stop-color="#AA0038"/>
</linearGradient>
<linearGradient id="paint5_linear" x1="782.678" y1="917.409" x2="1137.21" y2="917.409" gradientUnits="userSpaceOnUse">
<stop stop-color="#781B0E"/>
<stop offset="0.317" stop-color="#8F1B1F"/>
<stop offset="0.4751" stop-color="#A31B1F"/>
<stop offset="0.7381" stop-color="#D4002F"/>
<stop offset="1" stop-color="#AA0038"/>
</linearGradient>
<linearGradient id="paint6_linear" x1="782.678" y1="898.397" x2="1137.21" y2="898.397" gradientUnits="userSpaceOnUse">
<stop stop-color="#781B0E"/>
<stop offset="0.317" stop-color="#8F1B1F"/>
<stop offset="0.4751" stop-color="#A31B1F"/>
<stop offset="0.7381" stop-color="#D4002F"/>
<stop offset="1" stop-color="#AA0038"/>
</linearGradient>
<linearGradient id="paint7_linear" x1="782.678" y1="879.384" x2="1137.21" y2="879.384" gradientUnits="userSpaceOnUse">
<stop stop-color="#781B0E"/>
<stop offset="0.317" stop-color="#8F1B1F"/>
<stop offset="0.4751" stop-color="#A31B1F"/>
<stop offset="0.7381" stop-color="#D4002F"/>
<stop offset="1" stop-color="#AA0038"/>
</linearGradient>
<linearGradient id="paint8_linear" x1="782.678" y1="860.371" x2="1137.21" y2="860.371" gradientUnits="userSpaceOnUse">
<stop stop-color="#781B0E"/>
<stop offset="0.317" stop-color="#8F1B1F"/>
<stop offset="0.4751" stop-color="#A31B1F"/>
<stop offset="0.7381" stop-color="#D4002F"/>
<stop offset="1" stop-color="#AA0038"/>
</linearGradient>
<linearGradient id="paint9_linear" x1="782.678" y1="888.89" x2="1137.21" y2="888.89" gradientUnits="userSpaceOnUse">
<stop stop-color="#781B0E"/>
<stop offset="0.317" stop-color="#8F1B1F"/>
<stop offset="0.4751" stop-color="#A31B1F"/>
<stop offset="0.7381" stop-color="#D4002F"/>
<stop offset="1" stop-color="#AA0038"/>
</linearGradient>
<linearGradient id="paint10_linear" x1="745" y1="828.1" x2="1174.89" y2="828.1" gradientUnits="userSpaceOnUse">
<stop stop-color="#781B0E"/>
<stop offset="0.317" stop-color="#8F1B1F"/>
<stop offset="0.4751" stop-color="#A31B1F"/>
<stop offset="0.7381" stop-color="#D4002F"/>
<stop offset="1" stop-color="#AA0038"/>
</linearGradient>
<linearGradient id="paint11_linear" x1="745" y1="805.046" x2="1174.89" y2="805.046" gradientUnits="userSpaceOnUse">
<stop stop-color="#781B0E"/>
<stop offset="0.317" stop-color="#8F1B1F"/>
<stop offset="0.4751" stop-color="#A31B1F"/>
<stop offset="0.7381" stop-color="#D4002F"/>
<stop offset="1" stop-color="#AA0038"/>
</linearGradient>
<linearGradient id="paint12_linear" x1="745" y1="781.993" x2="1174.89" y2="781.993" gradientUnits="userSpaceOnUse">
<stop stop-color="#781B0E"/>
<stop offset="0.317" stop-color="#8F1B1F"/>
<stop offset="0.4751" stop-color="#A31B1F"/>
<stop offset="0.7381" stop-color="#D4002F"/>
<stop offset="1" stop-color="#AA0038"/>
</linearGradient>
<linearGradient id="paint13_linear" x1="745" y1="758.938" x2="1174.89" y2="758.938" gradientUnits="userSpaceOnUse">
<stop stop-color="#781B0E"/>
<stop offset="0.317" stop-color="#8F1B1F"/>
<stop offset="0.4751" stop-color="#A31B1F"/>
<stop offset="0.7381" stop-color="#D4002F"/>
<stop offset="1" stop-color="#AA0038"/>
</linearGradient>
<linearGradient id="paint14_linear" x1="745" y1="793.519" x2="1174.89" y2="793.519" gradientUnits="userSpaceOnUse">
<stop stop-color="#781B0E"/>
<stop offset="0.317" stop-color="#8F1B1F"/>
<stop offset="0.4751" stop-color="#A31B1F"/>
<stop offset="0.7381" stop-color="#D4002F"/>
<stop offset="1" stop-color="#AA0038"/>
</linearGradient>
<linearGradient id="paint15_linear" x1="745" y1="758.938" x2="1174.89" y2="758.938" gradientUnits="userSpaceOnUse">
<stop stop-color="#781B0E"/>
<stop offset="0.317" stop-color="#8F1B1F"/>
<stop offset="0.4751" stop-color="#A31B1F"/>
<stop offset="0.7381" stop-color="#D4002F"/>
<stop offset="1" stop-color="#AA0038"/>
</linearGradient>
<linearGradient id="paint16_linear" x1="745.003" y1="800.49" x2="1174.89" y2="800.49" gradientUnits="userSpaceOnUse">
<stop stop-color="#781B0E"/>
<stop offset="0.317" stop-color="#8F1B1F"/>
<stop offset="0.4751" stop-color="#A31B1F"/>
<stop offset="0.7381" stop-color="#D4002F"/>
<stop offset="1" stop-color="#AA0038"/>
</linearGradient>
<clipPath id="clip0">
<rect width="430" height="392" fill="white" transform="translate(745 674)"/>
</clipPath>
</defs>
</svg>
