<svg width="1920" height="1080" viewBox="0 0 1920 1080" fill="none" xmlns="http://www.w3.org/2000/svg">
<path d="M1920 6.10352e-05H0V1080H1920V6.10352e-05Z" fill="#F6F6F8"/>
<path opacity="0.3" d="M2199.36 725.633L2064.98 356.395C2066.91 355.456 2067.66 352.528 2066.96 350.013C2066.16 347.14 2063.42 345.205 2061.1 345.867C2058.77 346.529 2057.44 349.623 2058.24 352.497C2058.44 353.215 2058.64 353.934 2059.13 354.569L1965.38 470.825C1964.11 469.637 1962.75 469.249 1961.29 469.663C1958.97 470.326 1957.82 472.977 1958.33 475.934L1591.99 584.889C1590.9 582.098 1588.65 580.799 1586.33 581.461C1584.29 582.041 1583.24 583.891 1583.26 586.212L1144.54 580.846C1144.44 580.486 1144.44 580.486 1144.34 580.127C1143.53 577.254 1140.8 575.319 1138.47 575.981C1136.14 576.643 1134.81 579.737 1135.61 582.611L873.564 685.135C872.572 682.704 870.327 681.405 868 682.067C865.674 682.729 864.34 685.823 865.141 688.697C865.242 689.056 865.342 689.415 865.442 689.774L758.286 771.463C757.203 769.832 755.057 768.892 753.313 769.389C751.277 769.969 749.743 772.344 750.153 774.941L442.706 828.356C441.904 825.482 439.168 823.547 436.841 824.209C434.515 824.872 433.181 827.966 433.982 830.839C434.083 831.198 434.083 831.198 434.183 831.558L213.107 965.067C211.924 963.077 209.779 962.137 208.034 962.634C205.999 963.213 204.755 965.506 204.875 968.186L125.795 980.62C124.993 977.746 122.257 975.812 119.93 976.474C117.604 977.136 116.461 979.788 116.971 982.745L-89.4329 1047.33C-90.4251 1044.89 -92.7709 1043.24 -95.0971 1043.9C-97.4234 1044.56 -98.7575 1047.65 -97.9559 1050.53C-97.6553 1051.61 -97.064 1052.6 -96.1818 1053.51L-262.729 1373.5C-263.902 1372.67 -264.875 1372.56 -266.038 1372.89C-268.364 1373.56 -269.698 1376.65 -268.897 1379.52C-268.095 1382.4 -265.358 1384.33 -263.032 1383.67C-260.706 1383.01 -259.562 1380.35 -259.973 1377.76L-164.006 1351.6C-162.914 1354.39 -160.568 1356.05 -158.242 1355.38C-155.915 1354.72 -154.772 1352.07 -155.182 1349.47L-69.3633 1329.69C-68.271 1332.48 -65.9251 1334.14 -63.5989 1333.48C-61.5634 1332.9 -60.3197 1330.61 -60.4395 1327.93L243.807 1286.67C244.609 1289.54 247.346 1291.48 249.672 1290.81C251.417 1290.32 252.761 1288.38 252.741 1286.06L818.742 1314.51C818.842 1314.87 818.943 1315.23 818.943 1315.23C819.744 1318.11 822.481 1320.04 824.807 1319.38C826.843 1318.8 828.086 1316.51 827.966 1313.83L1118.74 1276.02C1119.54 1278.89 1122.28 1280.82 1124.6 1280.16C1126.93 1279.5 1128.26 1276.41 1127.46 1273.53C1127.26 1272.81 1127.16 1272.45 1126.67 1271.82L1366.79 1023.16C1368.06 1024.35 1369.52 1025.1 1371.27 1024.6C1373.01 1024.1 1374.07 1022.25 1374.44 1020.21L1735.16 1062.13C1735.26 1062.49 1735.36 1062.85 1735.46 1063.21C1736.26 1066.08 1739 1068.01 1741.32 1067.35C1743.65 1066.69 1744.79 1064.04 1744.38 1061.44L2100.57 970.109C2101.67 972.9 2104.01 974.559 2106.34 973.896C2108.66 973.234 2110 970.14 2109.2 967.267C2108.8 965.83 2108.2 964.835 2107.03 964.006L2198.96 735.441C2200.03 735.911 2201 736.022 2201.87 735.774C2204.2 735.111 2205.53 732.017 2204.73 729.144C2204.42 726.906 2201.69 724.971 2199.36 725.633ZM-262.238 1374.14L-95.6906 1054.15C-95.6906 1054.15 -95.6906 1054.15 -95.2996 1054.42L-159.693 1344.55C-160.375 1344.36 -161.057 1344.17 -161.929 1344.41C-164.255 1345.08 -165.399 1347.73 -164.988 1350.33L-260.955 1376.49C-261.156 1375.77 -261.647 1375.13 -262.238 1374.14ZM821.801 1308.6C821.51 1308.68 821.22 1308.77 820.929 1308.85L708.97 1121.27L683.642 1078.86C684.895 1077.72 685.457 1075.24 684.856 1073.08C684.756 1072.72 684.756 1072.72 684.655 1072.36L885.328 938.848C885.919 939.843 886.701 940.396 887.483 940.949L824.037 1308.74C823.064 1308.63 822.383 1308.44 821.801 1308.6ZM1815.77 656.878L1724.6 721.609C1723.42 719.619 1721.37 719.038 1719.63 719.535C1718.76 719.783 1718.28 720.308 1717.8 720.833L1591.65 590.414C1591.84 589.972 1592.03 589.53 1592.22 589.088L1815.36 654.281C1815.27 655.083 1815.37 655.442 1815.57 656.16C1815.57 656.16 1815.67 656.519 1815.77 656.878ZM1741.43 1057.63L1819.2 660.167C1819.88 660.361 1820.57 660.555 1821.44 660.306C1822.89 659.892 1824.05 658.401 1824.33 657.158L1900.14 683.65L1997.78 717.499C1997.69 718.301 1997.89 719.019 1998.09 719.737C1998.29 720.456 1998.78 721.091 1998.98 721.81L1742.13 1058.98C1742.22 1058.18 1741.82 1057.9 1741.43 1057.63ZM1960.21 479.277C1961.09 480.189 1962.16 480.659 1963.43 480.688L2001.72 712.5C2000.27 712.914 1999.12 714.405 1998.83 715.649L1825.09 655.39C1825.18 654.588 1824.98 653.87 1824.78 653.152C1824.58 652.433 1824.38 651.715 1823.89 651.079L1925.41 523.305L1960.21 479.277ZM1716.77 726.165C1716.97 726.883 1717.07 727.242 1717.17 727.602L1373.04 1016.34C1372.06 1015.07 1370.21 1014.05 1368.75 1014.46L1325.19 849.285L1306.92 780.429C1308.86 779.491 1309.91 777.64 1309.5 775.043L1577.97 742.806L1716.77 726.165ZM251.839 1282.83L521.261 995.2C522.534 996.388 523.998 997.135 525.742 996.638C526.905 996.307 527.868 995.257 528.44 993.931L675.913 1072.53C675.822 1073.33 675.832 1074.49 676.132 1075.57C676.132 1075.57 676.132 1075.57 676.233 1075.93L252.23 1283.11C252.13 1282.75 252.13 1282.75 251.839 1282.83ZM884.978 931.969C884.115 933.377 883.935 934.98 884.436 936.776C884.536 937.135 884.536 937.135 884.636 937.494L683.964 1071.01C683.473 1070.37 682.982 1069.74 682.2 1069.19L700.14 996.226L753.782 778.949C754.464 779.142 755.436 779.253 756.018 779.087C756.6 778.922 757.181 778.756 757.663 778.231L759.527 780.415L884.978 931.969ZM751.346 778.091C751.837 778.727 752.228 779.003 752.619 779.28L680.936 1069.16C680.255 1068.96 679.282 1068.85 678.7 1069.02C677.537 1069.35 676.575 1070.4 676.003 1071.73L528.53 993.13C528.621 992.329 528.611 991.169 528.31 990.091C528.11 989.373 528.01 989.014 527.619 988.737L574.079 944.879L751.346 778.091ZM210.459 973.575L210.749 973.492C212.494 972.996 213.838 971.062 213.919 969.101L519.387 991.856C519.487 992.216 519.587 992.575 519.687 992.934C519.888 993.652 520.088 994.371 520.479 994.647L266.17 1265.57L251.148 1281.48C250.265 1280.56 249.193 1280.09 248.22 1279.98L225.676 1095.64L210.459 973.575ZM892.668 933.656C891.876 931.943 890.212 930.478 888.558 930.174L869.643 692.456C869.934 692.373 869.934 692.373 870.224 692.29C871.969 691.793 873.122 690.302 873.203 688.34L1300.56 774.487C1300.66 774.846 1300.47 775.288 1300.67 776.007L1294.95 778.022L892.668 933.656ZM1722.05 730.477C1722.35 730.394 1722.64 730.311 1722.64 730.311C1724.96 729.649 1726.3 726.555 1725.49 723.681C1725.39 723.322 1725.29 722.963 1725.19 722.604L1739.58 712.303L1816.27 657.514C1816.76 658.15 1817.64 659.062 1818.32 659.255L1740.55 1056.72L1740.26 1056.8L1723.2 751.474L1722.05 730.477ZM2007.21 717.53C2007.11 717.171 2007.01 716.812 2006.91 716.452C2006.2 713.938 2004.15 712.197 2001.91 712.058L1972.73 535.422L1963.62 480.246C1964.2 480.08 1964.97 479.472 1965.45 478.948L2122.04 647.613L2196.07 727.345C2195.69 728.229 2195.31 729.113 2195.22 729.914L2107.92 724.139L2007.21 717.53ZM1959.32 478.365L1866.65 595.091L1822.71 650.25C1821.44 649.062 1820.08 648.674 1818.62 649.088C1817.17 649.502 1816.02 650.994 1815.54 652.679L1592.4 587.486C1592.3 587.127 1592.39 586.326 1592.29 585.966L1958.53 476.652C1958.73 477.371 1958.93 478.089 1959.32 478.365ZM1583.97 589.887C1585.15 591.876 1587.3 592.816 1589.04 592.32C1589.91 592.071 1590.39 591.547 1590.88 591.022L1717.02 721.441C1716.64 722.325 1716.36 723.568 1716.37 724.728L1386.27 764.431L1310.07 773.717C1309.97 773.358 1309.87 772.998 1309.87 772.998L1435.09 689.658L1583.97 589.887ZM1141.09 586.481C1141.67 586.315 1142.25 586.15 1142.73 585.625L1219.46 675.055L1301.79 771.034C1301.31 771.559 1301.22 772.36 1301.13 773.161L873.775 687.014C873.674 686.655 873.765 685.854 873.665 685.495L1135.71 582.97C1136.51 585.844 1138.76 587.143 1141.09 586.481ZM750.755 777.096L527.318 987.659C525.945 986.112 524.481 985.365 522.736 985.862C522.446 985.945 522.155 986.028 522.155 986.028L441.492 834.129C442.745 832.997 443.217 831.312 443.006 829.433L750.354 775.66C750.163 776.102 750.364 776.82 750.755 777.096ZM209.486 973.464L246.957 1279.96L246.666 1280.04C246.666 1280.04 246.666 1280.04 246.375 1280.12L123.708 986.642C125.353 985.786 126.015 983.659 125.705 981.421L204.784 968.987C205.586 971.861 207.541 973.243 209.486 973.464ZM118.455 985.812L-21.6922 1245.17L-63.6871 1323.04C-64.4691 1322.48 -65.1508 1322.29 -65.7324 1322.45L-92.6729 1054.84C-92.3821 1054.76 -92.382 1054.76 -92.0913 1054.67C-89.765 1054.01 -88.6215 1051.36 -89.1323 1048.4L117.272 983.822C117.472 984.541 117.773 985.618 118.455 985.812ZM-158.911 1345.11L-94.5177 1054.98C-94.2269 1054.89 -94.1267 1055.25 -93.836 1055.17L-78.1537 1209.29L-66.8955 1322.79C-67.1863 1322.87 -67.1863 1322.87 -67.477 1322.95C-69.8033 1323.61 -70.9468 1326.27 -70.5362 1328.86L-156.355 1348.64C-156.856 1346.85 -157.839 1345.58 -158.911 1345.11ZM893.369 936.171C893.269 935.812 893.46 935.37 893.359 935.01L1059.16 871.134L1301.75 777.637C1302.64 779.71 1304.6 781.092 1306.73 780.871L1368.27 1014.98C1366.82 1015.4 1365.76 1017.25 1365.58 1018.85L911.175 939.243L893.369 936.171ZM1743.49 1059.37L1802.3 982.14L2000.06 722.28C2001.33 723.468 2002.69 723.855 2004.15 723.441C2004.15 723.441 2004.15 723.442 2004.44 723.359L2102.37 964.17C2100.72 965.026 2100.16 967.512 2100.47 969.75L1744.28 1061.08C1744.08 1060.36 1743.59 1059.73 1743.49 1059.37ZM2103.53 963.839C2103.24 963.921 2103.24 963.921 2103.53 963.839L2005.31 723.11C2006.66 722.337 2007.43 720.569 2007.32 719.05L2196.01 731.627C2196.11 731.987 2196.21 732.346 2196.31 732.705C2196.71 734.142 2197.3 735.137 2198.47 735.966L2106.55 964.53C2105.38 963.701 2104.4 963.59 2103.53 963.839ZM2059.91 355.122C2061.19 356.31 2062.55 356.698 2064 356.284L2198.39 725.522C2198.1 725.605 2197.61 726.13 2197.32 726.213L1966.41 477.898C1966.99 476.572 1967.46 474.887 1966.96 473.091C1966.76 472.373 1966.56 471.654 1966.06 471.018L2059.91 355.122ZM1583.27 587.372C1583.37 587.732 1583.37 587.732 1583.47 588.091C1583.57 588.45 1583.67 588.809 1583.67 588.809L1442.13 683.389L1309.28 772.004C1308.1 770.014 1305.95 769.074 1304.21 769.571C1303.63 769.736 1303.05 769.902 1302.57 770.427L1143.5 585.017C1143.88 584.133 1144.26 583.249 1144.25 582.089L1583.27 587.372ZM865.642 690.493C866.625 691.764 867.798 692.593 869.061 692.621L887.685 930.422C887.395 930.505 887.394 930.505 887.104 930.588C886.522 930.754 885.941 930.919 885.459 931.444L758.244 778.066C759.106 776.657 759.287 775.055 758.786 773.259C758.686 772.9 758.586 772.54 758.486 772.181L865.642 690.493ZM434.483 832.635C435.666 834.625 437.812 835.565 439.556 835.068C439.847 834.985 440.138 834.903 440.138 834.903L517.835 980.666L520.992 986.359C519.929 987.049 519.357 988.375 519.176 989.978L213.708 967.222C213.608 966.863 213.508 966.503 213.408 966.144C213.307 965.785 213.307 965.785 213.207 965.426L434.483 832.635ZM-61.4219 1326.66C-61.7225 1325.58 -62.3138 1324.58 -63.196 1323.67L118.946 986.447C120.119 987.277 121.091 987.387 122.545 986.973C122.545 986.973 122.545 986.973 122.836 986.891L152.09 1056.88L245.503 1280.37C244.149 1281.14 243.196 1283.35 243.407 1285.23L-61.4219 1326.66ZM252.831 1285.26C252.731 1284.9 252.631 1284.54 252.631 1284.54C252.631 1284.54 252.631 1284.54 252.531 1284.18L676.533 1077C677.816 1079.35 679.962 1080.29 681.997 1079.71C682.288 1079.63 682.579 1079.55 682.869 1079.46L820.257 1309.82C819.294 1310.87 819.013 1312.11 818.732 1313.35L252.831 1285.26ZM827.766 1313.11C827.265 1311.31 826.183 1309.68 824.819 1309.29L827.88 1292.14L888.556 941.419C889.237 941.612 889.819 941.447 890.4 941.281C890.982 941.115 891.273 941.033 891.463 940.591L1119.86 1271.04C1118.9 1272.09 1118.72 1273.69 1118.83 1275.21L827.766 1313.11ZM1126.28 1271.54C1125 1270.35 1123.54 1269.61 1121.8 1270.1C1121.21 1270.27 1120.92 1270.35 1120.73 1270.79L892.336 940.342C893.108 939.735 893.389 938.492 893.479 937.69L963.05 949.676L1365.59 1020.01C1365.69 1020.37 1365.6 1021.17 1365.7 1021.53C1365.9 1022.25 1366 1022.61 1366.5 1023.24L1126.28 1271.54ZM1374.63 1019.77C1374.53 1019.41 1374.43 1019.05 1374.33 1018.69C1374.23 1018.33 1374.13 1017.97 1373.93 1017.25L1718.05 728.514C1718.94 729.426 1720.11 730.255 1721.08 730.366L1739.39 1057.05C1739.1 1057.13 1738.81 1057.21 1738.81 1057.21C1737.06 1057.71 1736.01 1059.56 1735.64 1061.6L1374.63 1019.77Z" fill="#AEB2BE"/>
<path opacity="0.5" d="M776.709 -53.122L689.4 -244.066C690.367 -244.811 690.676 -246.076 690.181 -247.424C689.623 -248.939 688.037 -249.879 686.81 -249.42C685.584 -248.962 684.989 -247.206 685.547 -245.691C685.671 -245.354 685.993 -244.9 686.117 -244.563L641.259 -178.547C640.602 -179.067 639.734 -179.318 638.917 -179.012C637.69 -178.553 637.17 -177.017 637.529 -175.619L447.186 -101.754C446.554 -103.051 445.166 -103.873 443.939 -103.414C442.985 -103.058 442.477 -101.91 442.44 -100.746L208.973 -85.0946C208.911 -85.263 208.911 -85.263 208.849 -85.4315C208.291 -86.9473 206.705 -87.8869 205.479 -87.4282C204.252 -86.9695 203.732 -85.4338 204.153 -83.867L69.0072 -17.999C68.3752 -19.2954 67.0494 -19.9492 65.9591 -19.5414C64.7325 -19.0827 64.1379 -17.3276 64.6956 -15.8118C64.7576 -15.6434 64.8196 -15.4749 64.8815 -15.3065L11.373 32.6772C10.5924 31.8196 9.66303 31.4007 8.70902 31.7575C7.61872 32.1652 7.03651 33.5325 7.39597 34.9309L-153.846 76.6452C-154.404 75.1294 -155.928 74.3582 -157.155 74.8169C-158.381 75.2756 -158.976 77.0307 -158.418 78.5465C-158.356 78.7149 -158.356 78.7149 -158.294 78.8834L-270.207 159.438C-270.913 158.361 -271.979 157.993 -273.069 158.401C-274.159 158.808 -274.742 160.176 -274.444 161.406L-316.037 171.404C-316.595 169.888 -318.181 168.948 -319.407 169.407C-320.634 169.866 -321.154 171.401 -320.795 172.8L-427.817 216.08C-428.449 214.783 -429.837 213.961 -431.064 214.42C-432.29 214.879 -432.885 216.634 -432.327 218.15C-432.079 218.823 -431.757 219.278 -431.299 219.681L-506.167 397.126C-506.762 396.773 -507.431 396.64 -507.976 396.844C-509.203 397.303 -509.797 399.058 -509.24 400.574C-508.682 402.09 -507.096 403.029 -505.869 402.571C-504.643 402.112 -504.122 400.576 -504.482 399.178L-454.687 381.131C-453.993 382.596 -452.668 383.25 -451.441 382.791C-450.351 382.383 -449.768 381.016 -449.992 379.567L-405.165 365.294C-404.471 366.759 -403.083 367.581 -401.857 367.122C-400.767 366.714 -400.184 365.347 -400.482 364.117L-239.858 329.149C-239.301 330.664 -237.715 331.604 -236.488 331.145C-235.534 330.789 -234.964 329.809 -234.989 328.477L67.2944 319.087C67.3563 319.256 67.4183 319.424 67.4803 319.593C68.038 321.109 69.624 322.048 70.8506 321.59C71.9409 321.182 72.5231 319.814 72.2256 318.585L225.366 286.031C225.923 287.547 227.509 288.487 228.736 288.028C229.963 287.569 230.557 285.814 229.999 284.298C229.875 283.962 229.751 283.625 229.553 283.507L346.602 141.062C347.32 141.751 348.188 142.002 349.005 141.696C349.959 141.339 350.529 140.36 350.43 139.247L544.4 146.03C544.462 146.199 544.524 146.367 544.648 146.704C545.205 148.22 546.791 149.159 548.018 148.701C549.245 148.242 549.827 146.875 549.405 145.308L735.054 81.4378C735.748 82.9026 737.074 83.5565 738.3 83.0978C739.527 82.6391 740.122 80.8839 739.564 79.3681C739.316 78.6944 738.796 78.1226 738.337 77.7193L777.416 -47.83C777.948 -47.646 778.481 -47.4621 779.026 -47.6659C780.253 -48.1246 780.847 -49.8798 780.29 -51.3956C779.459 -52.8095 778.072 -53.6317 776.709 -53.122ZM-505.312 397.764L-430.444 220.319C-430.444 220.319 -430.307 220.268 -430.245 220.437L-452.086 377.667C-452.42 377.601 -452.891 377.585 -453.3 377.738C-454.527 378.197 -455.047 379.733 -454.687 381.131L-504.482 399.178C-504.73 398.504 -505.052 398.05 -505.312 397.764ZM67.7934 -13.7131C67.9297 -13.7641 67.9297 -13.7641 68.066 -13.815C68.8837 -14.1208 69.4535 -15.1003 69.5526 -16.0953L268.307 7.48365L300.707 11.2694C300.769 11.4378 300.757 11.8256 300.819 11.9941L290.969 16.8272L90.2698 113.533C89.7617 112.573 88.9067 111.935 87.965 111.904L86.8988 105.214L67.7934 -13.7131ZM569.703 -73.4236L523.975 -35.0552C523.194 -35.9129 522.129 -36.2808 521.175 -35.9241C520.766 -35.7712 520.555 -35.5008 520.208 -35.1795L447.508 -99.1926C447.582 -99.412 447.657 -99.6314 447.669 -100.019L569.145 -74.9394C569.133 -74.5516 569.257 -74.2147 569.381 -73.8779C569.579 -73.7604 569.641 -73.592 569.703 -73.4236ZM446.393 -98.0093C446.802 -98.1622 447.013 -98.4325 447.36 -98.7539L520.059 -34.7407C519.775 -34.2509 519.688 -33.6437 519.799 -32.919L305.577 10.5981C305.515 10.4296 305.453 10.2612 305.453 10.2612L443.729 -98.929C444.175 -98.1379 445.303 -97.6016 446.393 -98.0093ZM640.491 -173.469L644.916 -155.965L670.884 -51.675C670.066 -51.3692 669.571 -50.6091 669.41 -49.7825L574.312 -74.3808C574.325 -74.7686 574.201 -75.1055 574.015 -75.6108C573.891 -75.9476 573.569 -76.4019 573.308 -76.6878L638.694 -174.139C639.351 -173.618 640.02 -173.485 640.491 -173.469ZM674.242 -49.2904C674.18 -49.4588 674.118 -49.6272 674.056 -49.7957C673.56 -51.143 672.507 -51.8988 671.293 -51.8279L668.541 -62.6779L640.9 -173.622C641.309 -173.775 641.519 -174.046 641.73 -174.316L775.197 -52.1736C775.049 -51.7348 774.9 -51.296 774.95 -50.7397L753.056 -50.4079L674.242 -49.2904ZM68.7313 316.251C68.595 316.302 68.4588 316.353 68.1862 316.455L-14.7534 199.75C-14.1216 198.938 -13.8863 197.892 -14.3201 196.714C-14.3821 196.545 -14.444 196.377 -14.444 196.377L86.6026 116.629C86.9248 117.083 87.3832 117.486 87.916 117.67L69.9456 316.18C69.3384 316.215 69.0039 316.149 68.7313 316.251ZM-18.8919 198.615L-235.485 327.13C-235.547 326.961 -235.547 326.961 -235.609 326.793L-104.661 162.289C-103.942 162.978 -103.075 163.229 -102.257 162.923C-101.576 162.668 -101.154 162.127 -100.931 161.469L-19.0407 196.946C-19.1894 197.385 -19.1398 197.941 -18.8919 198.615ZM-270.826 164.076C-269.872 163.719 -269.302 162.74 -269.265 161.576L-105.615 160.538C-105.553 160.707 -105.491 160.875 -105.429 161.044C-105.305 161.381 -105.181 161.717 -104.921 162.003L-138.73 204.536L-236.067 326.39C-236.526 325.986 -237.121 325.634 -237.728 325.669L-250.731 262.515L-270.962 164.127L-270.826 164.076ZM9.26714 37.4883L-16.4142 194.814C-16.7488 194.748 -17.2196 194.732 -17.6285 194.885C-18.3099 195.14 -18.7311 195.681 -18.954 196.339L-100.845 160.862C-100.758 160.255 -100.808 159.699 -100.994 159.193C-101.117 158.856 -101.179 158.688 -101.44 158.402L8.41217 36.85C8.6724 37.1359 8.87063 37.2534 9.26714 37.4883ZM86.0202 115.888C86.0821 116.057 86.1441 116.225 86.1441 116.225L-14.9025 195.973C-15.2247 195.519 -15.6212 195.284 -16.0177 195.049L9.66367 37.7232C9.99821 37.7897 10.469 37.8052 10.8779 37.6523C11.1505 37.5504 11.5593 37.3975 11.7699 37.1271L86.1066 113.174C85.7474 113.883 85.6483 114.878 86.0202 115.888ZM347.233 136.036L304.388 14.1083C305.28 13.5831 305.788 12.4352 305.626 11.1543L519.849 -32.3628C519.911 -32.1944 520.035 -31.8575 520.233 -31.7401L349.501 136.721C348.98 136.149 348.113 135.899 347.233 136.036ZM547.98 143.542C547.782 143.424 547.584 143.307 547.386 143.189L571.735 -71.6928C572.07 -71.6263 572.541 -71.6108 572.813 -71.7127C573.631 -72.0185 574.127 -72.7786 574.288 -73.6052L669.385 -49.0069C669.373 -48.619 669.497 -48.2822 669.683 -47.7769C669.868 -47.2717 670.129 -46.9857 670.389 -46.6999L609.674 47.8547L547.98 143.542ZM638.434 -174.425L573.048 -76.9737C572.391 -77.4945 571.524 -77.7449 570.843 -77.4901C570.025 -77.1843 569.529 -76.4242 569.43 -75.4292L458.325 -98.4478L447.892 -100.677C447.966 -100.897 447.843 -101.234 447.781 -101.402L638.124 -175.267C638.112 -174.879 638.174 -174.71 638.434 -174.425ZM207.586 -81.7018C207.858 -81.8037 208.205 -82.1251 208.478 -82.227L301.091 9.78464C300.881 10.055 300.732 10.4938 300.782 11.05L69.6269 -16.3147C69.5649 -16.4831 69.5773 -16.871 69.5153 -17.0394L204.661 -82.9074C205.169 -81.9478 206.495 -81.2941 207.586 -81.7018ZM8.08998 36.3958L-101.762 157.948C-102.481 157.259 -103.41 156.84 -104.364 157.197C-104.5 157.248 -104.636 157.298 -104.773 157.349L-154.292 80.0691C-153.734 79.4774 -153.499 78.4314 -153.673 77.5383L7.56952 35.824C7.76777 35.9414 7.82975 36.1099 8.08998 36.3958ZM-271.569 164.163L-238.471 325.756L-238.607 325.807L-238.744 325.858L-269.378 266.614L-316.755 174.93C-316.062 174.287 -315.69 173.19 -315.926 172.128L-274.333 162.13C-273.701 163.427 -272.511 164.132 -271.569 164.163ZM-319.444 174.785L-398.562 354.586L-401.833 362.132C-402.229 361.897 -402.564 361.83 -402.898 361.764L-412.419 309.761L-428.697 220.432C-428.56 220.381 -428.56 220.381 -428.424 220.33C-427.197 219.872 -426.677 218.336 -427.037 216.937L-320.014 173.657C-320.027 174.045 -319.903 174.382 -319.444 174.785ZM-451.615 377.683L-429.774 220.452C-429.638 220.401 -429.44 220.519 -429.44 220.519L-403.704 361.682C-403.84 361.733 -403.84 361.733 -403.976 361.784C-405.066 362.191 -405.649 363.559 -405.425 365.008L-450.252 379.281C-450.363 378.556 -450.884 377.984 -451.615 377.683ZM90.7655 114.88C90.7035 114.712 90.7159 114.324 90.654 114.156L301.265 12.7852C301.835 13.9132 303.025 14.618 304.041 14.4296L313.361 41.0251L346.824 136.189C346.068 136.663 345.573 137.423 345.61 138.367L166.359 121.865L90.7655 114.88ZM523.009 -30.0957C523.145 -30.1467 523.281 -30.1976 523.418 -30.2486C524.644 -30.7073 525.239 -32.4624 524.681 -33.9782C524.619 -34.1466 524.557 -34.3151 524.495 -34.4835L570.224 -72.8518C570.546 -72.3975 570.942 -72.1626 571.339 -71.9277L546.989 142.954C546.989 142.954 546.853 143.005 546.791 142.837L533.796 47.6825L523.009 -30.0957ZM548.439 143.945L577.204 99.0833L670.649 -46.414C671.306 -45.8932 672.173 -45.6427 672.855 -45.8976C672.855 -45.8976 672.855 -45.8976 672.991 -45.9486L735.5 78.014C734.67 78.7076 734.298 79.8045 734.732 80.9834L549.083 144.854C548.823 144.568 548.699 144.231 548.439 143.945ZM735.983 77.6416L690.378 -12.5983L673.338 -46.2699C673.957 -46.6931 674.255 -47.5707 674.217 -48.5148L775.259 -49.8976C775.321 -49.7292 775.383 -49.5608 775.445 -49.3924C775.693 -48.7187 776.214 -48.1469 776.672 -47.7436L737.594 77.8056C736.999 77.4533 736.528 77.4378 735.983 77.6416ZM686.65 -244.379C687.306 -243.858 688.174 -243.608 688.855 -243.862L776.164 -52.9181C776.027 -52.8672 775.817 -52.5968 775.68 -52.5459L642.213 -174.688C642.572 -175.397 642.535 -176.341 642.225 -177.184C642.101 -177.52 641.779 -177.975 641.655 -178.312L686.65 -244.379ZM442.899 -100.343C442.961 -100.174 442.961 -100.174 443.023 -100.006C443.085 -99.8376 443.147 -99.6692 443.147 -99.6692L304.87 9.52099C304.226 8.61238 303.098 8.07609 302.008 8.48382C301.736 8.58576 301.389 8.90708 301.116 9.00902L208.502 -83.0026C208.787 -83.4924 208.874 -84.0996 208.824 -84.6558L442.899 -100.343ZM65.464 -14.5663C65.9844 -13.9946 66.5792 -13.6422 67.3845 -13.5602L87.5562 112.057C87.4199 112.108 87.4199 112.108 87.2836 112.159C87.011 112.261 86.6021 112.414 86.3915 112.684L37.3583 62.4288L12.0549 36.6374C12.4141 35.9282 12.5131 34.9332 12.1413 33.9227C12.0793 33.7543 12.0174 33.5858 11.9554 33.4174L65.464 -14.5663ZM-157.91 79.5061C-157.204 80.5832 -156.138 80.951 -155.048 80.5433C-154.911 80.4923 -154.775 80.4414 -154.639 80.3904L-105.12 157.671C-105.541 158.212 -105.9 158.921 -105.789 159.645L-269.439 160.683C-269.501 160.515 -269.563 160.346 -269.624 160.178C-269.686 160.01 -269.686 160.01 -269.748 159.841L-157.91 79.5061ZM-400.469 363.729C-400.717 363.056 -401.04 362.601 -401.498 362.198L-319.048 175.02C-318.453 175.373 -317.784 175.506 -317.102 175.251L-316.966 175.2L-238.954 326.128C-239.648 326.771 -240.082 327.699 -239.846 328.761L-400.469 363.729ZM-235.113 328.14C-235.175 327.972 -235.237 327.804 -235.299 327.635C-235.299 327.635 -235.299 327.635 -235.361 327.467L-18.706 199.12C-17.9996 200.197 -16.8101 200.902 -15.7198 200.494C-15.5835 200.443 -15.4472 200.392 -15.1746 200.29L67.7649 316.996C67.3437 317.536 67.1208 318.194 67.0961 318.97L-235.113 328.14ZM71.9654 318.299C71.5936 317.288 70.8749 316.599 70.1438 316.298L88.1143 117.788C88.4489 117.854 88.7834 117.921 89.1923 117.768C89.4649 117.666 89.6012 117.615 89.8118 117.344L225.514 283.485C225.093 284.026 224.932 284.852 225.105 285.745L71.9654 318.299ZM229.02 283.323C228.302 282.634 227.434 282.384 226.617 282.689C226.344 282.791 226.208 282.842 225.997 283.113L90.2949 116.972C90.5798 116.482 90.7285 116.044 90.8152 115.436L225.82 127.985L345.585 139.143C345.647 139.311 345.635 139.699 345.697 139.868C345.821 140.204 345.945 140.541 346.143 140.659L229.02 283.323ZM350.517 138.64C350.455 138.472 350.393 138.303 350.269 137.966C350.207 137.798 350.083 137.461 349.885 137.344L418.706 69.4552L520.481 -31.0663C521.001 -30.4946 521.596 -30.1423 522.203 -30.1777L535.037 63.6959L546.246 143.041C546.109 143.092 545.973 143.143 545.837 143.194C544.883 143.551 544.313 144.53 544.412 145.643L350.517 138.64Z" fill="#9EA3B2"/>
</svg>
