<svg width="1920" height="1080" fill="none" xmlns="http://www.w3.org/2000/svg"><path d="M1920 0H0v1080h1920V0z" fill="#F6F6F8"/><path opacity=".3" d="M2199.36 725.633l-134.38-369.238c1.93-.939 2.68-3.867 1.98-6.382-.8-2.873-3.54-4.808-5.86-4.146-2.33.662-3.66 3.756-2.86 6.63.2.718.4 1.437.89 2.072l-93.75 116.256c-1.27-1.188-2.63-1.576-4.09-1.162-2.32.663-3.47 3.314-2.96 6.271l-366.34 108.955c-1.09-2.791-3.34-4.09-5.66-3.428-2.04.58-3.09 2.43-3.07 4.751l-438.72-5.366-.2-.719c-.81-2.873-3.54-4.808-5.87-4.146-2.33.662-3.66 3.756-2.86 6.63L873.564 685.135c-.992-2.431-3.237-3.73-5.564-3.068-2.326.662-3.66 3.756-2.859 6.63l.301 1.077-107.156 81.689c-1.083-1.631-3.229-2.571-4.973-2.074-2.036.58-3.57 2.955-3.16 5.552l-307.447 53.415c-.802-2.874-3.538-4.809-5.865-4.147-2.326.663-3.66 3.757-2.859 6.63l.201.719-221.076 133.509c-1.183-1.99-3.328-2.93-5.073-2.433-2.035.579-3.279 2.872-3.159 5.552l-79.08 12.434c-.802-2.874-3.538-4.808-5.865-4.146-2.326.662-3.469 3.314-2.959 6.271l-206.404 64.585c-.992-2.44-3.338-4.09-5.664-3.43-2.326.66-3.66 3.75-2.859 6.63.3 1.08.892 2.07 1.774 2.98l-166.547 319.99c-1.173-.83-2.146-.94-3.309-.61-2.326.67-3.66 3.76-2.859 6.63.802 2.88 3.539 4.81 5.865 4.15 2.326-.66 3.47-3.32 3.059-5.91l95.967-26.16c1.092 2.79 3.438 4.45 5.764 3.78 2.327-.66 3.47-3.31 3.06-5.91l85.819-19.78c1.092 2.79 3.438 4.45 5.764 3.79 2.036-.58 3.28-2.87 3.16-5.55l304.246-41.26c.802 2.87 3.539 4.81 5.865 4.14 1.745-.49 3.089-2.43 3.069-4.75l566.001 28.45.201.72c.801 2.88 3.538 4.81 5.864 4.15 2.036-.58 3.279-2.87 3.159-5.55l290.774-37.81c.8 2.87 3.54 4.8 5.86 4.14 2.33-.66 3.66-3.75 2.86-6.63-.2-.72-.3-1.08-.79-1.71l240.12-248.66c1.27 1.19 2.73 1.94 4.48 1.44 1.74-.5 2.8-2.35 3.17-4.39l360.72 41.92.3 1.08c.8 2.87 3.54 4.8 5.86 4.14 2.33-.66 3.47-3.31 3.06-5.91l356.19-91.331c1.1 2.791 3.44 4.45 5.77 3.787 2.32-.662 3.66-3.756 2.86-6.629-.4-1.437-1-2.432-2.17-3.261l91.93-228.565c1.07.47 2.04.581 2.91.333 2.33-.663 3.66-3.757 2.86-6.63-.31-2.238-3.04-4.173-5.37-3.511zM-262.238 1374.14l166.547-319.99.391.27-64.393 290.13c-.682-.19-1.364-.38-2.236-.14-2.326.67-3.47 3.32-3.059 5.92l-95.967 26.16c-.201-.72-.692-1.36-1.283-2.35zm1084.039-65.54c-.291.08-.581.17-.872.25L708.97 1121.27l-25.328-42.41c1.253-1.14 1.815-3.62 1.214-5.78l-.201-.72 200.673-133.512c.591.995 1.373 1.548 2.155 2.101l-63.446 367.791c-.973-.11-1.654-.3-2.236-.14zm993.969-651.722l-91.17 64.731c-1.18-1.99-3.23-2.571-4.97-2.074-.87.248-1.35.773-1.83 1.298l-126.15-130.419.57-1.326 223.14 65.193c-.09.802.01 1.161.21 1.879l.2.718zm-74.34 400.752l77.77-397.463c.68.194 1.37.388 2.24.139 1.45-.414 2.61-1.905 2.89-3.148l75.81 26.492 97.64 33.849c-.09.802.11 1.52.31 2.238.2.719.69 1.354.89 2.073l-256.85 337.17c.09-.8-.31-1.08-.7-1.35zm218.78-578.353c.88.912 1.95 1.382 3.22 1.411l38.29 231.812c-1.45.414-2.6 1.905-2.89 3.149l-173.74-60.259c.09-.802-.11-1.52-.31-2.238-.2-.719-.4-1.437-.89-2.073l101.52-127.774 34.8-44.028zm-243.44 246.888l.4 1.437-344.13 288.738c-.98-1.27-2.83-2.29-4.29-1.88l-43.56-165.175-18.27-68.856c1.94-.938 2.99-2.789 2.58-5.386l268.47-32.237 138.8-16.641zM251.839 1282.83L521.261 995.2c1.273 1.188 2.737 1.935 4.481 1.438 1.163-.331 2.126-1.381 2.698-2.707l147.473 78.599c-.091.8-.081 1.96.219 3.04l.101.36-424.003 207.18c-.1-.36-.1-.36-.391-.28zm633.139-350.861c-.863 1.408-1.043 3.011-.542 4.807l.2.718-200.672 133.516c-.491-.64-.982-1.27-1.764-1.82l17.94-72.964 53.642-217.277c.682.193 1.654.304 2.236.138.582-.165 1.163-.331 1.645-.856l1.864 2.184 125.451 151.554zM751.346 778.091c.491.636.882.912 1.273 1.189l-71.683 289.88c-.681-.2-1.654-.31-2.236-.14-1.163.33-2.125 1.38-2.697 2.71l-147.473-78.6c.091-.801.081-1.961-.22-3.039-.2-.718-.3-1.077-.691-1.354l46.46-43.858 177.267-166.788zM210.459 973.575l.29-.083c1.745-.496 3.089-2.43 3.17-4.391l305.468 22.755.3 1.078c.201.718.401 1.437.792 1.713L266.17 1265.57l-15.022 15.91c-.883-.92-1.955-1.39-2.928-1.5l-22.544-184.34-15.217-122.065zm682.209-39.919c-.792-1.713-2.456-3.178-4.11-3.482l-18.915-237.718.581-.166c1.745-.497 2.898-1.988 2.979-3.95l427.357 86.147c.1.359-.09.801.11 1.52l-5.72 2.015-402.282 155.634zm829.382-203.179c.3-.083.59-.166.59-.166 2.32-.662 3.66-3.756 2.85-6.63l-.3-1.077 14.39-10.301 76.69-54.789c.49.636 1.37 1.548 2.05 1.741l-77.77 397.465-.29.08-17.06-305.326-1.15-20.997zm285.16-12.947l-.3-1.078c-.71-2.514-2.76-4.255-5-4.394l-29.18-176.636-9.11-55.176c.58-.166 1.35-.774 1.83-1.298l156.59 168.665 74.03 79.732c-.38.884-.76 1.768-.85 2.569l-87.3-5.775-100.71-6.609zm-47.89-239.165l-92.67 116.726-43.94 55.159c-1.27-1.188-2.63-1.576-4.09-1.162-1.45.414-2.6 1.906-3.08 3.591l-223.14-65.193c-.1-.359-.01-1.16-.11-1.52l366.24-109.314c.2.719.4 1.437.79 1.713zm-375.35 111.522c1.18 1.989 3.33 2.929 5.07 2.433.87-.249 1.35-.773 1.84-1.298l126.14 130.419c-.38.884-.66 2.127-.65 3.287l-330.1 39.703-76.2 9.286-.2-.719 125.22-83.34 148.88-99.771zm-442.88-3.406c.58-.166 1.16-.331 1.64-.856l76.73 89.43 82.33 95.979c-.48.525-.57 1.326-.66 2.127l-427.355-86.147c-.101-.359-.01-1.16-.11-1.519L1135.71 582.97c.8 2.874 3.05 4.173 5.38 3.511zM750.755 777.096L527.318 987.659c-1.373-1.547-2.837-2.294-4.582-1.797l-.581.166-80.663-151.899c1.253-1.132 1.725-2.817 1.514-4.696l307.348-53.773c-.191.442.01 1.16.401 1.436zM209.486 973.464l37.471 306.496-.291.08-.291.08-122.667-293.478c1.645-.856 2.307-2.983 1.997-5.221l79.079-12.434c.802 2.874 2.757 4.256 4.702 4.477zm-91.031 12.348L-21.692 1245.17l-41.995 77.87c-.782-.56-1.464-.75-2.045-.59l-26.94-267.61c.29-.08.29-.08.58-.17 2.327-.66 3.47-3.31 2.96-6.27l206.404-64.578c.2.719.501 1.796 1.183 1.99zm-277.366 359.298l64.393-290.13c.291-.09.391.27.682.19l15.682 154.12 11.258 113.5-.581.16c-2.326.66-3.47 3.32-3.06 5.91l-85.818 19.78c-.501-1.79-1.484-3.06-2.556-3.53zm1052.28-408.939c-.1-.359.091-.801-.01-1.161l165.801-63.876 242.59-93.497c.89 2.073 2.85 3.455 4.98 3.234l61.54 234.109c-1.45.42-2.51 2.27-2.69 3.87l-454.405-79.607-17.806-3.072zm850.121 123.199l58.81-77.23 197.76-259.86c1.27 1.188 2.63 1.575 4.09 1.161l.29-.082 97.93 240.811c-1.65.856-2.21 3.342-1.9 5.58l-356.19 91.33c-.2-.72-.69-1.35-.79-1.71zm360.04-95.531c-.29.082-.29.082 0 0l-98.22-240.729c1.35-.773 2.12-2.541 2.01-4.06l188.69 12.577.3 1.078c.4 1.437.99 2.432 2.16 3.261l-91.92 228.564c-1.17-.829-2.15-.94-3.02-.691zm-43.62-608.717c1.28 1.188 2.64 1.576 4.09 1.162l134.39 369.238c-.29.083-.78.608-1.07.691l-230.91-248.315c.58-1.326 1.05-3.011.55-4.807-.2-.718-.4-1.437-.9-2.073l93.85-115.896zm-476.64 232.25a692.764 692.764 0 0 0 .4 1.437l-141.54 94.58-132.85 88.615c-1.18-1.99-3.33-2.93-5.07-2.433-.58.165-1.16.331-1.64.856l-159.07-185.41c.38-.884.76-1.768.75-2.928l439.02 5.283zM865.642 690.493c.983 1.271 2.156 2.1 3.419 2.128l18.624 237.801-.581.166c-.582.166-1.163.331-1.645.856L758.244 778.066c.862-1.409 1.043-3.011.542-4.807l-.3-1.078 107.156-81.688zM434.483 832.635c1.183 1.99 3.329 2.93 5.073 2.433l.582-.165 77.697 145.763 3.157 5.693c-1.063.69-1.635 2.016-1.816 3.619l-305.468-22.756-.3-1.078-.201-.718 221.276-132.791zM-61.422 1326.66c-.3-1.08-.892-2.08-1.774-2.99l182.142-337.223c1.173.83 2.145.94 3.599.526l.291-.082 29.254 69.989 93.413 223.49c-1.354.77-2.307 2.98-2.096 4.86l-304.829 41.43zm314.253-41.4l-.2-.72-.1-.36L676.533 1077c1.283 2.35 3.429 3.29 5.464 2.71.291-.08.582-.16.872-.25l137.388 230.36c-.963 1.05-1.244 2.29-1.525 3.53l-565.901-28.09zm574.935 27.85c-.501-1.8-1.583-3.43-2.947-3.82l3.061-17.15 60.676-350.721c.681.193 1.263.028 1.844-.138.582-.166.873-.248 1.063-.69l228.397 330.449c-.96 1.05-1.14 2.65-1.03 4.17l-291.064 37.9zm298.514-41.57c-1.28-1.19-2.74-1.93-4.48-1.44-.59.17-.88.25-1.07.69L892.336 940.342c.772-.607 1.053-1.85 1.143-2.652l69.571 11.986 402.54 70.334c.1.36.01 1.16.11 1.52.2.72.3 1.08.8 1.71l-240.22 248.3zm248.35-251.77l-.3-1.08-.4-1.44 344.12-288.736c.89.912 2.06 1.741 3.03 1.852l18.31 326.684-.58.16c-1.75.5-2.8 2.35-3.17 4.39l-361.01-41.83z" fill="#AEB2BE"/><path opacity=".5" d="M776.709-53.122L689.4-244.066c.967-.745 1.276-2.01.781-3.358-.558-1.515-2.144-2.455-3.371-1.996-1.226.458-1.821 2.214-1.263 3.729.124.337.446.791.57 1.128l-44.858 66.016c-.657-.52-1.525-.771-2.342-.465-1.227.459-1.747 1.995-1.388 3.393l-190.343 73.865c-.632-1.297-2.02-2.119-3.247-1.66-.954.356-1.462 1.504-1.499 2.668L208.973-85.095l-.124-.337c-.558-1.515-2.144-2.455-3.37-1.996-1.227.459-1.747 1.994-1.326 3.561L69.007-17.999c-.632-1.296-1.958-1.95-3.048-1.542-1.227.458-1.821 2.213-1.263 3.73l.186.505-53.509 47.983c-.78-.857-1.71-1.276-2.664-.92-1.09.408-1.672 1.775-1.313 3.174l-161.242 41.714c-.558-1.516-2.082-2.287-3.309-1.828-1.226.459-1.821 2.214-1.263 3.73l.124.336-111.913 80.555c-.706-1.077-1.772-1.445-2.862-1.037-1.09.407-1.673 1.775-1.375 3.005l-41.593 9.998c-.558-1.516-2.144-2.456-3.37-1.997-1.227.459-1.747 1.994-1.388 3.393l-107.022 43.28c-.632-1.297-2.02-2.119-3.247-1.66-1.226.459-1.821 2.214-1.263 3.73.248.673.57 1.128 1.028 1.531l-74.868 177.445c-.595-.353-1.264-.486-1.809-.282-1.227.459-1.821 2.214-1.264 3.73.558 1.516 2.144 2.455 3.371 1.997 1.226-.459 1.747-1.995 1.387-3.393l49.795-18.047c.694 1.465 2.019 2.119 3.246 1.66 1.09-.408 1.673-1.775 1.449-3.224l44.827-14.273c.694 1.465 2.082 2.287 3.308 1.828 1.09-.408 1.673-1.775 1.375-3.005l160.624-34.968c.557 1.515 2.143 2.455 3.37 1.996.954-.356 1.524-1.336 1.499-2.668l302.283-9.39.186.506c.558 1.516 2.144 2.455 3.37 1.997 1.09-.408 1.673-1.776 1.376-3.005l153.14-32.554c.557 1.516 2.143 2.456 3.37 1.997 1.227-.459 1.821-2.214 1.263-3.73-.124-.336-.248-.673-.446-.791l117.049-142.445c.718.689 1.586.94 2.403.634.954-.357 1.524-1.336 1.425-2.449l193.97 6.783.248.674c.557 1.516 2.143 2.455 3.37 1.997 1.227-.459 1.809-1.826 1.387-3.393l185.649-63.87c.694 1.465 2.02 2.118 3.246 1.66 1.227-.459 1.822-2.214 1.264-3.73-.248-.674-.768-1.245-1.227-1.649L777.416-47.83c.532.184 1.065.368 1.61.164 1.227-.459 1.821-2.214 1.264-3.73-.831-1.413-2.218-2.236-3.581-1.726zM-505.312 397.764l74.868-177.445s.137-.051.199.118l-21.841 157.23c-.334-.066-.805-.082-1.214.071-1.227.459-1.747 1.995-1.387 3.393l-49.795 18.047c-.248-.674-.57-1.128-.83-1.414zM67.793-13.713l.273-.102c.818-.306 1.388-1.285 1.487-2.28L268.307 7.484l32.4 3.785c.062.169.05.557.112.725l-9.85 4.833-200.7 96.706c-.507-.96-1.362-1.598-2.304-1.629l-1.066-6.69L67.793-13.713zm501.91-59.71l-45.728 38.368c-.781-.858-1.846-1.226-2.8-.87-.409.154-.62.424-.967.745l-72.7-64.013c.074-.219.149-.438.161-.826l121.476 25.08c-.012.387.112.724.236 1.061.198.118.26.286.322.454zM446.393-98.01c.409-.153.62-.424.967-.745l72.699 64.013c-.284.49-.371 1.097-.26 1.822L305.577 10.598l-.124-.337 138.276-109.19c.446.791 1.574 1.327 2.664.92zm194.098-75.46l4.425 17.504 25.968 104.29c-.818.306-1.313 1.066-1.474 1.892L574.312-74.38c.013-.388-.111-.725-.297-1.23-.124-.337-.446-.79-.707-1.077l65.386-97.451a3.026 3.026 0 0 0 1.797.67zm33.751 124.18l-.186-.506c-.496-1.347-1.549-2.103-2.763-2.032l-2.752-10.85L640.9-173.622c.409-.153.619-.424.83-.694L775.197-52.174c-.148.44-.297.878-.247 1.434l-21.894.332-78.814 1.118zM68.732 316.25l-.546.204-82.94-116.705c.632-.812.868-1.858.434-3.036l-.124-.337 101.047-79.748c.322.454.78.857 1.313 1.041l-17.97 198.51c-.608.035-.942-.031-1.215.071zm-87.624-117.636L-235.485 327.13l-.124-.337 130.948-164.504c.719.689 1.586.94 2.404.634.681-.255 1.103-.796 1.326-1.454l81.89 35.477c-.148.439-.099.995.15 1.669zm-251.934-34.539c.954-.357 1.524-1.336 1.561-2.5l163.65-1.038.186.506c.124.337.248.673.508.959l-33.809 42.533-97.337 121.854c-.459-.404-1.054-.756-1.661-.721l-13.003-63.154-20.231-98.388.136-.051zM9.267 37.488l-25.681 157.326c-.335-.066-.806-.082-1.214.071-.682.255-1.103.796-1.326 1.454l-81.891-35.477c.087-.607.037-1.163-.149-1.669-.123-.337-.185-.505-.446-.791L8.412 36.85c.26.286.459.403.855.638zm76.753 78.4l.124.337-101.047 79.748c-.322-.454-.718-.689-1.115-.924L9.664 37.723c.334.067.805.082 1.214-.07.272-.103.681-.255.892-.526l74.337 76.047c-.36.709-.459 1.704-.087 2.714zm261.213 20.148L304.388 14.108c.892-.525 1.4-1.673 1.238-2.954l214.223-43.517c.062.169.186.505.384.623L349.501 136.72c-.521-.572-1.388-.822-2.268-.685zm200.747 7.506l-.594-.353 24.349-214.882c.335.067.806.082 1.078-.02.818-.306 1.314-1.066 1.475-1.892l95.097 24.598c-.012.388.112.725.298 1.23.185.505.446.791.706 1.077l-60.715 94.555-61.694 95.687zm90.454-317.967l-65.386 97.451c-.657-.52-1.524-.77-2.205-.516-.818.306-1.314 1.066-1.413 2.06L458.325-98.447l-10.433-2.229c.074-.22-.049-.557-.111-.725l190.343-73.865c-.012.388.05.557.31.842zM207.586-81.702c.272-.102.619-.423.892-.525l92.613 92.012c-.21.27-.359.709-.309 1.265L69.627-16.315c-.062-.168-.05-.556-.112-.724l135.146-65.868c.508.96 1.834 1.613 2.925 1.205zM8.09 36.396l-109.852 121.552c-.719-.689-1.648-1.108-2.602-.751l-.409.152-49.519-77.28c.558-.592.793-1.638.619-2.53L7.57 35.823c.198.117.26.286.52.572zm-279.659 127.767l33.098 161.593-.136.051-.137.051-30.634-59.244-47.377-91.684c.693-.643 1.065-1.74.829-2.802l41.593-9.998c.632 1.297 1.822 2.002 2.764 2.033zm-47.875 10.622l-79.118 179.801-3.271 7.546c-.396-.235-.731-.302-1.065-.368l-9.521-52.003-16.278-89.329.273-.102c1.227-.458 1.747-1.994 1.387-3.393l107.023-43.28c-.013.388.111.725.57 1.128zm-132.171 202.898l21.841-157.231c.136-.051.334.067.334.067l25.736 141.163-.272.102c-1.09.407-1.673 1.775-1.449 3.224l-44.827 14.273c-.111-.725-.632-1.297-1.363-1.598zM90.765 114.88c-.061-.168-.05-.556-.111-.724l210.611-101.37c.57 1.127 1.76 1.832 2.776 1.644l9.32 26.595 33.463 95.164c-.756.474-1.251 1.234-1.214 2.178l-179.251-16.502-75.594-6.985zM523.01-30.096l.409-.153c1.226-.458 1.821-2.213 1.263-3.73l-.186-.505 45.729-38.368c.322.455.718.69 1.115.924l-24.35 214.882s-.136.051-.198-.117l-12.995-95.154-10.787-77.779zm25.43 174.041l28.765-44.862L670.65-46.414c.657.52 1.524.771 2.206.516l.136-.05L735.5 78.013c-.83.694-1.202 1.79-.768 2.97l-185.649 63.87c-.26-.286-.384-.623-.644-.909zm187.544-66.303l-45.605-90.24-17.04-33.672c.619-.423.917-1.3.879-2.245l101.042-1.383.186.506c.248.673.769 1.245 1.227 1.648l-39.078 125.55c-.595-.353-1.066-.368-1.611-.164zM686.65-244.38c.656.521 1.524.771 2.205.517l87.309 190.944c-.137.05-.347.321-.484.372L642.213-174.688c.359-.709.322-1.653.012-2.496-.124-.336-.446-.791-.57-1.128l44.995-66.067zM442.899-100.343l.124.337.124.337L304.87 9.52c-.644-.909-1.772-1.445-2.862-1.037-.272.102-.619.423-.892.525l-92.614-92.012c.285-.49.372-1.097.322-1.653l234.075-15.687zM65.464-14.566c.52.571 1.115.924 1.92 1.006l20.172 125.617-.272.102c-.273.102-.682.255-.893.525L37.358 62.429 12.055 36.637c.36-.709.458-1.704.086-2.714l-.186-.506 53.509-47.983zM-157.91 79.506c.706 1.077 1.772 1.445 2.862 1.037.137-.05.273-.102.409-.153l49.519 77.281c-.421.541-.78 1.25-.669 1.974l-163.65 1.038-.185-.505-.124-.337 111.838-80.335zM-400.469 363.73c-.248-.673-.571-1.128-1.029-1.531l82.45-187.178c.595.353 1.264.486 1.946.231l.136-.051 78.012 150.928c-.694.643-1.128 1.571-.892 2.633l-160.623 34.968zm165.356-35.589l-.186-.505-.062-.168L-18.706 199.12c.706 1.077 1.896 1.782 2.986 1.374l.545-.204 82.94 116.706c-.421.54-.644 1.198-.669 1.974l-302.209 9.17zM71.965 318.3c-.371-1.011-1.09-1.7-1.821-2.001l17.97-198.51c.335.066.67.133 1.078-.02.273-.102.41-.153.62-.424l135.702 166.141c-.421.541-.582 1.367-.409 2.26L71.965 318.3zm157.055-34.976c-.718-.689-1.586-.939-2.403-.634-.273.102-.409.153-.62.424L90.295 116.972c.285-.49.433-.928.52-1.536l135.005 12.549 119.765 11.158c.062.168.05.556.112.725.124.336.248.673.446.791L229.02 283.323zM350.517 138.64l-.248-.674c-.062-.168-.186-.505-.384-.622l68.821-67.889L520.481-31.066c.52.571 1.115.924 1.722.888l12.834 93.874 11.209 79.345-.409.153c-.954.357-1.524 1.336-1.425 2.449l-193.895-7.003z" fill="#9EA3B2"/></svg>