<?xml version="1.0" encoding="utf-8"?>
<!-- Generator: Adobe Illustrator 21.1.0, SVG Export Plug-In . SVG Version: 6.00 Build 0)  -->
<svg version="1.1" id="Layer_1" xmlns="http://www.w3.org/2000/svg" xmlns:xlink="http://www.w3.org/1999/xlink" x="0px" y="0px"
	 viewBox="0 0 85.2 72.7" style="enable-background:new 0 0 85.2 72.7;" xml:space="preserve">
<style type="text/css">
	.st0{fill:#F8002D;}
	.st1{fill:#CDCDCD;}
	.st2{opacity:0.9;fill:#F8002D;enable-background:new    ;}
</style>
<path class="st0" d="M42.1,0c11,0.1,21.5,4.4,29.5,12s12.8,17.9,13.6,28.9h-3.3c-0.8-10.1-5.3-19.6-12.6-26.6
	c-7.4-7-17.1-10.9-27.2-11C42.1,3.3,42.1,0,42.1,0z"/>
<path class="st1" d="M42.1,3.2c10.1,0.1,19.8,4,27.2,11s11.9,16.5,12.6,26.6h-1.3c-0.8-9.8-5.1-18.9-12.3-25.7
	C61.2,8.4,51.9,4.7,42.1,4.5V3.2z M74.8,40.8c-0.7-8.2-4.5-15.9-10.5-21.5s-13.9-8.8-22.2-8.9v12.1c5,0.1,9.9,2,13.7,5.4
	c3.8,3.4,6.2,8,7,13h12V40.8z"/>
<path class="st0" d="M42.1,17.7c6.3,0.1,12.3,2.5,17,6.8s7.6,10.1,8.4,16.3h-4.6c-0.7-5-3.2-9.7-7-13c-3.8-3.4-8.7-5.3-13.7-5.4
	v-4.7H42.1z"/>
<path class="st2" d="M41.5,27c4,0,7.8,1.4,10.9,3.9c3,2.5,5.1,6,5.8,9.8H49c-0.7-1.7-1.9-3.1-3.5-3.9c-1.6-0.9-3.4-1.2-5.2-0.9
	s-3.5,1.2-4.7,2.5s-2,3-2.1,4.8s0.4,3.6,1.4,5.1s2.5,2.6,4.3,3.1c1.7,0.5,3.6,0.5,5.3-0.2c1.7-0.6,3.1-1.8,4.1-3.4h9.5
	c-0.8,3.3-2.6,6.3-5.2,8.6s-5.8,3.7-9.2,4.1c-3.4,0.4-6.9-0.2-9.9-1.8s-5.5-4.1-7.1-7.1l6.2-3.7H20.5c0.7,3.6,2.4,7,4.9,9.9
	c2.5,2.8,5.6,4.9,9.2,6.1l-3.1,8.8c-5.4-1.8-10.2-5.1-13.9-9.5c-3.6-4.4-6-9.7-6.7-15.3H0v-8.1h25.1c0.9-3.6,3-6.9,6-9.2
	C34,28.2,37.7,27,41.5,27z"/>
</svg>
