<svg width="16" height="19" fill="none" xmlns="http://www.w3.org/2000/svg"><path d="M4.667 1.382a4.604 4.604 0 0 0-1.382 3.332A4.718 4.718 0 0 0 8 9.43c1.22 0 2.439-.488 3.333-1.382a4.604 4.604 0 0 0 1.382-3.333A4.718 4.718 0 0 0 7.999 0a4.605 4.605 0 0 0-3.332 1.382zm6.746 3.332c0 .894-.325 1.788-.975 2.439-.65.65-1.544.975-2.439.975-1.869 0-3.413-1.544-3.413-3.414 0-.894.325-1.788.975-2.438.65-.65 1.544-.976 2.438-.976 1.87-.08 3.414 1.464 3.414 3.414z" fill="#FF0032"/><path d="M12.79 9.255c-.327-.34-.764-.34-1.092 0 0 0-3.717 2.946-7.216 0a.964.964 0 0 0-1.093 0C3.28 9.368 0 12.315 0 18.207c0 .226.11.453.219.566A.82.82 0 0 0 .765 19h14.322c.437 0 .765-.34.874-.793.11-.227.219-5.78-3.17-8.952zM1.75 17.3c.218-3.286 1.639-5.325 2.404-6.232 3.061 2.04 6.232 1.133 7.981 0 1.75 2.04 2.077 4.873 2.187 6.232H1.748z" fill="#FF0032"/></svg>