<svg width="22" height="21" fill="none" xmlns="http://www.w3.org/2000/svg"><path d="M21.642 7.96a.315.315 0 0 0-.015-.071.335.335 0 0 0-.02-.06.308.308 0 0 0-.036-.053.33.33 0 0 0-.048-.054l-.015-.016-3.47-2.592V2.428c0-.575-.484-1.041-1.082-1.041h-3.91L11.481.217a1.103 1.103 0 0 0-1.316 0l-1.566 1.17H4.69c-.598 0-1.082.466-1.082 1.04v2.687L.138 7.706c-.006.005-.009.011-.014.016a.33.33 0 0 0-.048.054.31.31 0 0 0-.036.053.334.334 0 0 0-.02.06.318.318 0 0 0-.016.07c0 .006-.004.013-.004.02v11.8c0 .22.075.435.212.612.002.003.002.007.005.01l.011.01c.203.256.518.407.853.409h19.483c.336-.001.653-.153.856-.411.003-.004.007-.005.01-.008l.005-.01c.137-.177.211-.392.212-.612V7.98c0-.007-.005-.014-.005-.02zM10.606.764a.357.357 0 0 1 .43 0l.833.622H9.776l.83-.622zm-9.434 19.36l9.434-7.048a.357.357 0 0 1 .43 0l9.437 7.049h-19.3zm19.753-.54L11.48 12.53a1.104 1.104 0 0 0-1.316 0L.72 19.585V8.508l5.913 4.416a.37.37 0 0 0 .506-.061.338.338 0 0 0-.064-.487L1.07 7.89l2.538-1.897v2.681c0 .192.161.347.36.347.2 0 .361-.155.361-.347V2.428c0-.192.162-.347.361-.347h12.267c.2 0 .36.155.36.347v6.246c0 .192.162.347.362.347.199 0 .36-.155.36-.347V5.993l2.539 1.897-6.017 4.494a.34.34 0 0 0 .083.598c.12.047.257.028.359-.05l5.923-4.424v11.077z" fill="#FF0032"/><path d="M15.151 8.327V6.939c0-2.3-1.938-4.164-4.33-4.164-2.39 0-4.329 1.864-4.329 4.164s1.939 4.164 4.33 4.164c.199 0 .36-.155.36-.347a.354.354 0 0 0-.36-.347c-1.993 0-3.608-1.554-3.608-3.47 0-1.917 1.615-3.47 3.608-3.47 1.992 0 3.608 1.553 3.608 3.47v1.388a.708.708 0 0 1-.722.694.708.708 0 0 1-.722-.694V6.939a.354.354 0 0 0-.36-.347c-.2 0-.361.155-.361.347 0 .766-.646 1.388-1.443 1.388s-1.443-.622-1.443-1.388c0-.767.646-1.388 1.443-1.388.199 0 .36-.155.36-.347a.354.354 0 0 0-.36-.347c-.97-.002-1.821.615-2.087 1.511-.266.897.12 1.853.945 2.343.824.49 1.886.392 2.6-.238.079.734.742 1.28 1.508 1.24.766-.038 1.366-.648 1.363-1.386z" fill="#FF0032"/></svg>