<svg width="40" height="40" fill="none" xmlns="http://www.w3.org/2000/svg"><circle cx="20" cy="20" r="20" fill="#F8002D"/><g clip-path="url(#clip0)" fill="#fff"><path d="M20.275 19.727h3.306a9.645 9.645 0 0 0-.736-3.445 10.16 10.16 0 0 1-2.57.397v3.048zm2.875-4.122a9.615 9.615 0 0 0 2.3-1.151l.18-.138a7.982 7.982 0 0 0-5.051-2.297l-.143.116a10.216 10.216 0 0 1 2.714 3.47zm-2.875-2.879v3.401a9.655 9.655 0 0 0 2.34-.354 9.656 9.656 0 0 0-2.34-3.047zm3.192 10.926c.864.313 1.69.737 2.453 1.281l.24.18A7.968 7.968 0 0 0 28 20.279h-3.866a10.196 10.196 0 0 1-.667 3.373zm-8.917-9.198c.718.49 1.492.872 2.3 1.151a10.22 10.22 0 0 1 2.715-3.47l-.143-.116a7.985 7.985 0 0 0-5.06 2.306l.189.129zm5.174-1.728a9.656 9.656 0 0 0-2.34 3.047 9.64 9.64 0 0 0 2.34.354v-3.401zm-3.858 7.554H12a7.97 7.97 0 0 0 1.84 4.832l.235-.175a10.216 10.216 0 0 1 2.459-1.285 10.185 10.185 0 0 1-.668-3.373zm.759-4.169a10.179 10.179 0 0 1-2.386-1.201l-.26-.178A7.971 7.971 0 0 0 12 19.727h3.866c.034-1.26.292-2.482.76-3.616zm-.207 3.616h3.306V16.68a10.205 10.205 0 0 1-2.57-.398 9.636 9.636 0 0 0-.736 3.445zm3.12 8.119a10.242 10.242 0 0 1-2.792-3.684 9.681 9.681 0 0 0-2.345 1.22l-.19.143a7.986 7.986 0 0 0 5.137 2.456l.19-.135zm.186-4.796v-2.77h-3.306a9.622 9.622 0 0 0 .639 3.196c.86-.259 1.754-.401 2.667-.425zm5.869 2.329a9.603 9.603 0 0 0-2.338-1.217 10.207 10.207 0 0 1-2.792 3.685l.189.134a7.986 7.986 0 0 0 5.137-2.456l-.196-.146zm.181-10.479a10.24 10.24 0 0 1-2.399 1.21 10.2 10.2 0 0 1 .76 3.617H28a7.971 7.971 0 0 0-1.99-5.007l-.237.18zm-6.05 12.38v-3.677a9.623 9.623 0 0 0-2.453.386 9.648 9.648 0 0 0 2.453 3.291zm3.856-7h-3.305v2.77a10.2 10.2 0 0 1 2.668.426 9.67 9.67 0 0 0 .638-3.197zm-.851 3.71a9.637 9.637 0 0 0-2.454-.387v3.678a9.617 9.617 0 0 0 2.454-3.292z"/></g><defs><clipPath id="clip0"><path fill="#fff" transform="translate(12 12)" d="M0 0h16v16H0z"/></clipPath></defs></svg>