<svg width="40" height="40" fill="none" xmlns="http://www.w3.org/2000/svg"><circle cx="20" cy="20" r="20" fill="#F8002D"/><g clip-path="url(#clip0)"><path d="M27.641 24.645l-2.47-2.472c-.493-.49-1.308-.475-1.817.035l-1.245 1.244-.246-.136c-.786-.436-1.862-1.033-2.994-2.166-1.136-1.135-1.733-2.213-2.17-3l-.134-.24.836-.834.41-.411c.51-.51.524-1.325.034-1.817l-2.471-2.471c-.492-.491-1.307-.476-1.817.034l-.696.7.019.02a4.027 4.027 0 0 0-.574 1.011c-.134.353-.217.69-.255 1.027-.327 2.705.91 5.177 4.264 8.531 4.637 4.637 8.373 4.287 8.535 4.27a4.172 4.172 0 0 0 1.03-.259c.367-.143.71-.338 1.008-.571l.015.013.705-.69c.51-.51.524-1.326.033-1.818z" fill="#fff"/></g><defs><clipPath id="clip0"><path fill="#fff" transform="translate(12 12)" d="M0 0h16v16H0z"/></clipPath></defs></svg>