<svg width="20" height="19" fill="none" xmlns="http://www.w3.org/2000/svg"><path d="M18.136 11.708c-.27 0-.49.208-.49.465v4.128c0 .77-.657 1.393-1.468 1.394H2.447c-.81 0-1.467-.625-1.468-1.394V4.187c0-.77.657-1.394 1.468-1.395h4.345c.27 0 .49-.208.49-.465a.478.478 0 0 0-.49-.464H2.447C1.097 1.864.002 2.903 0 4.187V16.3c.002 1.283 1.096 2.323 2.447 2.324h13.731c1.35-.001 2.445-1.041 2.447-2.324v-4.128a.478.478 0 0 0-.49-.465z" fill="#FF0032"/><path d="M18.655.614a2.262 2.262 0 0 0-3.098 0L6.873 8.92a.461.461 0 0 0-.125.205l-1.142 3.943a.452.452 0 0 0 .124.454.503.503 0 0 0 .475.12l4.123-1.093a.493.493 0 0 0 .214-.12l8.684-8.306a2.033 2.033 0 0 0 0-2.963l-.57-.546zM7.933 9.223l7.108-6.799 2.292 2.193-7.108 6.798-2.292-2.192zm-.458.878l1.832 1.752-2.533.671.701-2.423zm11.063-6.636l-.516.493-2.293-2.192.517-.494a1.256 1.256 0 0 1 1.72 0l.572.546a1.13 1.13 0 0 1 0 1.647z" fill="#FF0032"/></svg>