<svg width="40" height="40" fill="none" xmlns="http://www.w3.org/2000/svg"><circle cx="20" cy="20" r="20" fill="#F8002D"/><g clip-path="url(#clip0)" fill="#fff"><path d="M26.571 26.285c.36 0 .671-.118.936-.353L22.974 21.4c-.108.078-.214.153-.313.226-.34.25-.615.445-.826.584-.212.14-.493.283-.844.429a2.572 2.572 0 0 1-.982.219h-.019a2.57 2.57 0 0 1-.982-.22 5.08 5.08 0 0 1-.844-.428 21.04 21.04 0 0 1-.826-.584l-.313-.227-4.534 4.534c.265.235.577.353.937.353H26.57zm-13.669-7.741a4.738 4.738 0 0 1-.902-.776v6.896l3.995-3.995a321.975 321.975 0 0 0-3.093-2.125zm14.205 0a261.82 261.82 0 0 0-3.101 2.127L28 24.665v-6.897a4.932 4.932 0 0 1-.893.776z"/><path d="M26.571 13.714H13.428c-.458 0-.81.155-1.058.464-.247.31-.37.697-.37 1.161 0 .375.164.781.491 1.219.327.437.676.781 1.045 1.031.202.143.812.567 1.83 1.272a585.36 585.36 0 0 1 2.34 1.63l.133.095.246.177a9.65 9.65 0 0 0 .946.63c.182.107.353.187.514.24.16.054.31.081.446.081h.019c.137 0 .286-.027.446-.08.161-.054.332-.134.514-.241a9.65 9.65 0 0 0 .946-.63 65.632 65.632 0 0 1 .38-.272l.903-.628 3.275-2.274c.435-.303.798-.67 1.09-1.098.29-.429.437-.878.437-1.348a1.37 1.37 0 0 0-.424-1.01 1.38 1.38 0 0 0-1.005-.419z"/></g><defs><clipPath id="clip0"><path fill="#fff" transform="translate(12 12)" d="M0 0h16v16H0z"/></clipPath></defs></svg>