<svg width="40" height="40" fill="none" xmlns="http://www.w3.org/2000/svg"><circle cx="20" cy="20" r="20" fill="#F8002D"/><g clip-path="url(#clip0)" fill="#fff"><path d="M20.275 19.727h3.306a9.645 9.645 0 0 0-.736-3.445c-.83.241-1.692.374-2.57.397v3.048zM23.15 15.605a9.615 9.615 0 0 0 2.3-1.151l.18-.138a7.982 7.982 0 0 0-5.051-2.297l-.143.116a10.216 10.216 0 0 1 2.714 3.47zM20.275 12.726v3.401a9.655 9.655 0 0 0 2.34-.354 9.656 9.656 0 0 0-2.34-3.047zM23.467 23.652c.864.313 1.69.737 2.453 1.281l.24.18A7.968 7.968 0 0 0 28 20.279h-3.866a10.196 10.196 0 0 1-.667 3.373zM14.55 14.454c.718.49 1.492.872 2.3 1.151a10.22 10.22 0 0 1 2.715-3.47l-.143-.116a7.985 7.985 0 0 0-5.06 2.306l.189.129zM19.724 12.726a9.656 9.656 0 0 0-2.34 3.047 9.64 9.64 0 0 0 2.34.354v-3.401zM15.866 20.28H12a7.97 7.97 0 0 0 1.84 4.832l.235-.175a10.216 10.216 0 0 1 2.459-1.285 10.185 10.185 0 0 1-.668-3.373zM16.625 16.111a10.179 10.179 0 0 1-2.386-1.201l-.26-.178A7.971 7.971 0 0 0 12 19.727h3.866c.034-1.26.292-2.482.76-3.616zM16.418 19.727h3.306V16.68a10.205 10.205 0 0 1-2.57-.398 9.636 9.636 0 0 0-.736 3.445zM19.538 27.846a10.242 10.242 0 0 1-2.792-3.684c-.826.297-1.616.701-2.345 1.22l-.19.143a7.986 7.986 0 0 0 5.137 2.456l.19-.135zM19.724 23.05v-2.77h-3.306c.031 1.109.25 2.187.639 3.196.86-.259 1.754-.401 2.667-.425zM25.593 25.379a9.603 9.603 0 0 0-2.338-1.217 10.207 10.207 0 0 1-2.792 3.685l.189.134a7.986 7.986 0 0 0 5.137-2.456l-.196-.146zM25.774 14.9a10.24 10.24 0 0 1-2.399 1.21 10.2 10.2 0 0 1 .76 3.617H28a7.971 7.971 0 0 0-1.99-5.007l-.237.18zM19.724 27.28v-3.677a9.623 9.623 0 0 0-2.453.386 9.648 9.648 0 0 0 2.453 3.291zM23.58 20.28h-3.305v2.77c.914.025 1.808.167 2.668.426a9.67 9.67 0 0 0 .638-3.197zM22.729 23.99a9.637 9.637 0 0 0-2.454-.387v3.678a9.617 9.617 0 0 0 2.454-3.292z"/></g><defs><clipPath id="clip0"><path fill="#fff" transform="translate(12 12)" d="M0 0h16v16H0z"/></clipPath></defs></svg>