<svg width="40" height="40" viewBox="0 0 40 40" fill="none" xmlns="http://www.w3.org/2000/svg">
<circle cx="20" cy="20" r="20" fill="#F8002D"/>
<g clip-path="url(#clip0)">
<path d="M20.2754 19.7267H23.5809C23.547 18.5262 23.2957 17.3613 22.8454 16.2817C22.0143 16.5231 21.1526 16.6559 20.2754 16.6793V19.7267Z" fill="white"/>
<path d="M23.1499 15.6051C23.9584 15.3262 24.7323 14.9446 25.4493 14.454L25.6296 14.316C24.3107 13.01 22.5414 12.1601 20.5786 12.019L20.4355 12.1353C21.5991 13.0986 22.519 14.2828 23.1499 15.6051Z" fill="white"/>
<path d="M20.2754 12.7256V16.1272C21.0736 16.1046 21.8577 15.9856 22.6148 15.773C22.0552 14.6244 21.2644 13.5884 20.2754 12.7256Z" fill="white"/>
<path d="M23.4668 23.6522C24.331 23.9647 25.1566 24.3888 25.92 24.933L26.1596 25.1125C27.2574 23.7914 27.9375 22.1124 27.9999 20.2793H24.1339C24.1027 21.4494 23.8741 22.5867 23.4668 23.6522Z" fill="white"/>
<path d="M14.5507 14.454C15.2678 14.9446 16.042 15.326 16.8501 15.6051C17.481 14.2831 18.401 13.0989 19.5648 12.1353L19.4218 12.019C17.4545 12.1604 15.6814 13.0138 14.3613 14.3245L14.5507 14.454Z" fill="white"/>
<path d="M19.7242 12.7256C18.7349 13.5884 17.9444 14.6246 17.3848 15.7727C18.1418 15.9853 18.926 16.1046 19.7242 16.1269V12.7256Z" fill="white"/>
<path d="M15.8663 20.2791H12C12.0627 22.1121 12.7424 23.7908 13.8402 25.1123L14.0749 24.9369C14.8411 24.3911 15.6683 23.9656 16.5339 23.6525C16.1258 22.5862 15.8975 21.4489 15.8663 20.2791Z" fill="white"/>
<path d="M16.6253 16.111C15.7868 15.8172 14.9839 15.4194 14.2387 14.9097L13.9797 14.7324C12.801 16.0773 12.0652 17.8179 12 19.7266H15.8663C15.8997 18.4676 16.1584 17.245 16.6253 16.111Z" fill="white"/>
<path d="M16.418 19.7269H19.7235V16.6795C18.8458 16.656 17.9838 16.5232 17.1532 16.2825C16.7029 17.3618 16.4517 18.5264 16.418 19.7269Z" fill="white"/>
<path d="M19.5376 27.8459C18.3174 26.8257 17.3726 25.5655 16.7459 24.1624C15.9198 24.4589 15.1304 24.8631 14.4012 25.3827L14.2109 25.5249C15.5291 26.9063 17.3337 27.8177 19.3479 27.9812L19.5376 27.8459Z" fill="white"/>
<path d="M19.7235 23.0506V20.2791H16.418C16.4492 21.3887 16.6678 22.4669 17.0566 23.4763C17.9161 23.2174 18.8107 23.0749 19.7235 23.0506Z" fill="white"/>
<path d="M25.5935 25.3789C24.867 24.8612 24.0799 24.4581 23.2551 24.1624C22.6278 25.5688 21.6819 26.8301 20.4629 27.8467L20.652 27.9812C22.6662 27.8177 24.4711 26.9066 25.7892 25.5252L25.5935 25.3789Z" fill="white"/>
<path d="M25.7741 14.9008C25.0231 15.4149 24.216 15.815 23.375 16.1102C23.8422 17.2444 24.1009 18.4673 24.1346 19.7266H28.0009C27.9354 17.8118 27.1955 16.0665 26.0104 14.72L25.7741 14.9008Z" fill="white"/>
<path d="M19.7238 27.2802V23.6028C18.8848 23.6263 18.0628 23.7563 17.2715 23.9893C17.8356 25.2343 18.6653 26.3569 19.7238 27.2802Z" fill="white"/>
<path d="M23.5809 20.2791H20.2754V23.0506C21.1885 23.0749 22.0833 23.2174 22.9431 23.4763C23.3308 22.4672 23.5494 21.389 23.5809 20.2791Z" fill="white"/>
<path d="M22.7286 23.9893C21.9373 23.7563 21.1147 23.6265 20.2754 23.6028V27.2813C21.3331 26.3611 22.1637 25.2373 22.7286 23.9893Z" fill="white"/>
</g>
<defs>
<clipPath id="clip0">
<rect width="16" height="16" fill="white" transform="translate(12 12)"/>
</clipPath>
</defs>
</svg>
