<svg id="Layer_1" xmlns="http://www.w3.org/2000/svg" viewBox="0 0 319 72.6"><style>.st0{fill:#fff}.st1{fill:#aeaeaf}</style><path class="st0" d="M42.1 0c11 .1 21.5 4.4 29.5 12s12.8 17.9 13.6 28.9h-3.3c-.8-10.1-5.3-19.6-12.6-26.6-7.4-7-17.1-10.9-27.2-11V0z"/><path class="st1" d="M42.1 3.2c10.1.1 19.8 4 27.2 11 7.4 7 11.9 16.5 12.6 26.6h-1.3c-.8-9.8-5.1-18.9-12.3-25.7C61.2 8.4 51.9 4.7 42.1 4.5V3.2zm32.7 37.6c-.7-8.2-4.5-15.9-10.5-21.5s-13.9-8.8-22.2-8.9v12.1c5 .1 9.9 2 13.7 5.4 3.8 3.4 6.2 8 7 13h12z"/><path class="st0" d="M42.1 17.7c6.3.1 12.3 2.5 17 6.8 4.7 4.3 7.6 10.1 8.4 16.3h-4.6c-.7-5-3.2-9.7-7-13-3.8-3.4-8.7-5.3-13.7-5.4v-4.7z"/><path class="st0" d="M41.5 27c4 0 7.8 1.4 10.9 3.9 3 2.5 5.1 6 5.8 9.8H49c-.7-1.7-1.9-3.1-3.5-3.9-1.6-.9-3.4-1.2-5.2-.9-1.8.3-3.5 1.2-4.7 2.5-1.2 1.3-2 3-2.1 4.8-.1 1.8.4 3.6 1.4 5.1s2.5 2.6 4.3 3.1c1.7.5 3.6.5 5.3-.2 1.7-.6 3.1-1.8 4.1-3.4h9.5c-.8 3.3-2.6 6.3-5.2 8.6s-5.8 3.7-9.2 4.1c-3.4.4-6.9-.2-9.9-1.8s-5.5-4.1-7.1-7.1l6.2-3.7H20.5c.7 3.6 2.4 7 4.9 9.9 2.5 2.8 5.6 4.9 9.2 6.1l-3.1 8.8c-5.4-1.8-10.2-5.1-13.9-9.5-3.6-4.4-6-9.7-6.7-15.3H0v-8.1h25.1c.9-3.6 3-6.9 6-9.2C34 28.2 37.7 27 41.5 27z" opacity=".9"/><path class="st0" d="M120.2 54.1h-3.8V32.2h-8.2v-4.4h21.1v4.4h-8.2V54h-.9zm23.4-7.9h.9v-.9-.6-.4c.1-2.8-.8-5.4-2.6-7.6-.9-.9-1.9-1.7-3.1-2.2s-2.4-.7-3.7-.7c-1.3 0-2.6.3-3.7.8-1.2.5-2.2 1.3-3.1 2.2-1.8 2-2.8 4.7-2.8 7.4s1 5.3 2.8 7.3c.9 1 2 1.7 3.3 2.2 1.2.5 2.6.8 3.9.8 1.6 0 3.3-.3 4.7-1 1.3-.7 2.4-1.6 3.4-2.6l.6-.7-.6-.6-1.7-1.5-.7-.6-.7.7c-.6.7-1.4 1.2-2.2 1.6-.9.4-1.8.6-2.8.6-1.4 0-2.7-.5-3.6-1.4-.8-.7-1.3-1.6-1.6-2.6h13.3zm-11.7-6.9c.4-.4.9-.8 1.5-1 .6-.2 1.1-.4 1.7-.4.6 0 1.2.1 1.7.3.6.2 1.1.6 1.5 1 .7.8 1.2 1.8 1.4 2.8h-9.4c.3-1 .8-2 1.5-2.7h.1zm18.3 14.8h-3.8V26.7h4.6v27.4h-.8zm21.1-7.9h-13.2c.3 1 .8 1.9 1.5 2.6 1 .9 2.3 1.4 3.7 1.4 1 0 1.9-.2 2.8-.6.8-.4 1.6-1 2.2-1.6l.7-.7.7.6 1.7 1.5.6.6-.6.7c-1 1.1-2.2 2-3.5 2.7-1.5.7-3.1 1.1-4.7 1-1.3 0-2.6-.3-3.9-.8-1.2-.5-2.3-1.3-3.3-2.2-1.9-2-2.9-4.6-2.8-7.4 0-2.7.9-5.3 2.7-7.4.9-.9 1.9-1.7 3.1-2.2 1.2-.5 2.5-.8 3.7-.7 1.3 0 2.5.2 3.7.7 1.2.5 2.2 1.3 3.1 2.2 1.8 2.1 2.7 4.8 2.7 7.5V46h-.9zm-11.7-6.9c-.7.8-1.2 1.7-1.5 2.7h9.3c-.2-1-.7-2-1.4-2.8-.4-.4-.9-.8-1.5-1-.6-.2-1.1-.3-1.7-.3-.6 0-1.2.1-1.7.4-.6.2-1 .6-1.5 1zm28.1 14.1c-1.4.8-3.1 1.1-4.7 1.1-1.4 0-2.7-.2-4-.8-1.3-.5-2.4-1.3-3.3-2.3-1.9-2-3-4.6-3-7.4s1.1-5.4 3-7.4c.9-.9 2.1-1.7 3.3-2.2 1.2-.5 2.6-.8 3.9-.8 1.6 0 3.2.3 4.7 1 1.2.6 2.3 1.5 3.2 2.5l.6.7-.6.7-1.7 1.8-.7.7-.7-.8c-.6-.7-1.4-1.3-2.2-1.7-.8-.4-1.8-.7-2.7-.6-.7 0-1.4.1-2.1.4-.7.3-1.3.7-1.7 1.3-1.1 1.2-1.7 2.8-1.6 4.4 0 1.6.6 3.1 1.7 4.3.8.9 1.9 1.5 3.1 1.7 1.2.2 2.4 0 3.5-.6.8-.5 1.6-1 2.2-1.7l.7-.7.7.6 1.8 1.7.7.6-.6.7c-1.1 1.2-2.2 2.1-3.5 2.8zm21-1.9c1.9-2 3-4.6 3-7.4s-1.1-5.4-3-7.4c-2-1.9-4.6-3-7.3-3s-5.4 1.1-7.3 3c-1.9 2-3 4.6-3 7.4 0 2.8 1.1 5.4 3 7.4 1 1 2.1 1.7 3.4 2.2 1.3.5 2.6.8 4 .8s2.7-.2 4-.8c1.1-.5 2.3-1.3 3.2-2.2zm-11.3-3.1c-1.1-1.2-1.7-2.7-1.7-4.3 0-1.6.6-3.2 1.6-4.4.5-.5 1.1-1 1.8-1.3.7-.3 1.4-.4 2.2-.4.8 0 1.5.1 2.2.4.7.3 1.3.7 1.8 1.3 1.1 1.2 1.7 2.8 1.7 4.4 0 1.6-.5 3.2-1.6 4.4-.5.5-1.1 1-1.8 1.3-.7.3-1.4.4-2.2.4s-1.5-.2-2.2-.4c-.7-.3-1.3-.7-1.8-1.3v-.1zm19.9 5.7h-3.7V34.2h4.6v1.4c.2-.2.4-.4.7-.5 1.2-.8 2.6-1.2 4.1-1.2 1.4 0 2.8.3 4 1.1.7.5 1.4 1.1 1.9 1.8.5-.6 1.2-1.2 1.9-1.6 1.3-.8 2.9-1.2 4.4-1.2 1 0 2.1.1 3 .5 1 .4 1.8 1 2.6 1.7 1.4 1.7 2.1 3.8 2.1 6v12.1h-4.6V42.6c.1-1.2-.3-2.4-1-3.4-.3-.4-.8-.6-1.2-.8-.5-.2-1-.3-1.5-.2-.5 0-1.1.1-1.6.3-.5.2-.9.5-1.3.9-.7.9-1.1 2-1.1 3.2V54H226V42.5c.1-1.2-.3-2.3-1-3.3-.3-.4-.7-.7-1.2-.8-.5-.2-1-.3-1.4-.2-.5 0-1.1.1-1.6.3-.5.2-.9.5-1.3 1-.8 1-1.2 2.2-1.2 3.4v11.2h-1z"/><path class="st1" d="M264.3 53.3c-1.9.8-3.9 1.2-6 1.2-1.8 0-3.5-.3-5.1-1-1.6-.7-3.1-1.7-4.3-2.9-2.5-2.6-3.8-6.1-3.8-9.7 0-3.6 1.4-7.1 3.8-9.7 1.2-1.3 2.7-2.3 4.4-2.9 1.6-.7 3.4-1 5.2-1 2 0 4 .4 5.9 1.2 1.6.8 3 1.8 4.2 3.1l.7.7-.7.7-1.8 2-.7.7-.7-.7c-.9-.9-2-1.6-3.1-2.2-1.2-.6-2.5-.9-3.8-.9-1.1 0-2.2.2-3.3.7-1 .4-2 1.1-2.7 1.9-1.6 1.8-2.5 4.1-2.5 6.5s.9 4.7 2.5 6.5c.8.8 1.7 1.5 2.7 1.9 1 .4 2.1.7 3.3.7 1.3 0 2.6-.2 3.8-.7 1.2-.6 2.3-1.4 3.3-2.4l.7-.7.7.7 1.8 1.9.6.7-.7.7c-1.2 1.2-2.7 2.3-4.4 3zm52-1.8c-.9 1-1.9 1.7-3.1 2.3-1.2.5-2.5.8-3.8.8-1.7 0-3.3-.5-4.7-1.4-.4-.3-.9-.6-1.2-.9v1.8h-4.6V26.7h4.6V36c.4-.4.8-.7 1.3-1 1.4-.9 3-1.3 4.7-1.2 1.3 0 2.6.3 3.8.8 1.2.5 2.3 1.3 3.1 2.3 1.7 2 2.7 4.6 2.7 7.3-.1 2.6-1 5.2-2.8 7.3zM305 48.4c.5.5 1.1 1 1.8 1.3.7.3 1.4.5 2.1.5.7 0 1.4-.1 2.1-.4.7-.3 1.3-.7 1.8-1.2 1-1.2 1.5-2.8 1.5-4.4 0-1.6-.5-3.1-1.5-4.3-.5-.5-1.1-1-1.7-1.2-.7-.3-1.4-.4-2.1-.4-.7 0-1.5.2-2.1.5-.7.3-1.3.7-1.8 1.3-1 1.2-1.6 2.7-1.6 4.3s.5 2.8 1.5 4zm-14.6 4.9c-1.3.8-2.9 1.2-4.4 1.2-1.1 0-2.1-.1-3.1-.5s-1.9-1-2.6-1.7c-1.5-1.6-2.3-3.7-2.2-5.9V34.1h4.6v11.5c-.1 1.2.3 2.4 1.1 3.3.4.4.8.7 1.4.9.5.2 1 .3 1.6.2.6 0 1.2-.1 1.7-.3.5-.2 1-.5 1.5-1 .8-.9 1.3-2.1 1.2-3.4V34.1h4.8V54h-4.7v-1.4l-.9.6v.1zm-16.1.8h-3.7V26.7h4.6v27.4h-.9z"/></svg>