<?xml version="1.0" encoding="utf-8"?>
<!-- Generator: Adobe Illustrator 21.1.0, SVG Export Plug-In . SVG Version: 6.00 Build 0)  -->
<svg version="1.1" id="Layer_1" xmlns="http://www.w3.org/2000/svg" xmlns:xlink="http://www.w3.org/1999/xlink" x="0px" y="0px"
	 viewBox="0 0 319 72.6" style="enable-background:new 0 0 319 72.6;" xml:space="preserve">
<style type="text/css">
	.st0{fill:#FFFFFF;}
	.st1{fill:#AEAEAF;}
	.st2{opacity:0.9;}
</style>
<g>
	<path class="st0" d="M42.1,0c11,0.1,21.5,4.4,29.5,12s12.8,17.9,13.6,28.9h-3.3c-0.8-10.1-5.3-19.6-12.6-26.6
		c-7.4-7-17.1-10.9-27.2-11V0z"/>
</g>
<g>
	<path class="st1" d="M42.1,3.2c10.1,0.1,19.8,4,27.2,11c7.4,7,11.9,16.5,12.6,26.6h-1.3c-0.8-9.8-5.1-18.9-12.3-25.7
		C61.2,8.4,51.9,4.7,42.1,4.5V3.2z M74.8,40.8c-0.7-8.2-4.5-15.9-10.5-21.5c-6-5.6-13.9-8.8-22.2-8.9v12.1c5,0.1,9.9,2,13.7,5.4
		c3.8,3.4,6.2,8,7,13H74.8z"/>
</g>
<g>
	<path class="st0" d="M42.1,17.7c6.3,0.1,12.3,2.5,17,6.8c4.7,4.3,7.6,10.1,8.4,16.3h-4.6c-0.7-5-3.2-9.7-7-13
		c-3.8-3.4-8.7-5.3-13.7-5.4V17.7z"/>
</g>
<g class="st2">
	<path class="st0" d="M41.5,27c4,0,7.8,1.4,10.9,3.9c3,2.5,5.1,6,5.8,9.8H49c-0.7-1.7-1.9-3.1-3.5-3.9c-1.6-0.9-3.4-1.2-5.2-0.9
		c-1.8,0.3-3.5,1.2-4.7,2.5c-1.2,1.3-2,3-2.1,4.8c-0.1,1.8,0.4,3.6,1.4,5.1s2.5,2.6,4.3,3.1c1.7,0.5,3.6,0.5,5.3-0.2
		c1.7-0.6,3.1-1.8,4.1-3.4h9.5c-0.8,3.3-2.6,6.3-5.2,8.6c-2.6,2.3-5.8,3.7-9.2,4.1c-3.4,0.4-6.9-0.2-9.9-1.8c-3-1.6-5.5-4.1-7.1-7.1
		l6.2-3.7H20.5c0.7,3.6,2.4,7,4.9,9.9c2.5,2.8,5.6,4.9,9.2,6.1l-3.1,8.8c-5.4-1.8-10.2-5.1-13.9-9.5c-3.6-4.4-6-9.7-6.7-15.3H0v-8.1
		h25.1c0.9-3.6,3-6.9,6-9.2C34,28.2,37.7,27,41.5,27z"/>
</g>
<path class="st0" d="M120.2,54.1h-3.8V32.2h-8.2v-4.4h21.1v4.4h-8.2v21.8H120.2z M143.6,46.2h0.9v-0.9c0-0.2,0-0.4,0-0.6
	c0-0.3,0-0.4,0-0.4c0.1-2.8-0.8-5.4-2.6-7.6c-0.9-0.9-1.9-1.7-3.1-2.2s-2.4-0.7-3.7-0.7c-1.3,0-2.6,0.3-3.7,0.8
	c-1.2,0.5-2.2,1.3-3.1,2.2c-1.8,2-2.8,4.7-2.8,7.4c0,2.7,1,5.3,2.8,7.3c0.9,1,2,1.7,3.3,2.2c1.2,0.5,2.6,0.8,3.9,0.8
	c1.6,0,3.3-0.3,4.7-1c1.3-0.7,2.4-1.6,3.4-2.6l0.6-0.7l-0.6-0.6l-1.7-1.5l-0.7-0.6l-0.7,0.7c-0.6,0.7-1.4,1.2-2.2,1.6
	c-0.9,0.4-1.8,0.6-2.8,0.6c-1.4,0-2.7-0.5-3.6-1.4c-0.8-0.7-1.3-1.6-1.6-2.6H143.6z M131.9,39.3c0.4-0.4,0.9-0.8,1.5-1
	c0.6-0.2,1.1-0.4,1.7-0.4c0.6,0,1.2,0.1,1.7,0.3c0.6,0.2,1.1,0.6,1.5,1c0.7,0.8,1.2,1.8,1.4,2.8h-9.4c0.3-1,0.8-2,1.5-2.7H131.9z
	 M150.2,54.1h-3.8V26.7h4.6v27.4H150.2z M171.3,46.2h-13.2c0.3,1,0.8,1.9,1.5,2.6c1,0.9,2.3,1.4,3.7,1.4c1,0,1.9-0.2,2.8-0.6
	c0.8-0.4,1.6-1,2.2-1.6l0.7-0.7l0.7,0.6l1.7,1.5L172,50l-0.6,0.7c-1,1.1-2.2,2-3.5,2.7c-1.5,0.7-3.1,1.1-4.7,1
	c-1.3,0-2.6-0.3-3.9-0.8c-1.2-0.5-2.3-1.3-3.3-2.2c-1.9-2-2.9-4.6-2.8-7.4c0-2.7,0.9-5.3,2.7-7.4c0.9-0.9,1.9-1.7,3.1-2.2
	c1.2-0.5,2.5-0.8,3.7-0.7c1.3,0,2.5,0.2,3.7,0.7c1.2,0.5,2.2,1.3,3.1,2.2c1.8,2.1,2.7,4.8,2.7,7.5v0.4c0,0.2,0,0.4,0,0.6v0.9H171.3z
	 M159.6,39.3c-0.7,0.8-1.2,1.7-1.5,2.7h9.3c-0.2-1-0.7-2-1.4-2.8c-0.4-0.4-0.9-0.8-1.5-1c-0.6-0.2-1.1-0.3-1.7-0.3
	c-0.6,0-1.2,0.1-1.7,0.4C160.5,38.5,160.1,38.9,159.6,39.3L159.6,39.3z M187.7,53.4c-1.4,0.8-3.1,1.1-4.7,1.1c-1.4,0-2.7-0.2-4-0.8
	c-1.3-0.5-2.4-1.3-3.3-2.3c-1.9-2-3-4.6-3-7.4s1.1-5.4,3-7.4c0.9-0.9,2.1-1.7,3.3-2.2c1.2-0.5,2.6-0.8,3.9-0.8c1.6,0,3.2,0.3,4.7,1
	c1.2,0.6,2.3,1.5,3.2,2.5l0.6,0.7l-0.6,0.7l-1.7,1.8l-0.7,0.7l-0.7-0.8c-0.6-0.7-1.4-1.3-2.2-1.7c-0.8-0.4-1.8-0.7-2.7-0.6
	c-0.7,0-1.4,0.1-2.1,0.4c-0.7,0.3-1.3,0.7-1.7,1.3c-1.1,1.2-1.7,2.8-1.6,4.4c0,1.6,0.6,3.1,1.7,4.3c0.8,0.9,1.9,1.5,3.1,1.7
	c1.2,0.2,2.4,0,3.5-0.6c0.8-0.5,1.6-1,2.2-1.7l0.7-0.7l0.7,0.6l1.8,1.7l0.7,0.6l-0.6,0.7C190.1,51.8,189,52.7,187.7,53.4z
	 M208.7,51.5c1.9-2,3-4.6,3-7.4s-1.1-5.4-3-7.4c-2-1.9-4.6-3-7.3-3c-2.7,0-5.4,1.1-7.3,3c-1.9,2-3,4.6-3,7.4c0,2.8,1.1,5.4,3,7.4
	c1,1,2.1,1.7,3.4,2.2c1.3,0.5,2.6,0.8,4,0.8c1.4,0,2.7-0.2,4-0.8C206.6,53.2,207.8,52.4,208.7,51.5L208.7,51.5z M197.4,48.4
	c-1.1-1.2-1.7-2.7-1.7-4.3c0-1.6,0.6-3.2,1.6-4.4c0.5-0.5,1.1-1,1.8-1.3c0.7-0.3,1.4-0.4,2.2-0.4c0.8,0,1.5,0.1,2.2,0.4
	c0.7,0.3,1.3,0.7,1.8,1.3c1.1,1.2,1.7,2.8,1.7,4.4c0,1.6-0.5,3.2-1.6,4.4l0,0c-0.5,0.5-1.1,1-1.8,1.3c-0.7,0.3-1.4,0.4-2.2,0.4
	s-1.5-0.2-2.2-0.4c-0.7-0.3-1.3-0.7-1.8-1.3V48.4z M217.3,54.1h-3.7V34.2h4.6v1.4c0.2-0.2,0.4-0.4,0.7-0.5c1.2-0.8,2.6-1.2,4.1-1.2
	c1.4,0,2.8,0.3,4,1.1l0,0c0.7,0.5,1.4,1.1,1.9,1.8c0.5-0.6,1.2-1.2,1.9-1.6c1.3-0.8,2.9-1.2,4.4-1.2c1,0,2.1,0.1,3,0.5
	c1,0.4,1.8,1,2.6,1.7c1.4,1.7,2.1,3.8,2.1,6v12.1h-4.6V42.6c0.1-1.2-0.3-2.4-1-3.4c-0.3-0.4-0.8-0.6-1.2-0.8c-0.5-0.2-1-0.3-1.5-0.2
	c-0.5,0-1.1,0.1-1.6,0.3c-0.5,0.2-0.9,0.5-1.3,0.9c-0.7,0.9-1.1,2-1.1,3.2V54h-4.6V42.5c0.1-1.2-0.3-2.3-1-3.3
	c-0.3-0.4-0.7-0.7-1.2-0.8c-0.5-0.2-1-0.3-1.4-0.2c-0.5,0-1.1,0.1-1.6,0.3c-0.5,0.2-0.9,0.5-1.3,1c-0.8,1-1.2,2.2-1.2,3.4v11.2
	H217.3z"/>
<path class="st1" d="M264.3,53.3c-1.9,0.8-3.9,1.2-6,1.2c-1.8,0-3.5-0.3-5.1-1c-1.6-0.7-3.1-1.7-4.3-2.9c-2.5-2.6-3.8-6.1-3.8-9.7
	c0-3.6,1.4-7.1,3.8-9.7l0,0c1.2-1.3,2.7-2.3,4.4-2.9c1.6-0.7,3.4-1,5.2-1c2,0,4,0.4,5.9,1.2c1.6,0.8,3,1.8,4.2,3.1l0.7,0.7l-0.7,0.7
	l-1.8,2l-0.7,0.7l-0.7-0.7c-0.9-0.9-2-1.6-3.1-2.2c-1.2-0.6-2.5-0.9-3.8-0.9c-1.1,0-2.2,0.2-3.3,0.7c-1,0.4-2,1.1-2.7,1.9
	c-1.6,1.8-2.5,4.1-2.5,6.5s0.9,4.7,2.5,6.5c0.8,0.8,1.7,1.5,2.7,1.9c1,0.4,2.1,0.7,3.3,0.7c1.3,0,2.6-0.2,3.8-0.7
	c1.2-0.6,2.3-1.4,3.3-2.4l0.7-0.7l0.7,0.7l1.8,1.9l0.6,0.7l-0.7,0.7C267.5,51.5,266,52.6,264.3,53.3L264.3,53.3z M316.3,51.5
	c-0.9,1-1.9,1.7-3.1,2.3c-1.2,0.5-2.5,0.8-3.8,0.8c-1.7,0-3.3-0.5-4.7-1.4c-0.4-0.3-0.9-0.6-1.2-0.9v1.8h-4.6V26.7h4.6V36
	c0.4-0.4,0.8-0.7,1.3-1c1.4-0.9,3-1.3,4.7-1.2c1.3,0,2.6,0.3,3.8,0.8c1.2,0.5,2.3,1.3,3.1,2.3c1.7,2,2.7,4.6,2.7,7.3
	C319,46.8,318.1,49.4,316.3,51.5L316.3,51.5z M305,48.4c0.5,0.5,1.1,1,1.8,1.3c0.7,0.3,1.4,0.5,2.1,0.5c0.7,0,1.4-0.1,2.1-0.4
	c0.7-0.3,1.3-0.7,1.8-1.2c1-1.2,1.5-2.8,1.5-4.4c0-1.6-0.5-3.1-1.5-4.3c-0.5-0.5-1.1-1-1.7-1.2c-0.7-0.3-1.4-0.4-2.1-0.4
	c-0.7,0-1.5,0.2-2.1,0.5c-0.7,0.3-1.3,0.7-1.8,1.3c-1,1.2-1.6,2.7-1.6,4.3S304,47.2,305,48.4L305,48.4z M290.4,53.3
	c-1.3,0.8-2.9,1.2-4.4,1.2c-1.1,0-2.1-0.1-3.1-0.5c-1-0.4-1.9-1-2.6-1.7l0,0c-1.5-1.6-2.3-3.7-2.2-5.9V34.1h4.6v11.5
	c-0.1,1.2,0.3,2.4,1.1,3.3c0.4,0.4,0.8,0.7,1.4,0.9c0.5,0.2,1,0.3,1.6,0.2c0.6,0,1.2-0.1,1.7-0.3c0.5-0.2,1-0.5,1.5-1
	c0.8-0.9,1.3-2.1,1.2-3.4V34.1h4.8V54h-4.7v-1.4c-0.3,0.2-0.6,0.4-0.9,0.6V53.3z M274.3,54.1h-3.7V26.7h4.6v27.4L274.3,54.1z"/>
</svg>
