<svg xmlns="http://www.w3.org/2000/svg" viewBox="0 0 95.45 61.37"><defs><style>.cls-1{fill:#fff;}.cls-1,.cls-2{fill-rule:evenodd;}.cls-2{fill:#aeaeaf;}</style></defs><title>Ресурс 1</title><g id="Слой_2" data-name="Слой 2"><g id="_1" data-name="1"><path class="cls-1" d="M51.65,0A26,26,0,0,1,77.27,24.15H75.33A24,24,0,0,0,51.65,1.94Z"/><path class="cls-2" d="M51.65,1.94A24,24,0,0,1,75.33,24.15h-.78A23.26,23.26,0,0,0,51.65,2.72V1.94ZM71.08,24.15a19.8,19.8,0,0,0-19.43-18V13.3A12.68,12.68,0,0,1,63.91,24.15Z"/><path class="cls-1" d="M51.65,10.55a15.43,15.43,0,0,1,15,13.6H63.91A12.69,12.69,0,0,0,51.65,13.3Z"/><path class="cls-1" d="M51.36,15.92a10.06,10.06,0,0,1,9.89,8.23H55.81a4.8,4.8,0,1,0-.31,4.26h5.61a10,10,0,0,1-18.64,2.23l3.7-2.23H38.93A12.7,12.7,0,0,0,47.25,38l-1.82,5.3A18.19,18.19,0,0,1,33.24,28.41H26.77V23.53H41.62A10,10,0,0,1,51.36,15.92Z"/><path class="cls-1" d="M5.41,61.18H3.71V51.29H0v-2H9.56v2H5.85v9.89ZM16,57.6h.41l0-.41a2.17,2.17,0,0,0,0-.26c0-.13,0-.17,0-.2a5.18,5.18,0,0,0-1.17-3.43A4,4,0,0,0,12.17,52a4.17,4.17,0,0,0-3.1,1.36,4.92,4.92,0,0,0-1.25,3.34A4.78,4.78,0,0,0,9.09,60a4.47,4.47,0,0,0,3.24,1.36,4.74,4.74,0,0,0,2.15-.47A5,5,0,0,0,16,59.69l.29-.33L16,59.07l-.75-.68-.32-.28-.3.31a3.34,3.34,0,0,1-1,.74,2.9,2.9,0,0,1-1.27.27,2.4,2.4,0,0,1-1.65-.64A2.47,2.47,0,0,1,10,57.6Zm-5.27-3.09a2,2,0,0,1,1.45-.63,1.92,1.92,0,0,1,1.45.59,2.6,2.6,0,0,1,.64,1.27H10a2.77,2.77,0,0,1,.67-1.23ZM19,61.18H17.3V48.78h2.1v12.4Zm9.54-3.58H22.56a2.54,2.54,0,0,0,.68,1.19,2.42,2.42,0,0,0,1.66.64,2.94,2.94,0,0,0,1.27-.27,3.62,3.62,0,0,0,1-.74l.3-.31.31.28.76.68.33.29-.29.33A5,5,0,0,1,27,60.9a4.69,4.69,0,0,1-2.14.47A4.44,4.44,0,0,1,21.63,60a4.74,4.74,0,0,1-1.27-3.34,4.91,4.91,0,0,1,1.24-3.34A4.19,4.19,0,0,1,24.71,52a4,4,0,0,1,3.07,1.33A5.18,5.18,0,0,1,29,56.73v.2c0,.09,0,.18,0,.26l0,.41Zm-5.26-3.09a2.77,2.77,0,0,0-.67,1.23h4.2a2.68,2.68,0,0,0-.63-1.27,1.94,1.94,0,0,0-1.45-.59,2,2,0,0,0-1.45.63ZM36,60.87a4.38,4.38,0,0,1-2.13.5A4.54,4.54,0,0,1,30.57,60a4.78,4.78,0,0,1,0-6.66A4.56,4.56,0,0,1,33.84,52a4.64,4.64,0,0,1,2.12.47,5,5,0,0,1,1.47,1.12l.28.3-.28.31-.78.82-.32.33L36,55a3.74,3.74,0,0,0-1-.77,2.56,2.56,0,0,0-1.22-.29,2.32,2.32,0,0,0-1.74.77,2.86,2.86,0,0,0-.73,2,2.8,2.8,0,0,0,.75,1.95,2.45,2.45,0,0,0,3,.48,4.05,4.05,0,0,0,1-.79l.3-.32.32.29.81.75.32.29-.29.32A5.32,5.32,0,0,1,36,60.87ZM45.52,60a4.76,4.76,0,0,0,0-6.68,4.74,4.74,0,0,0-6.65,0,4.77,4.77,0,0,0,0,6.69,4.62,4.62,0,0,0,3.31,1.35A4.68,4.68,0,0,0,45.52,60ZM40.4,58.62a2.8,2.8,0,0,1-.76-1.95,2.91,2.91,0,0,1,.74-2,2.42,2.42,0,0,1,1.8-.76,2.51,2.51,0,0,1,1.83.78,2.85,2.85,0,0,1,.76,2,2.89,2.89,0,0,1-.74,2h0a2.52,2.52,0,0,1-3.63,0Zm9,2.56H47.73v-9h2.1v.62a2.34,2.34,0,0,1,.31-.24A3.27,3.27,0,0,1,52,52a3.36,3.36,0,0,1,1.79.48h0a3.34,3.34,0,0,1,.87.8,3.8,3.8,0,0,1,.85-.74,3.66,3.66,0,0,1,2-.54,3.38,3.38,0,0,1,2.54,1,3.89,3.89,0,0,1,.93,2.7v5.49h-2.1V56a2.31,2.31,0,0,0-.45-1.53A1.53,1.53,0,0,0,57.21,54a1.72,1.72,0,0,0-1.31.56A2.24,2.24,0,0,0,55.4,56v5.14H53.31V55.94a2.25,2.25,0,0,0-.45-1.49,1.5,1.5,0,0,0-1.2-.49,1.69,1.69,0,0,0-1.3.58,2.3,2.3,0,0,0-.53,1.55v5.09Z"/><path class="cls-2" d="M70.66,60.83a6.39,6.39,0,0,1-2.71.54,5.86,5.86,0,0,1-4.26-1.77,6.4,6.4,0,0,1,0-8.76h0A5.89,5.89,0,0,1,68,49.07a6.2,6.2,0,0,1,2.66.54A7.15,7.15,0,0,1,72.57,51l.32.3-.3.32-.82.89-.3.32-.32-.3a5.39,5.39,0,0,0-1.41-1A4,4,0,0,0,68,51.1a3.7,3.7,0,0,0-2.72,1.17,4.46,4.46,0,0,0,0,5.89A3.7,3.7,0,0,0,68,59.33,4,4,0,0,0,69.74,59a5.7,5.7,0,0,0,1.5-1.1l.32-.3.31.32.82.87.29.31-.3.3a6.84,6.84,0,0,1-2,1.47ZM94.24,60a4.24,4.24,0,0,1-3.13,1.38A3.94,3.94,0,0,1,89,60.76a3.84,3.84,0,0,1-.56-.41v.83H86.34V48.78h2.09V53a4.81,4.81,0,0,1,.57-.44A3.83,3.83,0,0,1,91.11,52a4.25,4.25,0,0,1,3.14,1.39,5.13,5.13,0,0,1,0,6.61Zm-5.13-1.38a2.47,2.47,0,0,0,1.78.79,2.34,2.34,0,0,0,1.76-.74,2.94,2.94,0,0,0,.67-2,2.88,2.88,0,0,0-.69-1.95,2.36,2.36,0,0,0-1.74-.76,2.48,2.48,0,0,0-1.78.8,2.93,2.93,0,0,0,0,3.85Zm-6.62,2.23a3.59,3.59,0,0,1-2,.53,3.48,3.48,0,0,1-2.59-1h0a3.8,3.8,0,0,1-1-2.69V52.14h2.1v5.21a2.22,2.22,0,0,0,.48,1.51,1.76,1.76,0,0,0,1.33.5,2,2,0,0,0,1.44-.58,2.15,2.15,0,0,0,.56-1.53V52.14H85v9H82.88v-.65a4,4,0,0,1-.39.29Zm-7.3.36H73.53V48.78h2.1v12.4Z"/></g></g></svg>