<svg width="164" height="126" fill="none" xmlns="http://www.w3.org/2000/svg"><path d="M139.851 106.455h-39.769v8.099H64.641v-8.099H12.509 2v8.93c0 2.492 1.03 4.568 2.473 6.23 1.648 1.661 3.709 2.699 6.181 2.699H153.45c2.473 0 4.534-1.038 6.182-2.699 1.648-1.662 2.679-3.738 2.679-6.23v-8.93h-22.46v0z" stroke="#9EA3B2" stroke-width="3" stroke-miterlimit="2.613" stroke-linecap="round" stroke-linejoin="round"/><path d="M60.726 27.75H16.012c-1.649 0-3.297 1.454-3.297 3.323v75.59M151.594 106.456v-75.59c0-1.87-1.443-3.323-3.297-3.323h-44.508" stroke="#9EA3B2" stroke-width="3" stroke-miterlimit="2.613" stroke-linecap="round" stroke-linejoin="round"/><path d="M99.463 39.795h40.387v66.66M24.666 106.455v-66.66h40.18" stroke="#9EA3B2" stroke-width="3" stroke-miterlimit="2.613" stroke-linecap="round" stroke-linejoin="round"/><path d="M103.79 27.75c.206-4.568-.206-11.213-.206-21.39C94.93 7.608 87.511 6.57 82.154 2c-6.388 4.361-13.6 5.815-21.43 4.36 0 9.969-.206 16.614 0 21.39.206 5.607 1.237 8.722 4.122 12.045 3.09 3.738 8.448 7.891 17.308 15.99 8.86-8.099 14.218-12.46 17.309-15.99 3.09-3.53 4.121-6.645 4.327-12.045z" stroke="#A6ABB8" stroke-width="3" stroke-miterlimit="2.613" stroke-linecap="round" stroke-linejoin="round"/><path d="M82.155 46.233c16.278-14.745 14.424-10.8 14.218-32.188-4.946.207-10.097-.623-14.424-3.323-4.327 2.492-9.066 3.53-14.012 3.322 0 3.946-.206 8.1 0 12.045M81.768 60.199v30.527M73.318 80.135l8.449 11.836.412-.83 7.83-11.006" stroke="#FE1845" stroke-width="3" stroke-miterlimit="2.613" stroke-linecap="round" stroke-linejoin="round"/><path d="M75.357 26.504l2.061 5.4 12.363-5.607" stroke="#FE1845" stroke-width="3" stroke-miterlimit="2.613" stroke-linecap="round" stroke-linejoin="round"/></svg>