<svg width="159" height="118" fill="none" xmlns="http://www.w3.org/2000/svg"><path d="M35.36 62.328a.873.873 0 0 1 .039-1.258l10.743-10.186a.857.857 0 0 1 1.248.038c.345.37.33.91-.038 1.258L36.608 62.366c-.454.256-.988.24-1.247-.038zM56.766 51.11c.287-.417.738-.566 1.05-.348l9.163 6.393c.313.219.333.696.046 1.114-.287.418-.737.567-1.05.349l-9.163-6.393c-.241-.323-.261-.8-.046-1.114zM74.442 57.529c-.345-.37-.234-1 .26-1.468l14.462-13.712c.495-.468 1.124-.542 1.47-.172.346.37.234 1-.26 1.468L75.912 57.356c-.58.376-1.21.45-1.47.173z" fill="#FD2E56"/><path d="M94.641 45.192c-3.852 0-6.934-3.106-6.934-6.988 0-3.882 3.082-6.988 6.934-6.988 3.852 0 6.934 3.106 6.934 6.988 0 3.882-3.082 6.988-6.934 6.988zm0-11.259c-2.504 0-4.43 1.941-4.43 4.465 0 2.33 1.926 4.465 4.43 4.465 2.504 0 4.43-1.941 4.43-4.465s-1.926-4.465-4.43-4.465zM71.948 68.063c-3.853 0-6.934-3.106-6.934-6.988 0-3.883 3.081-6.989 6.934-6.989 3.852 0 6.934 3.107 6.934 6.989 0 3.882-3.082 6.988-6.934 6.988zm0-11.259c-2.504 0-4.43 1.941-4.43 4.465 0 2.33 1.926 4.465 4.43 4.465 2.504 0 4.43-1.941 4.43-4.465s-1.926-4.465-4.43-4.465zM51.776 55.357c-3.852 0-6.934-3.106-6.934-6.988 0-3.883 3.082-6.989 6.934-6.989 3.852 0 6.934 3.106 6.934 6.989 0 3.882-3.082 6.988-6.934 6.988zm0-11.259c-2.504 0-4.43 1.941-4.43 4.465 0 2.33 1.926 4.465 4.43 4.465 2.504 0 4.43-1.942 4.43-4.465 0-2.524-1.926-4.465-4.43-4.465zM31.604 74.416c-3.852 0-6.934-3.106-6.934-6.988 0-3.883 3.082-6.989 6.934-6.989 3.852 0 6.934 3.106 6.934 6.989 0 3.882-3.082 6.988-6.934 6.988zm0-11.259c-2.504 0-4.43 1.941-4.43 4.465 0 2.33 1.926 4.465 4.43 4.465 2.504 0 4.43-1.942 4.43-4.465 0-2.524-1.926-4.465-4.43-4.465z" fill="#FD2E56"/><path d="M128.449 98.78H1.145C.491 98.78 0 98.285 0 97.625V1.155C0 .494.49 0 1.145 0H128.45c.654 0 1.145.495 1.145 1.154v96.471c-.163.66-.654 1.155-1.145 1.155zM2.127 96.636h125.176V2.309H2.127v94.327z" fill="#9EA3B2"/><path d="M128.449 23.912H1.145C.491 23.912 0 23.417 0 22.757s.49-1.154 1.145-1.154H128.45c.654 0 1.145.495 1.145 1.154-.163.66-.654 1.155-1.145 1.155z" fill="#9EA3B2"/><path d="M26.017 12.368h-.164-.164-.163-.164-.164-.163-.164-.163-.164-.164-.163-.164-.164-.163-.328-.163-.164-.163-.164-.164-.163-.164-.163-.164-.164-.163-.164-.164-.163-.164-.163-.164-.164-.163-.164-.164-.163-.164-.164-.163-.164-.163-.164-.164-.163-.164-.164H18h-.164-.163-.164-.164-.163-.164-.164-.163-.164-.163-.164-.164-.163-.164-.164-.163-.164-.164-.163-.164-.164-.163-.164-.163-.164-.164-.163-.164-.163-.164-.164-.163-.164-.164-.163-.164-.164-.163-.164-.163-.164-.164-.163-.164-.164-.163-.164-.163-.164-.164-.163-.164-.164-.163-.164-.163-.164-.164-.163-.164-.164-.163-.164-.164-.163-.164-.163-.164c-.655 0-1.145-.495-1.145-1.154 0-.66.49-1.155.981-1.155.655 0 1.146.495 1.146 1.155 19.308.66 18.817 1.154 18.163 1.154z" fill="#FC4266"/><path d="M115.686 88.72H13.745c-.654 0-1.145-.495-1.145-1.154 0-.66.49-1.154 1.145-1.154h101.941c.654 0 1.145.494 1.145 1.154 0 .66-.491 1.154-1.145 1.154zM134.535 117.249c-11.127 0-20.945-8.081-23.235-18.965-.164-.66.327-1.154.818-1.319.654-.165 1.145.33 1.309.825 2.127 10.059 10.963 17.315 21.108 17.315 11.945 0 21.599-9.73 21.599-21.768S146.48 71.57 134.535 71.57c-1.636 0-3.109.165-4.745.495-.655.165-1.146-.165-1.309-.824-.164-.66.163-1.155.818-1.32 1.636-.33 3.436-.495 5.236-.495 13.09 0 23.726 10.72 23.726 23.912 0 13.193-10.636 23.912-23.726 23.912z" fill="#9EA3B2"/><path d="M134.535 117.249c-5.072 0-9.49-7.915-10.308-19.13 0-.659.327-1.153.981-1.153.491 0 1.146.33 1.146.989.818 9.894 4.418 17.15 8.345 17.15 4.09 0 8.508-8.74 8.508-21.767 0-13.028-4.418-21.768-8.508-21.768-1.8 0-3.109 1.484-4.091 2.803-.327.495-.982.66-1.473.33-.49-.33-.654-.99-.327-1.484 1.636-2.474 3.764-3.793 5.727-3.793 5.891 0 10.636 10.554 10.636 23.912 0 13.522-4.745 23.911-10.636 23.911z" fill="#9EA3B2"/><path d="M134.535 117.249c-.655 0-.982-.494-.982-1.154v-45.68c0-.66.491-1.154.982-1.154.654 0 .981.495.981 1.154v45.845c.164.659-.327.989-.981.989z" fill="#9EA3B2"/><path d="M157.278 94.492h-27.654c-.654 0-.981-.495-.981-1.154 0-.66.49-1.155.981-1.155h27.654c.654 0 .981.495.981 1.155s-.49 1.154-.981 1.154zM134.206 84.433c-1.636 0-3.109 0-4.582-.165-.654 0-.981-.495-.981-1.154 0-.66.49-.99 1.145-.99 7.527.66 15.381-.33 23.235-2.638.491-.165 1.146.164 1.309.66.164.494-.163 1.153-.654 1.318-6.709 1.98-13.254 2.969-19.472 2.969zM115.88 105.706c-.491 0-.818-.33-.982-.825-.164-.495.164-1.154.655-1.319 12.272-3.958 24.708-3.958 37.961 0 .491.165.819.824.655 1.319-.164.495-.818.825-1.309.66-12.763-3.793-24.872-3.793-36.817 0 0 .165-.163.165-.163.165z" fill="#9EA3B2"/></svg>