<svg width="151" height="118" fill="none" xmlns="http://www.w3.org/2000/svg"><g opacity=".9"><path d="M149.567 98.351H1.334c-.762 0-1.334-.493-1.334-1.15V1.15C0 .493.572 0 1.334 0h148.233c.762 0 1.334.493 1.334 1.15v96.052c-.191.656-.762 1.149-1.334 1.149zM2.477 96.216h145.757V2.3H2.477v93.917z" fill="#A6ABB8"/><path d="M75.949 56.624c-10.007 0-18.187-8.244-18.187-18.329 0-10.016 8.18-18.26 18.187-18.26 10.006 0 18.187 8.244 18.187 18.329 0 10.084-8.181 18.26-18.187 18.26zm0-35.704c-9.533 0-17.308 7.836-17.308 17.444 0 9.607 7.775 17.443 17.308 17.443s17.308-7.836 17.308-17.444c0-9.607-7.775-17.443-17.308-17.443z" fill="#B5B8C3"/><path d="M75.95 56.624c-3.178 0-6.085-2.998-7.843-7.972-.067-.136 0-.204 0-.34.068-.137.136-.205.27-.205.542-.136.88-.613.947-1.09.068-.409-.067-.818-.338-1.158a1.395 1.395 0 0 0-1.42-.477c-.135 0-.202 0-.338-.068-.067-.069-.202-.137-.202-.273-.406-2.112-.676-4.36-.676-6.677 0-2.453.27-4.838.743-7.087 0-.136.068-.204.203-.272.068-.069.203-.069.338-.069a1.435 1.435 0 0 0 1.758-1.158v-.272c0-.614-.406-1.159-.947-1.363a.932.932 0 0 1-.27-.205c-.067-.136-.067-.204 0-.34 1.826-4.77 4.665-7.564 7.775-7.564 3.245 0 6.288 3.135 8.046 8.381.135.341.203.682.338 1.022.743 2.658 1.15 5.724 1.15 8.858 0 2.317-.204 4.566-.61 6.678 0 .136-.067.204-.202.272-.068.069-.203.069-.338.069s-.203-.069-.338-.069c-.744 0-1.42.614-1.42 1.431 0 .614.406 1.159 1.014 1.363.135.068.203.136.27.204.068.137.068.205 0 .341-1.825 5.11-4.732 8.04-7.91 8.04zm-6.896-7.835c1.623 4.36 4.192 7.018 6.896 7.018 2.705 0 5.274-2.59 6.896-7.018-.743-.41-1.149-1.159-1.149-2.044 0-1.295 1.082-2.385 2.366-2.317.338-1.908.541-4.02.541-6.133 0-2.861-.338-5.723-1.014-8.244-2.502.477-5.003.681-7.505.681a42.43 42.43 0 0 1-5.814-.409c-.338.954-1.217 1.567-2.231 1.5-.406 2.043-.609 4.224-.609 6.472 0 2.113.203 4.157.541 6.133.676 0 1.352.272 1.826.817.405.546.608 1.227.54 1.84-.27.75-.675 1.363-1.284 1.704zm6.964-18.943a44 44 0 0 0 7.302-.613c-.068-.204-.136-.34-.203-.545-1.623-4.838-4.327-7.768-7.167-7.768-2.637 0-5.138 2.453-6.76 6.678.675.409 1.149 1.09 1.149 1.908 1.893.272 3.786.34 5.679.34z" fill="#B5B8C3"/><path d="M93.663 38.772H58.236c-.27 0-.406-.204-.406-.408 0-.205.203-.41.406-.41h35.427c.27 0 .406.205.406.41 0 .204-.135.408-.406.408z" fill="#B5B8C3"/><path d="M75.95 56.624c-.27 0-.405-.204-.405-.408V20.443c0-.272.203-.409.406-.409.202 0 .405.205.405.41v35.704c.068.272-.135.476-.405.476z" fill="#B5B8C3"/><path d="M68.039 31.89a2.289 2.289 0 0 1-2.299-2.316c-1.42-.34-2.907-.75-4.327-1.227-.203-.068-.338-.34-.27-.545.067-.204.338-.34.54-.272 1.42.477 2.84.886 4.192 1.226.338-.817 1.15-1.43 2.096-1.43 1.217 0 2.231 1.021 2.299 2.248 6.626.886 13.319.204 19.877-2.044.203-.068.473.068.541.272.068.205-.068.477-.27.545-6.694 2.317-13.522 2.998-20.283 2.044-.27.886-1.15 1.5-2.096 1.5zm0-3.747c-.676 0-1.217.477-1.352 1.158v.273c0 .75.608 1.43 1.42 1.43.675 0 1.284-.476 1.352-1.158v-.204c0-.818-.677-1.499-1.42-1.499zM90.283 48.857h-.135c-1.488-.477-2.975-.954-4.53-1.295-.203-.068-.406-.272-.338-.545.068-.272.27-.409.54-.34 1.556.34 3.11.817 4.598 1.294.203.068.338.34.27.545 0 .273-.202.34-.405.34zm-28.666 0c-.203 0-.338-.136-.406-.273-.068-.204.068-.477.27-.545 1.555-.545 3.11-.954 4.598-1.294.203-.069.473.068.54.34.068.205-.067.477-.337.545-1.488.341-2.975.75-4.53 1.295-.068-.068-.135-.068-.135-.068zm8.113-1.976c-.203 0-.406-.136-.406-.409-.067-.273.135-.477.338-.477a42.744 42.744 0 0 1 12.508 0c.27.068.406.273.338.477-.068.273-.27.409-.473.34a43.82 43.82 0 0 0-12.305.069c.067 0 .067 0 0 0z" fill="#B5B8C3"/><path d="M83.928 49.061a2.289 2.289 0 0 1-2.3-2.316 2.289 2.289 0 0 1 2.3-2.317c.676 0 1.284.272 1.758.818.405.545.608 1.158.54 1.84-.203 1.158-1.149 1.975-2.298 1.975zm0-3.747c-.744 0-1.42.613-1.42 1.43 0 .75.608 1.431 1.42 1.431.676 0 1.284-.476 1.352-1.158.067-.409-.068-.818-.338-1.158-.203-.34-.541-.545-1.014-.545zM67.973 49.061a2.289 2.289 0 0 1-2.3-2.316 2.289 2.289 0 0 1 2.3-2.317c.676 0 1.284.272 1.758.818.405.545.608 1.226.54 1.84-.27 1.158-1.217 1.975-2.298 1.975zm0-3.747c-.744 0-1.42.613-1.42 1.43 0 .75.608 1.431 1.42 1.431.676 0 1.284-.476 1.352-1.158.067-.409-.068-.818-.338-1.158-.27-.34-.609-.545-1.014-.545z" fill="#FE1845"/><path d="M42.56 75.086c-1.308-.36-2.214-1.079-2.818-1.888-2.415-3.776 3.12-10.877 13.285-18.338 4.127-3.057 4.446-3.983 9.981-6.86M107.071 34.274c1.913.36 3.221 1.079 3.925 2.158 2.416 3.775-3.12 10.877-13.284 18.338-4.53 3.326-9.964 6.652-16.003 9.798-2.113 1.079-4.227 2.068-6.34 3.057-11.473 5.213-22.142 8.09-28.885 8M93.994 35.015c3.616-.577 6.88-.916 9.291-.936" stroke="#AEB2BE" stroke-width="1.3" stroke-miterlimit="2.613" stroke-linecap="round" stroke-linejoin="round"/><path d="M107.173 63.13c-2.314-2.517-5.434-5.304-9.259-8.09" stroke="#B5B8C3" stroke-width="1.3" stroke-miterlimit="2.613" stroke-linecap="round" stroke-linejoin="round"/><path d="M51.619 34.364c-6.038-.899-10.266-.27-11.775 2.068-2.416 3.775 3.12 10.966 13.285 18.338 4.529 3.326 9.963 6.652 16.002 9.798 2.113 1.079 4.227 2.068 6.34 3.057 17.21 7.82 32.508 10.337 35.628 5.573 1.107-1.708.503-4.225-1.51-7.191M58.69 35.952a19.502 19.502 0 0 0-2.788-.937" stroke="#AEB2BE" stroke-width="1.3" stroke-miterlimit="2.613" stroke-linecap="round" stroke-linejoin="round"/><path d="M51.617 34.364c.202-.809 1.007-1.438 2.013-1.438 1.107 0 2.013.809 2.013 1.798v.36c-.201.808-1.007 1.348-1.912 1.348-1.107 0-2.013-.81-2.013-1.798-.1 0-.1-.09-.1-.27zM107.172 63.13c.302-.27.806-.36 1.208-.36 1.107 0 2.013.81 2.013 1.798 0 .63-.403 1.169-.906 1.528-.302.18-.704.27-1.107.27-1.107 0-2.013-.809-2.013-1.798 0-.629.302-1.168.805-1.438zM42.661 75.086c.201-.81 1.007-1.349 1.913-1.349 1.107 0 2.012.81 2.012 1.798v.09c-.1.899-.905 1.618-2.012 1.618-1.108 0-2.014-.809-2.014-1.798 0-.09 0-.18.101-.36zM103.146 34.004c0-.988.906-1.797 2.013-1.797 1.107 0 2.013.809 2.013 1.797v.27c-.1.899-1.006 1.528-2.013 1.528-1.107 0-2.013-.719-2.013-1.798zm0 0c0 .09 0 .09 0 0z" stroke="#FD2E56" stroke-width="1.3" stroke-miterlimit="10" stroke-linecap="round" stroke-linejoin="round"/><path d="M94.7 113.836H56.49c-.38 0-.76-.129-.95-.387-.19-.258-.38-.515-.19-.773l5.703-14.433c.19-.386.57-.644 1.14-.644h26.995c.57 0 1.14.257 1.14.644l5.514 14.304c.19.129.19.258.19.387 0 .515-.57.902-1.33.902zm-36.5-1.675h34.98l-4.943-12.758H63.143L58.2 112.16z" fill="#A6ABB8"/><path d="M111.619 117.315h-71.86c-.76 0-1.331-.386-1.331-.902v-3.479c0-.516.57-.902 1.33-.902h71.861c.76 0 1.331.386 1.331.902v3.479c-.19.516-.761.902-1.331.902zm-70.72-1.675h69.389v-1.804H40.899v1.804z" fill="#A6ABB8"/></g></svg>