<svg width="124" height="128" fill="none" xmlns="http://www.w3.org/2000/svg"><path d="M73.867 21.548c0-.216 0-.216-.1-.327L66.31 4.639c0-.215-.199-.439-.398-.662-.596-1.102-1.689-1.683-2.88-1.728-1.192-.045-2.185.565-2.78 1.622l-.1.104c-.099.104-.099.32-.198.424l-7.34 15.483c-.496.737-.595 1.489-.694 2.24l.01 17.272-7.445 5.656-.099.104a3.329 3.329 0 0 0-1.29 2.65c.002 1.943 1.294 3.395 3.081 3.462l.1.112 5.76.218.001 1.727c.001 2.375 1.79 4.385 3.975 4.468l1.788.067.1.328c.198.439.496.774.894.79l8.143.307c.398.015.795-.186.894-.722l.099-.32 1.986.075c.993.037 1.986-.357 2.78-1.19a4.287 4.287 0 0 0 1.19-2.978v-1.296l5.76.218s.099-.104.198.007c0 0 .1.112.199.008.794.03 1.688-.26 2.283-.885.596-.626.993-1.474.893-2.45 0-1.295-.597-2.397-1.591-3.082l-.1-.112-7.452-6.218-.01-17.487c0-.432 0-.864-.2-1.303zM46.473 49.874l-.198-.007c-.993-.037-1.788-.931-1.789-2.01 0-.648.397-1.28.893-1.586l.198-.208 6.552-4.934.005 9.067-5.66-.322zm34.063-2.492l.298.336c.696.35 1.093 1.012 1.094 1.876 0 .432-.198 1.072-.496 1.384-.298.313-.794.618-1.29.491l-.1-.111-.199-.008c-.1-.111-.198-.007-.298.097l-5.561-.21-.006-9.283 6.558 5.428zM71.98 22.017c.1.327.1.543.1.759l.118 31.2c0 .648-.198 1.072-.595 1.489-.1.104-.298.312-.497.305-.099.104-.397.2-.595.193-.199-.007-.298.097-.398-.015l-2.582-.097a.99.99 0 0 0-.695.297c-.1.104-.198.209-.198.425l-.1.32-6.753-.255-.1-.328c-.198-.44-.496-.774-.894-.79l-2.582-.097c-1.191-.045-2.086-1.05-2.087-2.345l-.018-31.305c0-.431.099-.752.297-1.176l.1-.104L61.94 4.906l.099-.104.099-.104c.198-.424.695-.73 1.29-.707.398.015.895.358 1.193.693.1.111.199.223.1.327l.099.112 7.16 16.894c-.1-.112 0-.216 0 0z" fill="#FE1845"/><path d="M61.808 40.288c-.85-.03-1.53.317-2.127.944-.597.626-.854 1.449-.941 2.277l-.017 5.725c-.005 1.847 1.35 3.37 3.05 3.427l2.549.086c.85.029 1.53-.318 2.127-.944.596-.627.853-1.449.94-2.277l.017-5.725c.003-.924-.335-1.674-.928-2.34-.593-.667-1.357-.97-2.121-1.088l-2.55-.085zm3.899 3.455l-.016 5.725c-.002.37-.172.733-.428 1.002-.256.268-.596.442-.936.43l-2.55-.086c-.679-.023-1.357-.784-1.354-1.523l.016-5.725c0-.37.172-.733.428-1.002.255-.268.596-.441.936-.43l2.549.086c.34.012.679.208.933.493.254.286.423.661.422 1.03zm-4.028-17.682c-.766.252-1.447.598-2.043 1.224-.938.985-1.451 2.26-1.37 3.648-.005 1.478.502 2.788 1.349 3.74.931 1.047 2.12 1.641 3.394 1.592 1.36.045 2.55-.469 3.403-1.363.938-.985 1.451-2.26 1.37-3.648.004-1.478-.502-2.788-1.349-3.74-.932-1.047-2.12-1.64-3.394-1.591-.34-.012-.85-.03-1.36.138zm4.574 5.141c-.003.924-.26 1.746-.857 2.372-.597.627-1.362.878-2.212.85-.85-.03-1.613-.332-2.206-.998-.593-.667-.846-1.506-.843-2.43.003-.923.26-1.746.857-2.372.596-.626 1.362-.878 2.211-.849.85.029 1.614.331 2.207.998.508.756.845 1.506.843 2.43z" fill="#FE1845"/><path d="M115.182 109.411H7.937c-4.453 0-7.937-2.513-7.937-5.724V47.981c0-3.211 3.484-5.724 7.937-5.724h28.65c.774 0 1.355.419 1.355.977V74.09h49.75V43.234c0-.558.582-.977 1.356-.977h26.134c4.452 0 7.936 2.513 7.936 5.724v55.706c0 3.211-3.484 5.724-7.936 5.724zM8.13 44.211c-2.903 0-5.42 1.815-5.42 3.91v55.566c0 2.094 2.517 3.909 5.42 3.909h107.245c2.904 0 5.42-1.815 5.42-3.909V47.981c0-2.094-2.516-3.91-5.42-3.91H90.403v30.856c0 .558-.58.977-1.355.977H36.781c-.775 0-1.355-.419-1.355-.977V44.072H8.13v.14z" fill="#9EA3B2"/><path d="M79.7 124.385H47.525c-.32 0-.64-.124-.8-.373-.16-.249-.32-.498-.16-.747l4.802-13.937c.16-.374.48-.623.96-.623h22.731c.48 0 .96.249.96.623l4.643 13.813c.16.124.16.249.16.373 0 .498-.48.871-1.12.871zm-30.735-1.617H78.42l-4.162-12.32h-21.13l-4.163 12.32z" fill="#9EA3B2"/><path d="M93.948 127.745h-60.51c-.64 0-1.12-.373-1.12-.871v-3.36c0-.497.48-.871 1.12-.871h60.51c.64 0 1.12.374 1.12.871v3.36c-.16.498-.64.871-1.12.871zM34.4 126.128h58.429v-1.743h-58.43v1.743z" fill="#9EA3B2"/><path d="M63.959 102.402c-1.32 0-2.399-.957-2.399-2.127s1.08-2.128 2.399-2.128 2.398.958 2.398 2.128c-.12 1.276-1.2 2.127-2.398 2.127zm0-2.765c-.48 0-.84.319-.84.744 0 .426.36.639.84.639s.72-.32.72-.639a.748.748 0 0 0-.72-.744z" fill="#FD2E56"/><path d="M100.069 82.365H25.994c-.872 0-1.525-.373-1.525-.87v-8.96c0-.498.653-.872 1.525-.872.871 0 1.525.374 1.525.871v8.09h71.243v-8.09c0-.498.654-.87 1.525-.87.872 0 1.525.373 1.525.87v8.96c-.435.498-1.089.871-1.743.871z" fill="#FE1845"/><path d="M64.85 71.082L64.807 66c-.004-.44-.591-.796-1.312-.793-.72.002-1.302.36-1.299.8l.044 5.082c.004.44.591.795 1.312.792.721-.002 1.303-.36 1.298-.8zm-11.48-4.384l3.613-2.3c.5-.318.482-.822-.038-1.127-.52-.305-1.347-.294-1.846.024l-3.614 2.3c-.502.32-.478.825.039 1.127.52.305 1.347.294 1.846-.024zm22.11-1.41l-3.768-2.206c-.52-.305-1.347-.295-1.846.023-.498.318-.482.822.038 1.127l3.77 2.206c.52.305 1.346.295 1.845-.023.5-.318.482-.822-.038-1.127z" fill="#FD2E56"/></svg>