<svg width="157" height="127" fill="none" xmlns="http://www.w3.org/2000/svg"><g opacity=".9"><path d="M77.045 95.938H1.007c-.671 0-1.007-.536-1.007-1.25V1.25C0 .536.504 0 1.007 0h116.826c.671 0 1.007.536 1.007 1.25V55c0-17.82 0-18.07-1.007 0-1.007-19.57-1.007-5.285-1.007-6V2.501H2.014v91.115h75.03c.672 0 1.008.535 1.008 1.25 0 .536-.504 1.072-1.007 1.072z" fill="#AEB2BE"/><path d="M117.665 23.583H1.007c-.671 0-1.007-.536-1.007-1.25 0-.715.504-1.251 1.007-1.251h116.826c.671 0 1.007.535 1.007 1.25s-.504 1.25-1.175 1.25z" fill="#AEB2BE"/><path d="M12.757 16.258c-2.518 0-4.364-2.144-4.364-4.645 0-2.502 2.014-4.645 4.364-4.645 2.518 0 4.364 2.143 4.364 4.645 0 2.5-2.014 4.645-4.364 4.645zm0-6.968c-1.175 0-2.182 1.072-2.182 2.323 0 1.25 1.007 2.322 2.182 2.322s2.182-1.072 2.182-2.322-1.007-2.323-2.182-2.323zM27.192 16.258c-2.518 0-4.364-2.144-4.364-4.645 0-2.502 2.014-4.645 4.364-4.645s4.364 2.143 4.364 4.645c0 2.5-2.014 4.645-4.364 4.645zm0-6.968c-1.175 0-2.182 1.072-2.182 2.323 0 1.25 1.007 2.322 2.182 2.322s2.182-1.072 2.182-2.322-1.007-2.323-2.182-2.323z" fill="#FE1845"/><path d="M117.667 12.685h-64.79c-.672 0-1.008-.536-1.008-1.25 0-.716.504-1.252 1.007-1.252h64.791c.672 0 1.008.537 1.008 1.251 0 .715-.336 1.25-1.008 1.25z" fill="#AEB2BE"/><path d="M94.188 97.684c.735-.44.995-1.433.581-2.215-.414-.782-1.346-1.06-2.081-.619-.735.441-.996 1.434-.582 2.216.414.782 1.347 1.06 2.082.618zM89.446 98.662c-.414-.782-1.346-1.06-2.081-.619l-2.663 1.597c-.734.44-1.668.162-2.081-.62-.415-.782-1.347-1.06-2.082-.618-.735.44-.996 1.433-.582 2.215 1.235 2.334 4.032 3.183 6.245 1.857l2.663-1.596c.735-.441.996-1.433.581-2.216z" fill="#FF0032"/><path d="M91.518 107.181l8.35 13.824c1.802 2.986 5.587 3.95 8.454 2.001 2.836-1.929 3.654-5.946 1.819-8.98l-4.974-8.236 3.852-2.617c.709-.482.913-1.487.455-2.245l-2.156-3.57c.235-.059 1.776-.454 28.956-7.43 3.384-.351 5.233-4.393 3.371-7.473l-5.51-9.122 2.998-5.374a1.718 1.718 0 0 0-.032-1.71l-3.316-5.49c-.314-.52-.878-.807-1.452-.745l-5.856.642-6.117-10.128c-.887-1.467-2.391-2.311-4.023-2.259l-.059.002c-1.577.072-2.969.972-3.751 2.423l-18.68 27.944-12.593 8.555c-4.953 3.363-6.394 10.406-3.185 15.714 2.931 4.853 8.713 6.552 13.449 4.274zm16.056 8.591c.915 1.514.509 3.523-.912 4.489-1.425.97-3.32.5-4.225-1l-8.291-13.727 5.136-3.489 8.292 13.727zm-4.065-12.727l-1.658-2.745 2.568-1.745 1.658 2.745-2.568 1.745zm28.22-39.693l2.292 3.794-1.74 3.118-3.95-6.54 3.398-.372zM115.164 52.36a1.484 1.484 0 0 1 2.627-.087L137.077 84.2c.628 1.04-.012 2.411-1.171 2.494-.208.015-.302.06-.83.19L114.675 53.11c.369-.557.417-.612.489-.752zm-2.392 3.599l19.168 31.73-26.375 6.77-8.796-14.561 16.003-23.94zm-32.135 45.204a8.538 8.538 0 0 1-1.214-4.007c-.135-2.898 1.202-5.663 3.49-7.217l11.557-7.852 8.291 13.724-11.558 7.853c-3.54 2.404-8.28 1.283-10.566-2.501z" fill="#9EA3B2"/><path d="M150.225 50.213l-8.272 5.424c-.716.47-.935 1.472-.488 2.237.446.765 1.388 1.006 2.106.535l8.271-5.424c.717-.47.935-1.472.488-2.237-.446-.766-1.389-1.005-2.105-.535zM150.121 67.081l-5.977-1.414c-.826-.195-1.639.357-1.817 1.234-.177.877.348 1.745 1.173 1.94l5.978 1.415c.83.197 1.639-.364 1.816-1.234.178-.877-.348-1.746-1.173-1.94zM134.236 45.023l-1.289 6.35c-.178.877.347 1.745 1.172 1.941.825.195 1.639-.356 1.817-1.233l1.288-6.35c.178-.878-.347-1.747-1.172-1.942-.825-.195-1.639.357-1.816 1.234z" fill="#FF0032"/></g><path d="M87.742 78.897H27.564c-2.457 0-4.503-1.786-4.503-3.929V34.611c0-2.143 2.046-3.929 4.503-3.929h60.178c2.456 0 4.503 1.786 4.503 3.929v40.357c0 2.143-2.047 3.929-4.503 3.929zM27.564 33.003c-1.024 0-1.843.715-1.843 1.608v40.357c0 .893.82 1.607 1.843 1.607h60.178c1.023 0 1.842-.714 1.842-1.607V34.611c0-.893-.819-1.607-1.842-1.607H27.564z" fill="#AEB2BE"/><g clip-path="url(#clip0)" fill="#FE1845"><path d="M58.264 41.222c-1.935 0-3.85.54-5.54 1.562-.223.135-.305.444-.184.69.122.247.4.339.623.204a9.866 9.866 0 0 1 5.101-1.438c5.884 0 10.67 5.308 10.67 11.832 0 6.525-4.786 11.833-10.67 11.833s-10.67-5.308-10.67-11.833c0-3.186 1.126-6.175 3.172-8.417a.549.549 0 0 0 .005-.72.428.428 0 0 0-.65-.003c-2.221 2.433-3.445 5.68-3.445 9.14 0 7.086 5.198 12.85 11.588 12.85 6.39 0 11.588-5.764 11.588-12.85 0-7.085-5.198-12.85-11.588-12.85z"/><path d="M54.224 61.413c.09.14.232.216.376.216.091 0 .183-.03.264-.092l9.033-7.047a.527.527 0 0 0 .194-.416.527.527 0 0 0-.194-.417l-9.033-7.046a.421.421 0 0 0-.476-.036.519.519 0 0 0-.247.452v9.633c0 .282.205.51.459.51.253 0 .459-.229.459-.51v-8.653l7.776 6.067-8.5 6.63a.545.545 0 0 0-.11.709z"/></g><defs><clipPath id="clip0"><path fill="#fff" transform="translate(46.744 41.298)" d="M0 0h23.041v25.551H0z"/></clipPath></defs></svg>