<svg width="127" height="117" fill="none" xmlns="http://www.w3.org/2000/svg"><g opacity=".9"><path d="M67.577 80.379H.883c-.589 0-.883-.445-.883-1.039V1.74C0 1.146.442.7.883.7h102.47c.588 0 .883.445.883 1.039v58.608c0 .594-.442 1.039-.883 1.039-.442 0-.884-.445-.884-1.039V2.778H1.767V78.45h65.81c.588 0 .883.445.883 1.039 0 .445-.442.89-.883.89z" fill="#AEB2BE"/><path d="M103.205 20.287H.883c-.589 0-.883-.445-.883-1.039 0-.593.442-1.038.883-1.038h102.47c.588 0 .883.445.883 1.038a1.01 1.01 0 0 1-1.031 1.039z" fill="#AEB2BE"/><path d="M11.19 14.203c-2.21 0-3.829-1.78-3.829-3.857 0-2.078 1.767-3.858 3.828-3.858 2.209 0 3.828 1.78 3.828 3.858 0 2.077-1.767 3.857-3.828 3.857zm0-5.786c-1.031 0-1.915.89-1.915 1.929 0 1.038.884 1.928 1.914 1.928 1.03 0 1.914-.89 1.914-1.928 0-1.039-.883-1.93-1.914-1.93zM23.851 14.203c-2.208 0-3.828-1.78-3.828-3.857 0-2.078 1.767-3.858 3.828-3.858 2.062 0 3.828 1.78 3.828 3.858 0 2.077-1.766 3.857-3.828 3.857zm0-5.786c-1.03 0-1.914.89-1.914 1.929 0 1.038.884 1.928 1.914 1.928 1.03 0 1.914-.89 1.914-1.928 0-1.039-.883-1.93-1.914-1.93z" fill="#FE1845"/><path d="M103.207 11.236h-56.83c-.588 0-.883-.445-.883-1.039 0-.593.442-1.038.883-1.038h56.83c.588 0 .883.445.883 1.038 0 .594-.295 1.039-.883 1.039z" fill="#AEB2BE"/><path d="M75.334 92.404c.644-.365.873-1.19.51-1.84a1.336 1.336 0 0 0-1.826-.514 1.357 1.357 0 0 0-.51 1.84c.363.65 1.18.88 1.826.514zM71.175 93.216a1.335 1.335 0 0 0-1.826-.514l-2.336 1.326a1.337 1.337 0 0 1-1.825-.514A1.335 1.335 0 0 0 63.362 93a1.357 1.357 0 0 0-.51 1.84c1.083 1.938 3.536 2.643 5.477 1.542l2.336-1.326c.644-.366.873-1.19.51-1.84z" fill="#FF0032"/><path d="M69.746 101.669l6.625 11.855c1.43 2.562 4.696 3.539 7.303 2.057 2.58-1.466 3.496-4.758 2.04-7.36l-3.947-7.063 3.504-1.989c.645-.366.873-1.19.51-1.84l-1.71-3.06c.207-.04 1.577-.295 25.725-4.8 2.981-.132 4.801-3.396 3.324-6.037l-4.373-7.824 2.893-4.315c.284-.424.307-.973.057-1.419l-2.631-4.708a1.34 1.34 0 0 0-1.234-.686l-5.16.256-4.854-8.685a3.982 3.982 0 0 0-3.41-2.063h-.052a3.978 3.978 0 0 0-3.405 1.831L73.204 78.111l-11.453 6.501c-4.504 2.556-6.116 8.328-3.57 12.88 2.326 4.162 7.305 5.843 11.565 4.177zm13.633 7.879a2.711 2.711 0 0 1-1.021 3.679 2.674 2.674 0 0 1-3.651-1.028l-6.578-11.772 4.671-2.651 6.579 11.772zm-2.927-10.744l-1.316-2.354 2.336-1.326 1.315 2.354-2.335 1.326zm26.685-31.585l1.818 3.254-1.678 2.503-3.134-5.608 2.994-.149zm-13.96-9.894c.366-.59.937-.645 1.169-.636.228.005.798.083 1.136.687l15.302 27.381c.499.892-.13 2-1.149 2.014-.183.002-.268.034-.737.117L92.712 57.925c.35-.445.395-.488.465-.6zm-2.273 2.87l15.208 27.213L82.68 91.78 75.7 79.293l15.204-19.097zM60.517 96.167a6.786 6.786 0 0 1-.864-3.38 6.788 6.788 0 0 1 3.414-5.82L73.578 81l6.578 11.77-10.51 5.967c-3.221 1.827-7.316.674-9.13-2.571z" fill="#9EA3B2"/><path d="M123.986 57.195l-7.513 4.108a1.356 1.356 0 0 0-.539 1.832c.352.655 1.166.9 1.818.543l7.512-4.109a1.356 1.356 0 0 0 .539-1.831 1.334 1.334 0 0 0-1.817-.543zM123.056 71.177l-5.164-1.454a1.338 1.338 0 0 0-1.651.937c-.2.719.217 1.464.93 1.665l5.165 1.453a1.339 1.339 0 0 0 1.651-.937 1.351 1.351 0 0 0-.931-1.664zM110.243 52.139l-1.444 5.204c-.2.72.217 1.464.93 1.665a1.34 1.34 0 0 0 1.652-.937l1.443-5.205a1.352 1.352 0 0 0-.93-1.665 1.339 1.339 0 0 0-1.651.938z" fill="#FF0032"/></g><path d="M76.96 66.226H24.175c-2.154 0-3.95-1.483-3.95-3.263V29.446c0-1.78 1.796-3.263 3.95-3.263H76.96c2.155 0 3.95 1.483 3.95 3.263v33.517c0 1.78-1.795 3.263-3.95 3.263zM24.175 28.111c-.897 0-1.615.593-1.615 1.335v33.517c0 .742.718 1.335 1.615 1.335H76.96c.898 0 1.616-.593 1.616-1.335V29.446c0-.742-.718-1.335-1.616-1.335H24.176z" fill="#AEB2BE"/><g clip-path="url(#clip0)" fill="#FE1845"><path d="M57.414 35.26a9.797 9.797 0 0 0-4.86 1.298.434.434 0 0 0-.16.574c.106.204.35.28.546.168a9.02 9.02 0 0 1 4.474-1.194c5.16 0 9.36 4.409 9.36 9.827 0 5.419-4.2 9.827-9.36 9.827-5.16 0-9.359-4.408-9.359-9.827 0-2.646.988-5.129 2.783-6.99a.438.438 0 0 0 .004-.598.39.39 0 0 0-.57-.003c-1.948 2.02-3.022 4.717-3.022 7.591 0 5.885 4.56 10.673 10.164 10.673 5.605 0 10.165-4.788 10.165-10.673s-4.56-10.672-10.165-10.672z"/><path d="M53.87 52.03c.079.116.203.179.33.179.08 0 .16-.025.231-.077l7.923-5.852a.429.429 0 0 0 .17-.346.43.43 0 0 0-.17-.346l-7.923-5.852a.386.386 0 0 0-.417-.03.426.426 0 0 0-.217.375v8.001c0 .233.18.423.403.423.222 0 .402-.19.402-.423v-7.187l6.82 5.039-7.454 5.506a.436.436 0 0 0-.098.59z"/></g><defs><clipPath id="clip0"><path fill="#fff" transform="translate(47.31 35.324)" d="M0 0h20.21v21.22H0z"/></clipPath></defs></svg>